<?xml version="1.0" encoding="utf-8"?>
<!-- Generator: Adobe Illustrator 24.0.0, SVG Export Plug-In . SVG Version: 6.00 Build 0)  -->
<svg version="1.1" id="Layer_1" xmlns="http://www.w3.org/2000/svg" xmlns:xlink="http://www.w3.org/1999/xlink" x="0px" y="0px"
	 viewBox="0 0 24 24" style="enable-background:new 0 0 24 24;" xml:space="preserve">
<style type="text/css">
	.st0{clip-path:url(#SVGID_2_);fill:none;stroke:#505050;stroke-width:1.5;}
	.st1{clip-path:url(#SVGID_2_);fill:#4F4F4F;}
</style>
<g>
	<defs>
		<rect id="SVGID_1_" x="0" y="0" width="24" height="24"/>
	</defs>
	<clipPath id="SVGID_2_">
		<use xlink:href="#SVGID_1_"  style="overflow:visible;"/>
	</clipPath>
	<path class="st0" d="M12,23.25c6.2,0,11.25-5.05,11.25-11.25C23.25,5.8,18.2,0.75,12,0.75S0.75,5.8,0.75,12
		C0.75,18.2,5.8,23.25,12,23.25z"/>
	<path class="st1" d="M12.34,12.4h-2.11V8.51h2.11c1.58,0,2.38,0.72,2.38,1.95C14.73,11.68,13.93,12.4,12.34,12.4 M12.49,6.4H7.64
		v11.2h2.59v-3.09h2.26c2.99,0,4.86-1.55,4.86-4.05C17.35,7.95,15.48,6.4,12.49,6.4"/>
</g>
</svg>
