<?xml version="1.0" encoding="utf-8"?>
<!-- Generator: Adobe Illustrator 24.0.0, SVG Export Plug-In . SVG Version: 6.00 Build 0)  -->
<svg version="1.1" id="Layer_1" xmlns="http://www.w3.org/2000/svg" xmlns:xlink="http://www.w3.org/1999/x" x="0px" y="0px"
	 viewBox="0 0 24 24" style="enable-background:new 0 0 24 24;" xml:space="preserve">
<style type="text/css">
	.st0{clip-path:url(#SVGID_2_);fill:none;stroke:#505050;stroke-width:1.5;}
	.st1{clip-path:url(#SVGID_2_);fill:#4F4F4F;}
</style>
<g>
	<defs>
		<rect id="SVGID_1_" x="0" y="0" width="24" height="24"/>
	</defs>
	<clipPath id="SVGID_2_">
		<use xlink:href="#SVGID_1_"  style="overflow:visible;"/>
	</clipPath>
	<path class="st0" d="M12,23.25c6.2,0,11.25-5.05,11.25-11.25C23.25,5.8,18.2,0.75,12,0.75S0.75,5.8,0.75,12
		C0.75,18.2,5.8,23.25,12,23.25z"/>
	<path class="st1" d="M14.37,15.1c-0.66,0.35-1.31,0.48-2.02,0.48c-2.14,0-3.63-1.49-3.63-3.58c0-2.13,1.49-3.58,3.66-3.58
		c1.14,0,2.08,0.4,2.9,1.26l1.66-1.54c-1.09-1.26-2.72-1.94-4.69-1.94C8.69,6.21,6.1,8.62,6.1,12s2.59,5.79,6.11,5.79
		c1.6,0,3.3-0.5,4.53-1.42v-4.54h-2.37V15.1z"/>
</g>
</svg>
