<svg xmlns="http://www.w3.org/2000/svg" viewBox="0 0 96 96"><defs><style>.cls-1{fill:#505050;}.cls-2{fill:none;}</style></defs><g id="Layer_57" data-name="Layer 57"><path class="cls-1" d="M57.5,37.9,38.3,57.2a13.5,13.5,0,0,0,10.1,4.5,13.6,13.6,0,0,0,9.1-23.8"/><rect class="cls-2" x="0.5" y="0.1" width="95.9" height="95.87"/><rect class="cls-1" x="5.6" y="43.4" width="85.6" height="9.32" transform="translate(-19.8 48.3) rotate(-45)"/><path class="cls-1" d="M25.1,48.1A23.3,23.3,0,0,1,48.4,24.8a22.9,22.9,0,0,1,7.3,1.3l4.9-4.9A36.1,36.1,0,0,0,48.4,19C23,19,2.4,48.1,2.4,48.1a94.5,94.5,0,0,0,15.2,16l8.8-8.8a21.8,21.8,0,0,1-1.3-7.2"/><path class="cls-1" d="M66.3,23.6l-5.2,5.2A22.9,22.9,0,0,1,71.6,48.1,23.3,23.3,0,0,1,48.4,71.4,23,23,0,0,1,29.1,60.8l-6.8,6.8c7.4,5.3,16.4,9.6,26.1,9.6,25.4,0,46-29.1,46-29.1S82.8,31.8,66.3,23.6"/></g></svg>