<svg xmlns="http://www.w3.org/2000/svg" width="33.5" height="33.5" viewBox="0 0 33.5 33.5">
  <g id="Start_Add_Tech" data-name="Start Add Tech" transform="translate(0.75 0.75)">
    <path id="_31x31px" data-name="31x31px" d="M16,0A16,16,0,1,1,0,16,16,16,0,0,1,16,0Z" fill="#fff" stroke="#94d500" stroke-width="1.5"/>
    <g id="Group_12982" data-name="Group 12982" transform="translate(-3.185 -5.735)">
      <path id="Path_8745" data-name="Path 8745" d="M19.9,14.106H16.061V10.264a1.223,1.223,0,0,0-1.222-1.222H12.524A1.223,1.223,0,0,0,11.3,10.264v3.842H7.459a1.223,1.223,0,0,0-1.223,1.222v2.314a1.223,1.223,0,0,0,1.223,1.222H11.3v3.842a1.223,1.223,0,0,0,1.222,1.222h2.314a1.223,1.223,0,0,0,1.222-1.222V18.866H19.9a1.223,1.223,0,0,0,1.222-1.222V15.329A1.223,1.223,0,0,0,19.9,14.106" transform="translate(5.505 5.295)" fill="#94d500"/>
    </g>
  </g>
</svg>
