<svg id="Capa_1" enable-background="new 0 0 512 512" height="512" viewBox="0 0 512 512" width="512" xmlns="http://www.w3.org/2000/svg"><g><g><path d="m175.848 272.609v53.031l47.919-33.932z" fill="#d16161"/><path d="m303.023 312.748 109.772 140.703c9.223 11.853 21.942 15.555 34.342 15.555h6.343l-90.305-168.149z" fill="#d16161"/><path d="m382.16 286.097c44.219 78.143 119.587 211.333 119.587 211.333 1.787 3.158-.494 7.07-4.123 7.07-12.349 0-24.763-6.245-33.216-19.02l-111.24-167.688z" fill="#d97b7b"/><path d="m106.481 7.5c48.456 0 99.405 34.46 116.734 102.5 91.583 64.8 107.822 85.753 131.508 127.61 5.17 9.137 15.089 26.665 27.438 48.487l-245.29-33.72c-22.316-28.332-26.641-77.04-26.641-130.714 0 0-54.467-73.192-65.493-84.163-10.922-10.867-1.353-29.983 12.247-29.983 14.601 0 41.022-.017 49.497-.017z" fill="#d97b7b"/><path d="m156.87 232.376c-27.541-27.541-39.286-60.047-39.286-113.721 0-4.874-.018-12.674-.018-12.674s-57.803-57.511-68.83-68.481c-10.921-10.867-5.347-29.631 8.248-29.983-16.752.207-30.269 13.842-30.269 30.643l65.58 106.601c0 42.026 17.034 80.074 44.575 107.615l62.624 8.609c-17.377-8.164-31.683-17.668-42.624-28.609z" fill="#d16161"/><path d="m224.342 281.044c38.655-13.952 62.34-53.432 62.34-80.233-29.826-21.079-50.543-34.667-77.153-34.667 0 0-23.761 0-36.94 0-18.542 0-34.741 9.997-43.527 24.89 6.359 15.733 15.503 39.038 27.809 51.343 15.781 15.781 38.558 28.578 67.471 38.667z" fill="#e7afaf"/><path d="m156.87 232.376c-12.306-12.305-21.449-25.61-27.809-41.343-4.434 7.514-6.986 16.269-6.986 25.624 0 13.949 5.654 26.578 14.795 35.719 10.166 10.166 23.237 19.092 38.979 26.856 17.915 0 48.493 6.864 48.493-8.188-28.913-10.089-51.69-22.886-67.472-38.668z" fill="#d97b7b"/><path d="m224.342 271.044c23.477 8.192 51.004 24.597 82.121 29.364 22.449-12.683 35.703-42.278 35.703-60.387l-55.484-39.211c0 26.802-23.685 56.282-62.34 70.234z" fill="#f8e883"/><path d="m224.342 271.044c-14.271 5.15-30.578 8.188-48.493 8.188 20.785 10.251 46.235 18.471 75.82 24.83 21.465-.002 54.794 0 54.794-13.654-31.117-4.767-58.645-11.172-82.121-19.364z" fill="#eec06b"/><path d="m306.463 290.408c39.806 15.375 76.625 8.826 121.42 10.189l-85.717-60.576c0 18.109-13.254 37.705-35.703 50.387z" fill="#80b6fc"/><path d="m437.682 307.522-9.799-6.925c-44.795-1.364-85.5-4.686-121.42-10.189-14.698 8.304-33.329 13.652-54.794 13.654 49.681 10.679 111.023 16.112 181.564 17.096 7.375.103 10.472-9.378 4.449-13.636z" fill="#5a86cc"/><path d="m69.818 81.264c-12.549 0-21.218 4.667-25.941 11.209 0 0-1.737 11.869 2.164 17.048 22.875 30.366 51.723 17.76 52.127 17.752.994-19.489-8.556-46.009-28.35-46.009z" fill="#8c818f"/><path d="m48.58 101.588c-1.463-2.164-3.143-5.282-4.703-9.115-5.601 7.758-5.646 18.156.042 26.573 10.486 15.515 28.239 25.715 48.376 25.715 3.539-3.499 5.489-9.972 5.873-17.489-.404.008-.806.031-1.212.031-20.137 0-37.889-10.2-48.376-25.715z" fill="#655e67"/><path d="m150.318 92.55c.21-2.017.322-4.063.322-6.135 0-32.254-26.617-48.915-49.058-48.915-17.543 0-31.765 14.221-31.765 31.764v12c12.148 12.148 19.2 24.878 21.568 45.776 1.833.173 3.69 10.263 5.569 10.263 23.826 0 44.301-24.286 53.364-44.753z" fill="#fefae3"/><path d="m96.956 127.303c-1.879 0-3.736-.089-5.569-.263.604 5.335.908 11.193.908 17.721 30.151 0 54.956-22.872 58.023-52.211-9.063 20.467-29.538 34.753-53.362 34.753z" fill="#faf0b0"/><path d="m69.818 81.264c-15.249-15.25-43.103-43.104-43.103-43.104-9.438 13.173-22.801 66.507 14.362 90.118 3.535-23.741 13.471-36.133 28.741-47.014z" fill="#fefae3"/><path d="m39.628 150.168c0-8.254.495-15.483 1.449-21.89-28.708-35.13-21.506-77.56-14.362-90.118-10.708 13.625-17.095 30.807-17.095 49.481 0 25.287 11.712 47.839 30.008 62.527z" fill="#faf0b0"/></g><g><path d="m449.455 476.505c-20.327 0-33.053-6.207-42.579-18.449l-107.888-138.287c-18.88-2.524-36.366-5.571-52.399-9.135-9.419-2.094-18.385-4.378-26.896-6.852l-23.786 16.844c9.064 4.238 15.36 13.445 15.36 24.095 0 7.101-2.765 13.775-7.785 18.795-2.928 2.93-7.677 2.928-10.606-.001s-2.929-7.678.001-10.606c2.187-2.187 3.391-5.094 3.391-8.188 0-6.385-5.194-11.58-11.579-11.58h-30c-6.385 0-11.58 5.195-11.58 11.58 0 3.094 1.204 6.001 3.391 8.188 2.93 2.929 2.93 7.678.001 10.606-2.93 2.93-7.677 2.93-10.606.001-5.021-5.02-7.785-11.694-7.785-18.795 0-14.656 11.924-26.58 26.58-26.58h13.658v-34.354c-14.833-7.73-27.117-16.443-36.78-26.106-.007-.007-.014-.014-.021-.021-28.471-28.481-44.862-65.823-46.598-105.807-13.935-1.558-26.923-7.513-37.159-16.903-.437 4.592-.657 9.636-.657 15.215 0 1.837-.674 3.61-1.895 4.983-2.653 2.987-7.187 3.371-10.305.87-20.853-16.742-32.813-41.664-32.813-68.377 0-19.003 5.934-36.976 17.187-52.136 1.367-19.804 17.916-35.498 38.061-35.498 0 0 31.44-.007 49.112-.007 25.564 0 51.306 9.088 72.481 25.589 3.267 2.546 3.852 7.259 1.306 10.526-2.546 3.268-7.259 3.852-10.526 1.306-18.553-14.459-41.02-22.421-63.26-22.421-30.451 0-49.112.007-49.112.007-11.777 0-21.528 8.838-22.97 20.23l28.332 28.332c2.765-18.962 19.134-33.569 38.852-33.569 27.802 0 56.559 21.102 56.559 56.415 0 33.715-25.469 61.593-58.179 65.403.97 20.331 6.124 39.898 15.05 57.701 3.529-28.633 28.005-50.875 57.576-50.875h36.939c4.143 0 7.5 3.358 7.5 7.5s-3.357 7.5-7.5 7.5h-36.939c-23.718 0-43.014 19.296-43.014 43.014 0 11.489 4.475 22.291 12.599 30.416 9.147 9.147 20.942 17.368 35.345 24.65 60.003-.675 101.663-37.675 101.663-70.913 0-2.803 1.563-5.372 4.052-6.66 2.486-1.289 5.487-1.082 7.776.535l51.101 36.113c-20.877-34.991-41.552-56.886-123.228-114.676-1.455-1.03-2.496-2.544-2.936-4.271-5.659-22.216-15.197-41.441-28.349-57.142-2.66-3.175-2.242-7.905.933-10.565s7.906-2.242 10.565.934c14.069 16.794 24.383 37.096 30.68 60.379 90.096 63.896 106.901 85.035 131.474 128.459 1.133 2.002 6.455 13.722 8.46 17.264 1.729 3.055 1.107 6.901-1.496 9.256-2.604 2.355-6.493 2.589-9.359.563l-11.045-7.806c-3.663 13.066-12.622 25.71-25.789 35.997-7.966 6.223-17.069 11.241-26.944 14.934 36.612 6.23 89.854 8.86 138.261 9.535h.012c.001-.004.002-.008.004-.012 0 0 0 0-.001 0l-52.601-37.174c-3.383-2.391-4.188-7.071-1.797-10.454 2.39-3.382 7.071-4.187 10.453-1.796l52.602 37.174c5.4 3.816 7.653 10.605 5.607 16.893-2.049 6.293-7.911 10.463-14.488 10.368-6.243-.087-12.398-.209-18.474-.366l93.62 165.444c2.168 3.832 2.139 8.389-.079 12.191-2.217 3.803-6.169 6.073-10.571 6.073-15.443 0-29.854-7.848-38.55-20.993zm10.34-11.547 11.785 17.765c4.96 7.499 12.605 12.46 21.074 13.867l-95.552-168.859c-10.013-.382-19.782-.864-29.302-1.446l31.435 47.384c2.29 3.452 1.348 8.106-2.104 10.396-3.452 2.288-8.106 1.347-10.396-2.104l-37.804-56.985c-9.943-.776-19.601-1.669-28.945-2.677l98.722 126.54c5.121 6.58 11.826 10.549 20.364 12.018l-37.17-56.03c-2.29-3.452-1.348-8.106 2.104-10.396 3.451-2.29 8.105-1.348 10.396 2.104l45.269 68.239c.042.059.084.122.124.184zm-276.448-174.063v20.245l18.457-13.069c-6.469-2.267-12.62-4.658-18.457-7.176zm22.862-7.097c13.78 4.842 29.167 9.103 46.146 12.779.154-.01.312-.015.469-.015 22.824 0 44.119-6.816 59.963-19.193 12.372-9.665 20.241-21.987 21.651-33.626l-41.863-29.585c-3.955 16.516-15.066 32.601-31.804 45.556-15.252 11.805-34.015 20.016-54.562 24.084zm-128.891-205.577c14.866 15.751 21.289 32.413 22.324 58.511 24.567-3.572 43.499-24.775 43.499-50.317.001-28.566-24.301-41.415-41.558-41.415-13.38 0-24.265 10.885-24.265 24.264zm-25.961 38.359c8.052 10.912 20.028 18.085 33.261 20.101-1.035-22.573-6.585-34.864-15.651-45.351-8.04 6.584-13.973 14.057-17.61 25.25zm-23.62-66.791c-6.969 11.352-10.617 24.284-10.617 37.852 0 16.694 5.637 32.545 15.819 45.283 2.673-26.312 11.839-40.865 25.544-52.388zm79.409 40.671c-4.143 0-7.5-3.358-7.5-7.5v-15.48c0-4.142 3.357-7.5 7.5-7.5s7.5 3.358 7.5 7.5v15.48c0 4.142-3.358 7.5-7.5 7.5z"/></g></g></svg>