<svg xmlns="http://www.w3.org/2000/svg" width="28.688" height="34" viewBox="0 0 28.688 34">
  <g id="Group_8118" data-name="Group 8118" transform="translate(-58.853 -256.015)">
    <g id="call" transform="translate(58.852 256.015)">
      <path id="Path_7218" data-name="Path 7218" d="M130.3,82.351a1.048,1.048,0,0,0-1.482,0l-1.961,1.961a9.468,9.468,0,0,1-3.7-3.7l1.961-1.961a1.048,1.048,0,0,0,0-1.482l-4.076-4.076a1.048,1.048,0,0,0-1.482,0l-2.223,2.223c-1.1,1.1-1.237,2.937-.38,5.166,2.47,6.423,11.729,13.125,15.2,9.654l2.223-2.223a1.048,1.048,0,0,0,0-1.482Zm.37,6.3c-.46.46-1.584.424-2.932-.094a17.688,17.688,0,0,1-8.83-8.83c-.519-1.348-.555-2.472-.094-2.932l1.482-1.482,2.594,2.594-1.482,1.482c-.4.4-.705,1.155.06,2.534,1.124,2.022,4.962,5.781,6.609,4.135l1.482-1.482,2.594,2.593Z" transform="translate(-111.39 -68.015)" fill="#00bed6"/>
    </g>
    <path id="Path_7219" data-name="Path 7219" d="M62.84,0h-17A5.85,5.85,0,0,0,40,5.844v17a5.85,5.85,0,0,0,5.844,5.844h4.711l2.878,4.8a1.063,1.063,0,0,0,1.822,0l2.878-4.8H62.84a5.85,5.85,0,0,0,5.844-5.844v-17A5.85,5.85,0,0,0,62.84,0Zm3.719,22.844a3.723,3.723,0,0,1-3.719,3.719H57.528a1.063,1.063,0,0,0-.911.516L54.34,30.873l-2.276-3.794a1.063,1.063,0,0,0-.911-.516H45.84a3.723,3.723,0,0,1-3.719-3.719v-17A3.723,3.723,0,0,1,45.84,2.125h17a3.723,3.723,0,0,1,3.719,3.719Z" transform="translate(18.857 256.015)" fill="#505050"/>
  </g>
</svg>
