<?xml version="1.0" encoding="windows-1252"?>
<!-- Generator: Adobe Illustrator 16.0.0, SVG Export Plug-In . SVG Version: 6.00 Build 0)  -->
<!DOCTYPE svg PUBLIC "-//W3C//DTD SVG 1.1//EN" "http://www.w3.org/Graphics/SVG/1.1/DTD/svg11.dtd">
<svg version="1.1" id="Layer_1" xmlns="http://www.w3.org/2000/svg" xmlns:xlink="http://www.w3.org/1999/xlink" x="0px" y="0px"
	 viewBox="0 0 41 41" style="enable-background:new 0 0 41 41;" xml:space="preserve">
<style type="text/css">
	.st0{fill:none;stroke:#505050;stroke-width:1.8;}
	.st1{fill:none;stroke:#505050;stroke-width:1.811;stroke-linecap:round;stroke-linejoin:round;stroke-miterlimit:10;}
	.st2{fill:#505050;}
</style>
<circle class="st0" cx="20.5" cy="20.5" r="19.1"/>
<polygon class="st1" points="29.2,14.5 28,8.9 18.4,8.9 17.2,14.5 "/>
<rect x="21" y="10.8" class="st2" width="4.5" height="2.1"/>
<path class="st1" d="M30.8,32.1H10.2c-0.7,0-1.3-0.6-1.3-1.3v-15c0-0.7,0.6-1.3,1.3-1.3h20.6c0.7,0,1.3,0.6,1.3,1.3v15
	C32.1,31.5,31.5,32.1,30.8,32.1z"/>
<path class="st2" d="M20.5,16.3c-3.9,0-7,3.1-7,7c0,3.9,3.1,7,7,7s7-3.1,7-7C27.5,19.4,24.3,16.3,20.5,16.3 M20.5,18
	c3,0,5.4,2.4,5.4,5.4c0,3-2.4,5.4-5.4,5.4s-5.4-2.4-5.4-5.4C15.1,20.4,17.5,18,20.5,18"/>
<path class="st2" d="M20.5,19.7c2,0,3.6,1.6,3.6,3.6s-1.6,3.6-3.6,3.6s-3.6-1.6-3.6-3.6S18.4,19.7,20.5,19.7"/>
</svg>
