<?xml version="1.0" encoding="UTF-8"?><svg xmlns="http://www.w3.org/2000/svg" viewBox="0 0 24 24"><defs><style>.q{fill:#fff;}.r{fill:#505050;}</style></defs><g id="a"><g id="b"/></g><g id="c"/><g id="d"/><g id="e"/><g id="f"/><g id="g"/><g id="h"/><g id="i"><g id="j" transform="translate(686.159 550)"><g transform="matrix(1, 0, 0, 1, -9, -9)"><path id="k" class="q" d="M11.94,11.01h0c5.05,0,9.15,4.1,9.15,9.15h0v2.79H2.79v-2.79c0-5.05,4.1-9.15,9.15-9.15h0Z"/></g><g transform="matrix(1, 0, 0, 1, -9, -9)"><circle id="l" class="q" cx="11.94" cy="6.08" r="4.94"/></g></g><g><path class="r" d="M15.63,10.72c1.37-1.09,2.25-2.76,2.25-4.64C17.88,2.8,15.21,.14,11.94,.14S6,2.8,6,6.08c0,1.88,.88,3.55,2.25,4.64-3.77,1.48-6.46,5.15-6.46,9.44v2.79c0,.55,.45,1,1,1H21.09c.55,0,1-.45,1-1v-2.79c0-4.29-2.68-7.96-6.46-9.44ZM8,6.08c0-2.17,1.77-3.94,3.94-3.94s3.94,1.77,3.94,3.94-1.76,3.93-3.93,3.94h-.01c-2.17,0-3.93-1.77-3.93-3.94Zm12.09,15.88H3.79v-1.79c0-4.49,3.65-8.14,8.14-8.15h.02c4.49,0,8.14,3.66,8.14,8.15v1.79Z"/><path class="r" d="M15.67,21.23c.44-.45,.44-1.18,0-1.63l-2.1-2.1,2.13-2.13c.2-.24,.29-.54,.26-.85s-.18-.58-.42-.78c-.42-.35-1.04-.35-1.5,.03l-2.1,2.1-2.13-2.13c-.24-.2-.54-.29-.84-.26-.31,.03-.58,.17-.78,.41-.36,.43-.36,1.05,.03,1.51l2.1,2.1-2.13,2.13c-.2,.24-.29,.54-.26,.84,.03,.31,.17,.58,.41,.78,.43,.36,1.05,.36,1.51-.03l2.1-2.1,2.1,2.1c.22,.22,.52,.33,.81,.33s.59-.11,.81-.33"/></g></g><g id="m"/><g id="n"/><g id="o"/><g id="p"/></svg>