<svg xmlns="http://www.w3.org/2000/svg" xmlns:xlink="http://www.w3.org/1999/xlink" width="24.033" height="24.033" viewBox="0 0 24.033 24.033">
  <defs>
    <clipPath id="clip-path">
      <rect id="Rectangle_538" data-name="Rectangle 538" width="24.033" height="24.033" transform="translate(-0.017 -0.017)" fill="#505050"/>
    </clipPath>
  </defs>
  <g id="Group_8791" data-name="Group 8791" transform="translate(0.016 0.017)">
    <g id="Group_8788" data-name="Group 8788">
      <g id="Group_8787" data-name="Group 8787" clip-path="url(#clip-path)">
        <path id="Path_7553" data-name="Path 7553" d="M6.1,17.149l2.707,2.959a1.129,1.129,0,0,0,.832.367,1.079,1.079,0,0,0,.15-.009,1.139,1.139,0,0,0,.855-.607l5.009-9.733a1.154,1.154,0,0,0-.483-1.546,1.129,1.129,0,0,0-1.529.488L9.38,17.355,7.768,15.592a1.124,1.124,0,0,0-1.6-.063,1.154,1.154,0,0,0-.062,1.62" fill="#505050"/>
        <path id="Path_7554" data-name="Path 7554" d="M21.976,3.286H19.719V4.9h2.257a.439.439,0,0,1,.436.441V21.423a.97.97,0,0,1-.966.974H2.554a.971.971,0,0,1-.967-.974V5.345A.439.439,0,0,1,2.023,4.9H4.016V3.286H2.023A2.051,2.051,0,0,0-.017,5.345V21.423a2.585,2.585,0,0,0,2.571,2.593H21.446a2.584,2.584,0,0,0,2.57-2.593V5.345a2.051,2.051,0,0,0-2.04-2.059" fill="#505050"/>
      </g>
    </g>
    <rect id="Rectangle_539" data-name="Rectangle 539" width="9.287" height="1.618" transform="translate(7.224 3.287)" fill="#505050"/>
    <g id="Group_8790" data-name="Group 8790">
      <g id="Group_8789" data-name="Group 8789" clip-path="url(#clip-path)">
        <path id="Path_7555" data-name="Path 7555" d="M5.62,6.139A.8.8,0,0,0,6.187,5.9a.811.811,0,0,0,.235-.572V.793A.809.809,0,0,0,6.187.221.8.8,0,0,0,4.818.793V5.33a.805.805,0,0,0,.8.809" fill="#505050"/>
        <path id="Path_7556" data-name="Path 7556" d="M18.115,6.139a.805.805,0,0,0,.8-.809V.793a.8.8,0,1,0-1.6,0V5.33a.805.805,0,0,0,.8.809" fill="#505050"/>
        <path id="Path_7557" data-name="Path 7557" d="M6.1,17.151l2.706,2.958a1.129,1.129,0,0,0,.832.367,1.08,1.08,0,0,0,.15-.01,1.137,1.137,0,0,0,.855-.606l5.007-9.729a1.153,1.153,0,0,0-.483-1.546,1.127,1.127,0,0,0-1.528.488L9.377,17.357,7.766,15.594a1.125,1.125,0,0,0-1.6-.063,1.156,1.156,0,0,0-.062,1.62" fill="#505050"/>
      </g>
    </g>
  </g>
</svg>
