<svg xmlns="http://www.w3.org/2000/svg" width="30" height="29.998" viewBox="0 0 30 29.998">
  <g id="Check" transform="translate(0.002)">
    <path id="Path_9724" data-name="Path 9724" d="M15,0h0Z" transform="translate(-0.001)" fill="#94d500"/>
    <path id="Path_9725" data-name="Path 9725" d="M28,15a13,13,0,1,1-6.14-11L23.1,2.4A14.909,14.909,0,0,0,15,0h0A15,15,0,1,0,28.178,7.84L26.848,9.7A13,13,0,0,1,28,15Z" transform="translate(0)" fill="#94d500"/>
    <path id="Path_9726" data-name="Path 9726" d="M29,.23A1.82,1.82,0,0,0,26.5,1L15.16,15.579l-2.61-2.81a1.83,1.83,0,1,0-2.69,2.48L14.23,20a1.83,1.83,0,0,0,1.35.59h.24a1.82,1.82,0,0,0,1.38-1L29.739,2.7A1.83,1.83,0,0,0,29,.23Z" transform="translate(-0.001 0)" fill="#94d500"/>
  </g>
</svg>
