<svg xmlns="http://www.w3.org/2000/svg" width="39.03" height="34" viewBox="0 0 39.03 34">
  <g id="Group_7600" data-name="Group 7600" transform="translate(-5717.79 702)">
    <path id="Path_7151" data-name="Path 7151" d="M221.8,374.879a6.633,6.633,0,1,0-6.633-6.633v0A6.64,6.64,0,0,0,221.8,374.879Zm0-10.977a4.345,4.345,0,1,1-4.345,4.345h0A4.35,4.35,0,0,1,221.8,363.9Z" transform="translate(5515.504 -1063.614)" fill="#00bed6"/>
    <path id="Path_7152" data-name="Path 7152" d="M237.072,375.453a4.189,4.189,0,1,0-4.189-4.189A4.189,4.189,0,0,0,237.072,375.453Zm0-6.1a1.906,1.906,0,1,1-1.906,1.906,1.906,1.906,0,0,1,1.906-1.906Z" transform="translate(5513.646 -1064.187)" fill="#505050"/>
    <path id="Path_7153" data-name="Path 7153" d="M234.63,379.33h-1.769a5.187,5.187,0,0,0-4.7,3,9.206,9.206,0,0,0-6.8-3h-2.132a9.206,9.206,0,0,0-6.8,3,5.186,5.186,0,0,0-4.7-3h-1.77a5.168,5.168,0,0,0-5.175,5.145V392.8a2.241,2.241,0,0,0,2.242,2.234h6.992a2.672,2.672,0,0,0,2.659,2.439h15.243a2.672,2.672,0,0,0,2.659-2.439h6.912a2.32,2.32,0,0,0,2.322-2.313v-8.246A5.168,5.168,0,0,0,234.63,379.33Zm-31.567,5.145a2.876,2.876,0,0,1,2.892-2.858h1.766a2.877,2.877,0,0,1,2.892,2.858v.782c-.769,2-.61,3.2-.61,7.489h-6.94Zm25.23,10.328a.383.383,0,0,1-.383.382H212.67a.383.383,0,0,1-.383-.382h0v-6.248a6.947,6.947,0,0,1,6.939-6.939h2.131a6.947,6.947,0,0,1,6.939,6.939Zm9.224-2.083c0,.04.426.026-6.937.026,0-4.319.158-5.49-.61-7.489v-.782a2.876,2.876,0,0,1,2.891-2.858h1.769a2.877,2.877,0,0,1,2.892,2.858Z" transform="translate(5517.014 -1065.473)" fill="#505050"/>
    <path id="Path_7156" data-name="Path 7156" d="M231.049,385.257a9.487,9.487,0,0,0-1.811-2.928,9.2,9.2,0,0,0-6.8-3H220.3a9.2,9.2,0,0,0-6.8,3,10.456,10.456,0,0,0-1.81,2.928c-.769,2-.61,3.2-.61,7.489l.008,2.287a2.672,2.672,0,0,0,2.659,2.439h15.243a2.672,2.672,0,0,0,2.659-2.439l.008-2.287C231.66,388.428,231.817,387.257,231.049,385.257Zm-1.677,9.546a.383.383,0,0,1-.383.382H213.75a.383.383,0,0,1-.383-.382v-6.248a6.947,6.947,0,0,1,6.939-6.939h2.131a6.947,6.947,0,0,1,6.939,6.939Z" transform="translate(5515.934 -1065.473)" fill="#00bed6"/>
    <path id="Path_7154" data-name="Path 7154" d="M207.093,375.453a4.189,4.189,0,1,0-4.188-4.189h0A4.2,4.2,0,0,0,207.093,375.453Zm0-6.1a1.906,1.906,0,1,1-1.906,1.906,1.906,1.906,0,0,1,1.906-1.906Z" transform="translate(5516.791 -1064.187)" fill="#505050"/>
  </g>
</svg>
