<svg id="Clock_In_Out" data-name="Clock In/ Out" xmlns="http://www.w3.org/2000/svg" width="35.143" height="34" viewBox="0 0 35.143 34">
  <path id="Path_7046" data-name="Path 7046" d="M27.449,27.961A14.937,14.937,0,1,1,6.325,6.837a14.865,14.865,0,0,1,21.124,0A14.759,14.759,0,0,1,31.254,13.2h2.1A17,17,0,0,0,16.922.4h-.071A17,17,0,1,0,31.077,26.752H28.552a12.056,12.056,0,0,1-1.1,1.209Z" transform="translate(0.119 -0.4)" fill="#505050"/>
  <path id="Path_7047" data-name="Path 7047" d="M45.411,29.372a.32.32,0,0,0,.533-.213V26.384a.32.32,0,0,0-.32-.285H42.851a.32.32,0,0,0-.213.533l.569.533-5.014,5.157-2.454-2.383.569-.533a.32.32,0,0,0-.249-.533l-2.774.071a.32.32,0,0,0-.285.32L33.071,32a.32.32,0,0,0,.533.213l.533-.569,3.272,3.165a1.174,1.174,0,0,0,.818.32,1.067,1.067,0,0,0,.818-.356l5.832-5.939Z" transform="translate(-21.222 -16.96)" fill="#505050"/>
  <path id="Path_7048" data-name="Path 7048" d="M46.545,11.323a1.423,1.423,0,1,0-1.423,1.423A1.423,1.423,0,0,0,46.545,11.323Z" transform="translate(-28.117 -6.522)" fill="#505050"/>
  <path id="Path_7049" data-name="Path 7049" d="M43.7,79.923A1.423,1.423,0,1,0,45.123,78.5,1.423,1.423,0,0,0,43.7,79.923Z" transform="translate(-28.117 -50.725)" fill="#505050"/>
  <path id="Path_7050" data-name="Path 7050" d="M9.5,45.623A1.4,1.4,0,1,0,10.887,44.2,1.423,1.423,0,0,0,9.5,45.623Z" transform="translate(-6.079 -28.623)" fill="#505050"/>
  <path id="Path_7051" data-name="Path 7051" d="M71.572,42.345,67.945,39.5v1.707H56.6v2.276H67.945V45.19Z" transform="translate(-36.429 -25.595)" fill="#00bed6"/>
  <path id="Path_7052" data-name="Path 7052" d="M60.227,57.171V55.5L56.6,58.309l3.627,2.845V59.447H71.572V57.171Z" transform="translate(-36.429 -35.905)" fill="#00bed6"/>
</svg>
