<svg id="Clock_In_Out" data-name="Clock In/ Out" xmlns="http://www.w3.org/2000/svg" width="30.481" height="29.49" viewBox="0 0 30.481 29.49">
  <path id="Path_7046" data-name="Path 7046" d="M23.792,24.305A12.956,12.956,0,1,1,5.47,5.983a12.894,12.894,0,0,1,18.322,0,12.8,12.8,0,0,1,3.3,5.521h1.82A14.744,14.744,0,0,0,14.662.4H14.6A14.744,14.744,0,1,0,26.939,23.257h-2.19a10.457,10.457,0,0,1-.956,1.049Z" transform="translate(0.119 -0.4)" fill="#fff"/>
  <path id="Path_7047" data-name="Path 7047" d="M43.765,28.938a.278.278,0,0,0,.463-.185V26.347a.278.278,0,0,0-.278-.247H41.544a.278.278,0,0,0-.185.463l.494.463L37.5,31.5l-2.128-2.067.494-.463a.278.278,0,0,0-.216-.463l-2.406.062a.278.278,0,0,0-.247.278l.062,2.375a.278.278,0,0,0,.463.185l.463-.494,2.838,2.745a1.018,1.018,0,0,0,.709.278.925.925,0,0,0,.709-.308L43.3,28.475Z" transform="translate(-22.784 -18.173)" fill="#fff"/>
  <path id="Path_7048" data-name="Path 7048" d="M46.168,11.134a1.234,1.234,0,1,0-1.234,1.234A1.234,1.234,0,0,0,46.168,11.134Z" transform="translate(-30.184 -6.97)" fill="#fff"/>
  <path id="Path_7049" data-name="Path 7049" d="M43.7,79.734A1.234,1.234,0,1,0,44.934,78.5,1.234,1.234,0,0,0,43.7,79.734Z" transform="translate(-30.184 -54.41)" fill="#fff"/>
  <path id="Path_7050" data-name="Path 7050" d="M9.5,45.434A1.219,1.219,0,1,0,10.7,44.2,1.234,1.234,0,0,0,9.5,45.434Z" transform="translate(-6.533 -30.69)" fill="#fff"/>
  <path id="Path_7051" data-name="Path 7051" d="M69.586,41.968,66.44,39.5v1.481H56.6v1.974h9.84v1.481Z" transform="translate(-39.105 -27.439)" fill="#fff"/>
  <path id="Path_7052" data-name="Path 7052" d="M59.746,56.95V55.5L56.6,57.937,59.746,60.4V58.924h9.84V56.95Z" transform="translate(-39.105 -38.504)" fill="#fff"/>
</svg>
