<svg xmlns="http://www.w3.org/2000/svg" width="21.93" height="21.93" viewBox="0 0 21.93 21.93">
  <g id="Group_7555" data-name="Group 7555" transform="translate(-1897 -84.053)">
    <g id="Group_26" data-name="Group 26" transform="translate(1907.919 87.256)">
      <path id="Path_21" data-name="Path 21" d="M.661,0-6.333,7.957" transform="translate(6.333)" fill="none" stroke="#fff" stroke-linecap="round" stroke-width="1.5"/>
    </g>
    <g id="Group_27" data-name="Group 27" transform="translate(1903.547 91.061)">
      <path id="Path_22" data-name="Path 22" d="M0,0,3.773,4.422" fill="none" stroke="#fff" stroke-linecap="round" stroke-width="1.5"/>
    </g>
    <g id="Group_20" data-name="Group 20" transform="translate(1897.75 84.803)">
      <path id="Path_15" data-name="Path 15" d="M.287,0A3.04,3.04,0,0,0-2.75,3.037V17.393A3.04,3.04,0,0,0,.287,20.43H14.643a3.04,3.04,0,0,0,3.037-3.037V3.037A3.04,3.04,0,0,0,14.643,0Z" transform="translate(2.75)" fill="none" stroke="#fff" stroke-width="1.5"/>
    </g>
    <g id="Group_21" data-name="Group 21" transform="translate(1906.896 101.312)">
      <path id="Path_16" data-name="Path 16" d="M.1.2A1.068,1.068,0,0,0,1.169-.867,1.068,1.068,0,0,0,.1-1.935,1.069,1.069,0,0,0-.968-.867,1.069,1.069,0,0,0,.1.2" transform="translate(0.968 1.935)" fill="#fff"/>
    </g>
    <g id="Group_22" data-name="Group 22" transform="translate(1906.896 86.588)">
      <path id="Path_17" data-name="Path 17" d="M.1.2A1.068,1.068,0,0,0,1.169-.866,1.068,1.068,0,0,0,.1-1.935,1.069,1.069,0,0,0-.968-.866,1.069,1.069,0,0,0,.1.2" transform="translate(0.968 1.935)" fill="#fff"/>
    </g>
    <g id="Group_23" data-name="Group 23" transform="translate(1914.259 93.95)">
      <path id="Path_18" data-name="Path 18" d="M.2.1A1.068,1.068,0,0,0-.867-.967,1.068,1.068,0,0,0-1.935.1,1.068,1.068,0,0,0-.867,1.169,1.068,1.068,0,0,0,.2.1" transform="translate(1.935 0.967)" fill="#fff"/>
    </g>
    <g id="Group_24" data-name="Group 24" transform="translate(1899.534 93.95)">
      <path id="Path_19" data-name="Path 19" d="M.2.1A1.068,1.068,0,0,0-.866-.967,1.068,1.068,0,0,0-1.935.1,1.068,1.068,0,0,0-.866,1.169,1.068,1.068,0,0,0,.2.1" transform="translate(1.935 0.967)" fill="#fff"/>
    </g>
  </g>
</svg>
