<svg xmlns="http://www.w3.org/2000/svg" width="39.885" height="34" viewBox="0 0 39.885 34">
  <g id="Group_8359" data-name="Group 8359" transform="translate(-511.646 -302.515)">
    <path id="Path_7453" data-name="Path 7453" d="M521.7,311.034h-3.481a1.137,1.137,0,1,1,0-2.273H521.7a1.137,1.137,0,1,1,0,2.273m8.029,0h-3.446a1.137,1.137,0,1,1,0-2.273h3.447a1.137,1.137,0,1,1,0,2.273h0m8.03,0h-3.447a1.137,1.137,0,1,1,0-2.273h3.448a1.137,1.137,0,0,1,0,2.273h0" transform="translate(-0.674 -0.775)" fill="#505050"/>
    <path id="Path_7454" data-name="Path 7454" d="M521.7,333.828h-3.481a1.137,1.137,0,1,1,0-2.274H521.7a1.137,1.137,0,0,1,0,2.274" transform="translate(-0.674 -3.601)" fill="#505050"/>
    <path id="Path_7455" data-name="Path 7455" d="M530.87,333.828h-3.446a1.137,1.137,0,0,1,0-2.274h3.446a1.137,1.137,0,1,1,0,2.274" transform="translate(-1.816 -3.601)" fill="#505050"/>
    <path id="Path_7456" data-name="Path 7456" d="M532.6,324.439a11.1,11.1,0,0,1,1.2-2.487h-1.222l.391-2.772h2.7l.284-2.522h-2.7l.391-3.233h-2.558l-.391,3.233h-2.736l.391-3.233H525.8l-.391,3.233h-2.736l-.285,2.522h2.7l-.355,2.772h-2.7l-.285,2.487h2.665l-.356,3.055h2.559l.391-3.055h2.736l-.392,3.055h2.559l.391-3.055Zm-2.582-2.487h-2.736l.356-2.772h2.736Z" transform="translate(-1.252 -1.353)" fill="#505050"/>
    <path id="Path_7457" data-name="Path 7457" d="M544.971,338.295a9.512,9.512,0,1,1,6.73-2.783A9.448,9.448,0,0,1,544.971,338.295Zm0-17.067a7.555,7.555,0,1,0,5.346,2.21A7.505,7.505,0,0,0,544.97,321.228Z" transform="translate(-2.952 -2.078)" fill="#00bed6"/>
    <path id="Path_7458" data-name="Path 7458" d="M548.4,333.169a1.056,1.056,0,0,1-.755-.313l-1.783-1.779-1.784,1.78a1.067,1.067,0,1,1-1.508-1.51l1.78-1.778-1.78-1.778a1.068,1.068,0,0,1,1.508-1.511l1.784,1.781,1.783-1.781a1.068,1.068,0,0,1,1.509,1.51l-1.782,1.779,1.781,1.778a1.066,1.066,0,0,1-.754,1.822Z" transform="translate(-3.795 -2.908)" fill="#00bed6"/>
    <path id="Path_7459" data-name="Path 7459" d="M541.242,302.515h-4.974a2.276,2.276,0,0,0-1.99,1.172H520.883a2.273,2.273,0,0,0-1.989-1.172H513.92a2.274,2.274,0,0,0-2.274,2.274v29.453a2.274,2.274,0,0,0,2.274,2.273h4.974a2.271,2.271,0,0,0,1.989-1.172h13.938c-.262-.216-.528-.427-.771-.669a11.361,11.361,0,0,1-1.329-1.6H518.894v1.173H513.92V304.789h4.974v1.172h17.374v-1.172h4.974v10.689c.258-.018.516-.038.777-.038a11.436,11.436,0,0,1,1.5.109V304.789A2.274,2.274,0,0,0,541.242,302.515Z" transform="translate(0)" fill="#505050"/>
  </g>
</svg>
