<?xml version="1.0" encoding="utf-8"?>
<!-- Generator: Adobe Illustrator 24.2.3, SVG Export Plug-In . SVG Version: 6.00 Build 0)  -->
<svg version="1.1" id="Layer_1" xmlns="http://www.w3.org/2000/svg" xmlns:xlink="http://www.w3.org/1999/xlink" x="0px" y="0px"
	 viewBox="0 0 31 31" style="enable-background:new 0 0 31 31;" xml:space="preserve">
<style type="text/css">
	.st0{clip-path:url(#SVGID_2_);fill:#00BED6;}
	.st1{fill:#00BED6;}
</style>
<g>
	<defs>
		<rect id="SVGID_1_" width="31" height="31"/>
	</defs>
	<clipPath id="SVGID_2_">
		<use xlink:href="#SVGID_1_"  style="overflow:visible;"/>
	</clipPath>
	<path class="st0" d="M27.94,0.5h-3.5c-0.6,0-1.12,0.33-1.4,0.82h-9.41c-0.28-0.49-0.8-0.82-1.4-0.82h-3.5
		c-0.89,0-1.61,0.72-1.61,1.61V22.8c0,0.89,0.72,1.61,1.61,1.61h3.5c0.6,0,1.12-0.33,1.4-0.82h9.41c0.28,0.49,0.8,0.82,1.4,0.82h3.5
		c0.89,0,1.61-0.72,1.61-1.61V2.11C29.55,1.22,28.83,0.5,27.94,0.5 M27.94,2.11V22.8h-3.5v-0.82H12.23v0.82h-3.5V2.11h3.5v0.82
		h12.21V2.11H27.94z"/>
	<path class="st0" d="M13.72,5.94h-2.44c-0.44,0-0.8-0.36-0.8-0.8s0.36-0.8,0.8-0.8h2.44c0.44,0,0.8,0.36,0.8,0.8
		S14.17,5.94,13.72,5.94 M19.37,5.94h-2.44c-0.44,0-0.8-0.36-0.8-0.8s0.36-0.8,0.8-0.8h2.44c0.44,0,0.8,0.36,0.8,0.8
		S19.82,5.94,19.37,5.94 M25.03,5.94h-2.44c-0.44,0-0.8-0.36-0.8-0.8s0.36-0.8,0.8-0.8h2.44c0.44,0,0.8,0.36,0.8,0.8
		S25.47,5.94,25.03,5.94"/>
	<path class="st0" d="M13.72,20h-2.44c-0.44,0-0.8-0.36-0.8-0.8c0-0.44,0.36-0.8,0.8-0.8h2.44c0.44,0,0.8,0.36,0.8,0.8
		C14.52,19.64,14.17,20,13.72,20 M19.37,20h-2.44c-0.44,0-0.8-0.36-0.8-0.8c0-0.44,0.36-0.8,0.8-0.8h2.44c0.44,0,0.8,0.36,0.8,0.8
		C20.18,19.64,19.82,20,19.37,20 M25.03,20h-2.44c-0.44,0-0.8-0.36-0.8-0.8c0-0.44,0.36-0.8,0.8-0.8h2.44c0.44,0,0.8,0.36,0.8,0.8
		C25.83,19.64,25.47,20,25.03,20"/>
</g>
<path class="st1" d="M19.43,11.26h-1.92l-0.25,1.95h1.92L19.43,11.26z M21.23,11.26l-0.25,1.95h1.89l-0.2,1.75h-1.9l-0.27,2.16
	h-1.81l0.27-2.16h-1.92l-0.27,2.16h-1.81l0.27-2.16h-1.89l0.2-1.75h1.9l0.25-1.95h-1.89l0.2-1.76h1.91l0.28-2.27H18l-0.28,2.27h1.92
	l0.28-2.27h1.81l-0.28,2.27h1.89l-0.2,1.76H21.23z"/>
<g>
	<path class="st1" d="M25.1,25.84v0.04h-3.5v-0.82H9.39v0.82H5.9V7.73V5.18V3.57c-0.89,0-1.61,0.72-1.61,1.61v20.69
		c0,0.89,0.72,1.61,1.61,1.61h3.5c0.6,0,1.12-0.33,1.4-0.82h9.41c0.28,0.49,0.8,0.82,1.4,0.82h3.5c0.89,0,1.61-0.72,1.61-1.61v-0.04
		H25.1z"/>
	<path class="st1" d="M22.26,28.85v0.04h-3.5v-0.82H6.55v0.82h-3.5V10.75V8.2V6.59c-0.89,0-1.61,0.72-1.61,1.61v20.69
		c0,0.89,0.72,1.61,1.61,1.61h3.5c0.6,0,1.12-0.33,1.4-0.82h9.41c0.28,0.49,0.8,0.82,1.4,0.82h3.5c0.89,0,1.61-0.72,1.61-1.61v-0.04
		H22.26z"/>
</g>
</svg>
