<?xml version="1.0" encoding="utf-8"?>
<!-- Generator: Adobe Illustrator 24.1.0, SVG Export Plug-In . SVG Version: 6.00 Build 0)  -->
<svg version="1.1" id="Layer_1" xmlns="http://www.w3.org/2000/svg" xmlns:xlink="http://www.w3.org/1999/xlink" x="0px" y="0px"
	 viewBox="0 0 31 33" style="enable-background:new 0 0 31 33;" xml:space="preserve">
<style type="text/css">
	.st0{fill:#505050;}
</style>
<g>
	<path class="st0" d="M30.5,20.8L26.7,19l3.8-1.8l-8.3-4c0.1-0.2,0.1-0.3,0.2-0.5l0.9,0c0.7,0,1.3-0.6,1.3-1.4V10
		c0-0.7-0.6-1.3-1.3-1.4l-0.9,0c-0.1-0.4-0.3-0.9-0.5-1.3l0.6-0.7c0.5-0.5,0.5-1.4,0-1.9l-0.9-0.9c-0.5-0.5-1.3-0.5-1.9,0l-0.7,0.6
		c-0.4-0.2-0.8-0.4-1.2-0.5l0-0.9c0-0.7-0.6-1.3-1.4-1.3H15c-0.7,0-1.3,0.6-1.4,1.3l0,0.9c-0.4,0.1-0.9,0.3-1.2,0.5l-0.7-0.6
		c-0.5-0.5-1.4-0.5-1.9,0L8.8,4.6C8.3,5.1,8.3,6,8.8,6.5l0.6,0.7C9.2,7.6,9,8,8.9,8.5L8,8.5c-0.7,0-1.3,0.6-1.3,1.4v1.3
		c0,0.7,0.6,1.3,1.3,1.4l0.9,0C8.9,12.8,9,13,9,13.1l-8.5,4.1L4.3,19l-3.8,1.8l3.8,1.8l-3.8,1.8l15,7.1l15-7.1l-3.8-1.8L30.5,20.8z
		 M8.1,11.2V10l0.9,0c0.6,0,1.1-0.4,1.2-1c0.1-0.4,0.3-0.7,0.4-1.1c0.3-0.5,0.2-1.2-0.2-1.6L9.9,5.6l0.8-0.9l0.7,0.6
		c0.4,0.4,1.1,0.5,1.6,0.2c0.3-0.2,0.7-0.3,1.1-0.4c0.6-0.2,1-0.7,1-1.3l0-0.9h1.2l0,0.9c0,0.6,0.4,1.1,1,1.3
		c0.4,0.1,0.7,0.3,1.1,0.4c0.5,0.3,1.1,0.2,1.6-0.2l0.7-0.6l0.8,0.9l-0.6,0.7c-0.4,0.4-0.5,1.1-0.2,1.6C20.8,8.2,20.9,8.6,21,9
		c0.2,0.6,0.7,1,1.2,1l0.9,0v1.2l-0.9,0c-0.6,0-1.1,0.4-1.2,1c-0.1,0.4-0.3,0.7-0.4,1.1c-0.3,0.5-0.2,1.2,0.2,1.6l0.6,0.7l-0.8,0.9
		l-0.7-0.6c-0.4-0.4-1.1-0.5-1.6-0.2c-0.3,0.2-0.7,0.3-1.1,0.4c-0.6,0.2-1,0.7-1,1.3l0,0.9H15l0-0.9c0-0.6-0.4-1.1-1-1.3
		c-0.4-0.1-0.7-0.3-1.1-0.5c-0.5-0.3-1.2-0.2-1.6,0.2l-0.7,0.6l-0.8-0.9l0.6-0.7c0.4-0.4,0.5-1.1,0.2-1.6c-0.2-0.3-0.3-0.7-0.4-1.1
		c-0.2-0.6-0.7-1-1.2-1L8.1,11.2z M8.4,15.4c0,0.4,0.1,0.8,0.4,1.1l0.9,0.9c0.5,0.5,1.3,0.5,1.9,0l0.7-0.6c0.4,0.2,0.8,0.4,1.2,0.5
		l0,0.9c0,0.7,0.6,1.3,1.4,1.3h1.3c0.7,0,1.3-0.6,1.4-1.3l0-0.9c0.4-0.1,0.8-0.3,1.2-0.5l0.7,0.6c0.5,0.5,1.4,0.5,1.9,0l0.9-0.9
		c0.3-0.3,0.4-0.7,0.4-1.1l3.5,1.7l-10.8,5.1L4.7,17.2L8.4,15.4z M15.5,24.3l9.1-4.3l1.7,0.8l-10.8,5.1L4.7,20.8L6.4,20L15.5,24.3z
		 M26.3,24.4l-10.8,5.1L4.7,24.4l1.7-0.8l9.1,4.3l9.1-4.3L26.3,24.4z"/>
	<path class="st0" d="M15.6,15.3c1.2,0,2.4-0.5,3.3-1.4c1.8-1.8,1.8-4.8,0-6.7c-0.9-0.9-2-1.4-3.3-1.4c0,0,0,0,0,0
		c-1.2,0-2.4,0.5-3.3,1.4c-1.8,1.8-1.8,4.8,0,6.7C13.2,14.8,14.4,15.3,15.6,15.3z M13.4,8.3c0.6-0.6,1.4-1,2.3-1
		c0.9,0,1.7,0.3,2.3,1c1.3,1.3,1.3,3.3,0,4.6c-0.6,0.6-1.4,1-2.3,1s-1.7-0.3-2.3-1C12.1,11.6,12.1,9.6,13.4,8.3z"/>
</g>
</svg>
