<svg xmlns="http://www.w3.org/2000/svg" xmlns:xlink="http://www.w3.org/1999/xlink" width="104.44" height="104.473" viewBox="0 0 104.44 104.473">
  <defs>
    <filter id="Path_8176" x="0" y="0" width="104.44" height="104.473" filterUnits="userSpaceOnUse">
      <feOffset dy="3" input="SourceAlpha"/>
      <feGaussianBlur stdDeviation="5" result="blur"/>
      <feFlood flood-opacity="0.302"/>
      <feComposite operator="in" in2="blur"/>
      <feComposite in="SourceGraphic"/>
    </filter>
    <clipPath id="clip-path">
      <path id="Path_8181" data-name="Path 8181" d="M76.857,32.327c.641,3.972-2.332,7.919-2.922,11.686s.974,8.56-.794,12.019-6.484,4.946-9.226,7.688S59.738,71.178,56.227,73s-8.047.179-12.019.82-8,3.613-11.763,3.1-6.74-4.639-10.251-6.407-8.431-1.691-11.2-4.459-2.717-7.688-4.51-11.174S.744,48.729.1,44.628s2.435-7.919,2.922-11.686-.974-8.56.794-12.019C5.152,18.36,6.382,17.771,8.945,16a1.281,1.281,0,0,1,1.845.333,20.5,20.5,0,0,0,3.075-2.358c2.716-2.742,3.357-8.252,6.868-10.072s8.047-.179,12.019-.82S40.671-.476,44.439.037s6.74,4.639,10.251,6.407,8.431,1.691,11.2,4.434,2.717,7.688,4.51,11.174S76.14,28.355,76.857,32.327Z" transform="translate(-0.016 0.023)" fill="none"/>
    </clipPath>
  </defs>
  <g id="Discount" transform="translate(13.794 10.739)">
    <g transform="matrix(1, 0, 0, 1, -13.79, -10.74)" filter="url(#Path_8176)">
      <path id="Path_8176-2" data-name="Path 8176" d="M74.841,31.737c.615,3.87-2.255,7.688-2.819,11.327s.948,8.3-.769,11.66-6.279,4.792-8.944,7.483-4.126,7.227-7.458,8.97-7.688.179-11.635.794-7.688,3.46-11.327,2.9-6.535-4.485-9.867-6.2-8.175-1.64-10.866-4.305S8.594,56.955,6.8,53.521s-5.612-6-6.227-9.867,2.255-7.688,2.819-11.3-.923-8.3.769-11.66a12.814,12.814,0,0,1,4.818-4.459c.743-.461,1.486-.948,2.178-1.435A11.943,11.943,0,0,0,13.1,13.209c2.563-2.563,4.049-7.253,7.458-9s7.688-.179,11.66-.794,7.637-3.46,11.3-2.87,6.535,4.485,9.892,6.2,8.15,1.64,10.84,4.305,2.563,7.406,4.357,10.815S74.226,27.893,74.841,31.737Z" transform="translate(14.51 11.53)" fill="#ffcd00"/>
    </g>
    <path id="Path_8177" data-name="Path 8177" d="M14.616,11.35c1.794-2.563,3.229-5.741,5.946-7.124,3.306-1.691,7.688-.179,11.66-.794s7.688-3.46,11.3-2.9,6.535,4.485,9.892,6.2,8.15,1.64,10.84,4.305,2.563,7.406,4.357,10.815,5.612,6.022,6.227,9.892-2.255,7.688-2.819,11.3.948,8.3-.769,11.66-6.279,4.792-8.944,7.483-4.126,7.253-7.458,9-7.688.179-11.635.794-7.688,3.46-11.327,2.87-6.535-4.485-9.867-6.2-8.175-1.64-10.84-4.305-2.64-7.406-4.254-10.815S1.187,47.51.572,43.666s2.255-7.688,2.819-11.327-.923-8.3.769-11.66A12.814,12.814,0,0,1,9,16.219" transform="translate(0.72 0.781)" fill="none" stroke="#505050" stroke-linecap="round" stroke-miterlimit="10" stroke-width="1.5"/>
    <path id="Path_8178" data-name="Path 8178" d="M5,5.9l.256-.179" transform="translate(7.773 8.999)" fill="none" stroke="#505050" stroke-linecap="round" stroke-miterlimit="10" stroke-width="1.5"/>
    <path id="Path_8179" data-name="Path 8179" d="M15.01,15Z" transform="translate(23.416 23.501)" fill="#fff"/>
    <path id="Path_8180" data-name="Path 8180" d="M15.01,15Z" transform="translate(23.416 23.501)" fill="#fff"/>
    <g id="Group_11383" data-name="Group 11383" clip-path="url(#clip-path)">
      <rect id="Rectangle_1087" data-name="Rectangle 1087" width="61.685" height="77.626" transform="translate(55.351 108.944) rotate(-135)" fill="#ed2100" opacity="0.2"/>
    </g>
    <g id="Group_11395" data-name="Group 11395">
      <circle id="Ellipse_150" data-name="Ellipse 150" cx="27.678" cy="27.678" r="27.678" transform="translate(10.749 10.823)" fill="#fff"/>
      <circle id="Ellipse_151" data-name="Ellipse 151" cx="22.578" cy="22.578" r="22.578" transform="translate(15.849 15.923)" fill="#00bed6"/>
      <path id="Path_8183" data-name="Path 8183" d="M15.224,19.966a4.874,4.874,0,1,0-5.074-4.874,4.963,4.963,0,0,0,5.074,4.874Zm0-6.432a1.558,1.558,0,1,1-1.647,1.558,1.6,1.6,0,0,1,1.647-1.558Z" transform="translate(17.46 17.645)" fill="#fff"/>
      <path id="Intersection_1" data-name="Intersection 1" d="M10846.166,2457.1l31.794-32.058a22.577,22.577,0,0,1-31.794,32.058Z" transform="translate(-10823.41 -2402.348)" fill="#00adc3"/>
      <path id="Path_8184" data-name="Path 8184" d="M20.186,15.4a4.874,4.874,0,1,0,5.052,4.852A4.963,4.963,0,0,0,20.186,15.4Zm0,6.41a1.558,1.558,0,1,1,1.558-1.558,1.558,1.558,0,0,1-1.558,1.558Z" transform="translate(24.004 23.991)" fill="#fff"/>
      <path id="Path_8182" data-name="Path 8182" d="M30.559,12.34a1.6,1.6,0,0,0-.512-1.18,1.714,1.714,0,0,0-2.4,0L11.019,27.1a1.625,1.625,0,0,0,0,2.359,1.758,1.758,0,0,0,2.381,0L30.048,13.631A1.669,1.669,0,0,0,30.559,12.34Z" transform="translate(17.903 18.193)" fill="#fff"/>
    </g>
  </g>
</svg>
