<svg id="Edit" xmlns="http://www.w3.org/2000/svg" width="23.748" height="23.748" viewBox="0 0 23.748 23.748">
  <path id="Path_7414" data-name="Path 7414" d="M4.245,20.035H6.459v1.692l-2.985.522L2.031,20.806l.522-2.985H4.245ZM5.912,16.13a.672.672,0,0,1,0-.92L13.051,8.07a.651.651,0,1,1,.92.92L6.832,16.13a.622.622,0,0,1-.92,0M13.325,5.01,1.161,17.174l-1,5.647a1.144,1.144,0,0,0,1.294,1.294l5.647-1L19.27,10.931a.522.522,0,0,0,0-.771L14.121,5.01a.547.547,0,0,0-.8,0M23.25,6.975,21.111,9.115a.6.6,0,0,1-.8,0L15.166,3.965a.547.547,0,0,1,0-.8L17.3,1.03a2.239,2.239,0,0,1,3.159,0L23.25,3.816a2.239,2.239,0,0,1,0,3.159" transform="translate(-0.154 -0.378)" fill="#505050"/>
</svg>
