<svg xmlns="http://www.w3.org/2000/svg" width="34" height="34" viewBox="0 0 34 34">
  <g id="Group_8117" data-name="Group 8117" transform="translate(-44.797 -15.45)">
    <path id="Path_7380" data-name="Path 7380" d="M61.8,15.45a17,17,0,1,0,17,17A17.019,17.019,0,0,0,61.8,15.45ZM56.173,46.037A13.431,13.431,0,0,1,51.52,42.9l1.135-2.1a6.2,6.2,0,0,1,5.508-3.512h.628Zm5.531,1.4-2.478-1.973L61.7,36.282l2.476,9.184ZM60.648,35.033h2.118L61.7,36.089Zm6.384,11.173-2.414-8.915h.8a6.16,6.16,0,0,1,5.487,3.452c0,.007.283.591.527,1.155l.51,1.166A14.4,14.4,0,0,1,67.032,46.206Zm6.742-5.321c-.266-.615-.572-1.252-.572-1.252a8.682,8.682,0,0,0-7.782-4.892h-.877l-.363-.877H59.238l-.363.877h-.713a8.658,8.658,0,0,0-7.772,4.889L49.758,40.8a14.533,14.533,0,0,1-2.624-8.348,14.663,14.663,0,0,1,29.325,0A14.527,14.527,0,0,1,73.773,40.885Z" transform="translate(0 0)" fill="#505050"/>
    <path id="Path_7381" data-name="Path 7381" d="M58.307,19.013a11.014,11.014,0,0,0-6.17,1.823l.656,4.414a6.053,6.053,0,0,0-.071.7,6.017,6.017,0,0,0,12.035,0,5.8,5.8,0,0,0-.077-.757l.451-4.852A21.264,21.264,0,0,0,58.307,19.013Zm.432,11.79a4.854,4.854,0,0,1-4.848-4.849,4.79,4.79,0,0,1,.319-1.684,7.23,7.23,0,0,1,4.424-2.078,8.333,8.333,0,0,1,4.674,2.2A4.8,4.8,0,0,1,58.739,30.8Z" transform="translate(3.058 1.484)" fill="#00bed6"/>
  </g>
</svg>
