<svg xmlns="http://www.w3.org/2000/svg" width="60" height="60" viewBox="0 0 60 60">
  <g id="extra" transform="translate(-1021 -126)">
    <g id="extra-2" data-name="extra" transform="translate(1021 126)" fill="#fff" stroke="#a7a7a7" stroke-miterlimit="10" stroke-width="2">
      <circle cx="30" cy="30" r="30" stroke="none"/>
      <circle cx="30" cy="30" r="29" fill="none"/>
    </g>
    <path id="Path_8044" data-name="Path 8044" d="M53.047,61.7a4.934,4.934,0,0,0,.877,2.741,5.044,5.044,0,0,0,2.522,1.206,5.372,5.372,0,0,0-2.63.987A4.386,4.386,0,0,0,52.5,69.156a4.6,4.6,0,0,0-.988-2.741A4.5,4.5,0,0,0,49.1,65.209a5.372,5.372,0,0,0,2.63-.987A4.385,4.385,0,0,0,53.047,61.7Z" transform="translate(999.987 103.643)" fill="none" stroke="#00bed6" stroke-linecap="round" stroke-linejoin="round" stroke-width="1.7"/>
    <path id="Path_8045" data-name="Path 8045" d="M30.386,28.4a4.745,4.745,0,0,0,.871,2.323,4.647,4.647,0,0,0,2.227,1.162,3.97,3.97,0,0,0-2.323.775A4.164,4.164,0,0,0,30,34.888,3.486,3.486,0,0,0,26.9,31.4a4.067,4.067,0,0,0,2.421-.871,3.97,3.97,0,0,0,1.065-2.13Z" transform="translate(1010.241 112.857)" fill="none" stroke="#00bed6" stroke-linecap="round" stroke-linejoin="round" stroke-width="1.7"/>
    <path id="Path_8046" data-name="Path 8046" d="M66.086,28.4a3.873,3.873,0,0,0,.871,2.323,4.454,4.454,0,0,0,2.13,1.162,4.164,4.164,0,0,0-2.323.775A5.035,5.035,0,0,0,65.6,34.887a4.164,4.164,0,0,0-.775-2.323A4.164,4.164,0,0,0,62.6,31.4a3.873,3.873,0,0,0,2.323-.871,3.679,3.679,0,0,0,1.162-2.13Z" transform="translate(996.647 113.857)" fill="none" stroke="#00bed6" stroke-linecap="round" stroke-linejoin="round" stroke-width="1.7"/>
    <g id="Group_11414" data-name="Group 11414" transform="translate(1017.709 124.048)">
      <path id="Path_8043" data-name="Path 8043" d="M46.424,52.247h6.6l.486-1.6h2.015l.556,1.6h4.935L56.57,42.1H52.4l-1.6,3.405c0-2.989-3.2-3.405-3.2-3.405H31.065L30.3,43.7l-.834-1.6H18V52.247H29.328l.973-1.6.764,1.6H45.591v-1.6Z" transform="translate(-5.722 -14.305)" fill="#505050"/>
      <path id="Path_8047" data-name="Path 8047" d="M26.133,49.607v2.015H19.6V43.7h6.394v2.015H22.241v.9h3.337v1.946H22.243v1.043Z" transform="translate(-6.21 -14.793)" fill="#ffcd00"/>
      <path id="Path_8048" data-name="Path 8048" d="M35.1,51.623,33.71,49.468l-1.321,2.154H29.4l2.849-3.961L29.47,43.7h2.989l1.321,2.015L35.1,43.7H37.95l-2.713,3.822,2.849,4.1Z" transform="translate(-9.2 -14.793)" fill="#ffcd00"/>
      <path id="Path_8049" data-name="Path 8049" d="M43.693,45.785H41.4V43.7h7.228v2.085H46.334v5.838H43.693Z" transform="translate(-12.86 -14.793)" fill="#ffcd00"/>
      <path id="Path_8050" data-name="Path 8050" d="M56.205,49.607h-.764v2.015H52.8V43.7h3.822c2.154,0,3.544,1.181,3.544,2.989a2.78,2.78,0,0,1-1.459,2.5l1.667,2.433H57.526Zm.209-3.822h-.973v1.807h.973c.764,0,1.112-.346,1.112-.9S57.178,45.785,56.414,45.785Z" transform="translate(-16.337 -14.793)" fill="#ffcd00"/>
      <path id="Path_8051" data-name="Path 8051" d="M69.855,50.233H66.866l-.556,1.39H63.6L67.075,43.7h2.571l3.475,7.923h-2.78Zm-.764-1.946-.764-1.946-.764,1.946Z" transform="translate(-19.632 -14.793)" fill="#ffcd00"/>
    </g>
  </g>
</svg>
