<svg xmlns="http://www.w3.org/2000/svg" width="22.391" height="22.4" viewBox="0 0 22.391 22.4">
  <g id="Full-Size" transform="translate(-352 -180)">
    <path id="Path_7785" data-name="Path 7785" d="M316.968,396.917V404.7a2.445,2.445,0,0,1-2.443,2.444H297.02a2.446,2.446,0,0,1-2.443-2.445V387.219a2.446,2.446,0,0,1,2.443-2.443h7.809a2.715,2.715,0,0,0-.761,1.633H297.02a.81.81,0,0,0-.81.81V404.7a.812.812,0,0,0,.81.81h17.5a.81.81,0,0,0,.81-.81v-7.028A2.7,2.7,0,0,0,316.968,396.917Zm-9.629-9.718h5.338l-8.641,8.64a1.225,1.225,0,1,0,1.732,1.733h0l8.641-8.641v5.338a1.225,1.225,0,0,0,2.449.07c0-.023,0-.047,0-.07v-8.3a1.224,1.224,0,0,0-1.225-1.225h-8.295a1.225,1.225,0,1,0,0,2.449Z" transform="translate(57.423 -204.749)" fill="#3f3f3f"/>
  </g>
</svg>
