<svg xmlns="http://www.w3.org/2000/svg" width="32.343" height="34" viewBox="0 0 32.343 34">
  <g id="Gift_card" data-name="Gift card" transform="translate(-480.918 -361.855)">
    <g id="Group_8294" data-name="Group 8294" transform="translate(480.918 361.855)">
      <g id="Group_8293" data-name="Group 8293">
        <path id="Path_7444" data-name="Path 7444" d="M513.261,368.029h-7.839a3.949,3.949,0,0,0-5.374-5.563c-.466.3-1.243.985-2.609,3.556-.122.23-.239.455-.35.673-.109-.217-.227-.442-.349-.673-1.367-2.571-2.144-3.26-2.61-3.556a3.952,3.952,0,0,0-5.377,5.563h-7.835v9.643h1.165v18.182H512.1V377.672h1.165v-9.643Zm-12.148-3.88a1.957,1.957,0,1,1,2.094,3.308,13.553,13.553,0,0,1-4.561.572A13.579,13.579,0,0,1,501.113,364.149Zm-10.749.606a1.958,1.958,0,0,1,2.7-.606,13.586,13.586,0,0,1,2.467,3.879c-1-.015-2-.071-2.825-.166a5.083,5.083,0,0,1-1.736-.4,1.958,1.958,0,0,1-.607-2.7Zm2.694,29.107h-8.983v-16.19h8.983Zm0-18.182H482.911v-5.659h10.148v5.659Zm6.07,18.182h-4.078V370.022h4.078Zm10.975,0H501.12v-16.19H510.1Zm1.165-18.182H501.12v-5.659h10.148Z" transform="translate(-480.918 -361.855)" fill="#505050"/>
      </g>
    </g>
    <g id="Group_8295" data-name="Group 8295" transform="translate(488.067 361.855)">
      <path id="Path_7445" data-name="Path 7445" d="M496.063,370.022h4.078c1.694,0,5.089-.445,6.294-1.993a3.949,3.949,0,0,0-5.374-5.563c-.466.3-1.243.985-2.609,3.556-.122.23-.239.455-.35.673-.109-.217-.227-.442-.349-.673-1.367-2.571-2.144-3.26-2.609-3.556a3.952,3.952,0,0,0-5.378,5.563C490.745,369.36,492.921,370.022,496.063,370.022Zm6.063-5.872a1.957,1.957,0,1,1,2.094,3.308,13.552,13.552,0,0,1-4.561.572A13.579,13.579,0,0,1,502.126,364.149Zm-10.749.606a1.958,1.958,0,0,1,2.7-.606,13.586,13.586,0,0,1,2.467,3.879c-1-.015-2-.071-2.825-.166a5.083,5.083,0,0,1-1.736-.4,1.958,1.958,0,0,1-.607-2.7Z" transform="translate(-489.08 -361.855)" fill="#04b3ce"/>
    </g>
    <path id="Path_7446" data-name="Path 7446" d="M502.839,394.737V368.9h-8.061v27.827h8.062ZM500.847,370.9v23.841H496.77V370.9Z" transform="translate(-1.719 -0.874)" fill="#04b3ce"/>
  </g>
</svg>
