<svg xmlns="http://www.w3.org/2000/svg" xmlns:xlink="http://www.w3.org/1999/xlink" width="35" height="37" viewBox="0 0 35 37">
  <defs>
    <filter id="Union_3" x="0" y="0" width="35" height="37" filterUnits="userSpaceOnUse">
      <feOffset input="SourceAlpha"/>
      <feGaussianBlur stdDeviation="3" result="blur"/>
      <feFlood flood-opacity="0.8"/>
      <feComposite operator="in" in2="blur"/>
      <feComposite in="SourceGraphic"/>
    </filter>
  </defs>
  <g id="Icon_no_show" data-name="Icon no show" transform="translate(-1414 -438)">
    <g transform="matrix(1, 0, 0, 1, 1414, 438)" filter="url(#Union_3)">
      <path id="Union_3-2" data-name="Union 3" d="M6.705,16.227A8.283,8.283,0,0,1,0,8.2,8.355,8.355,0,0,1,8.5,0,8.355,8.355,0,0,1,17,8.2a8.282,8.282,0,0,1-6.7,8.023L8.5,19Z" transform="translate(9 9)" fill="rgba(80,80,80,0.7)"/>
    </g>
    <g id="Group_12302" data-name="Group 12302" transform="translate(1428.061 452.407)">
      <line id="Line_187" data-name="Line 187" x2="6.685" y2="6.685" transform="translate(0.164 0.001)" fill="none" stroke="#fff" stroke-linecap="round" stroke-linejoin="round" stroke-width="2.5"/>
      <line id="Line_188" data-name="Line 188" y1="6.686" x2="6.686" transform="translate(0 0)" fill="none" stroke="#fff" stroke-linecap="round" stroke-linejoin="round" stroke-width="2.5"/>
    </g>
    <path id="Path_8951" data-name="Path 8951" d="M139.575,17.254l1.2,2.076a1.327,1.327,0,0,0,1.16.669,1.346,1.346,0,0,0,1.171-.68l1.191-2.065a8.826,8.826,0,0,0,6.434-8.472c.065-7.746-9.567-11.735-15.012-6.218A8.83,8.83,0,0,0,139.575,17.254ZM136.728,3.575a7.364,7.364,0,1,1,6.931,12.368.714.714,0,0,0-.452.338l-1.272,2.2-1.272-2.2a.715.715,0,0,0-.452-.338,7.4,7.4,0,0,1-3.483-12.368Z" transform="translate(1289.574 447.001)" fill="#fbfbfb" stroke="#fff" stroke-width="0.5"/>
  </g>
</svg>
