<svg xmlns="http://www.w3.org/2000/svg" xmlns:xlink="http://www.w3.org/1999/xlink" width="27.68" height="25.185" viewBox="0 0 27.68 25.185">
  <defs>
    <clipPath id="clip-path">
      <rect id="Rectangle_1817" data-name="Rectangle 1817" width="27.314" height="24.825" fill="none"/>
    </clipPath>
  </defs>
  <g id="Group_13009" data-name="Group 13009" transform="translate(-5613.82 -2426.891)">
    <g id="MFS_24px-icon-Clock-in-Tech" transform="translate(5614 2427.071)">
      <path id="Path_8755" data-name="Path 8755" d="M11.737,0A11.816,11.816,0,0,1,23.243,9.372a10.946,10.946,0,0,1,.231,2.321A11.737,11.737,0,1,1,11.737,0Z" transform="translate(0.72 0.72)" fill="none" stroke="#505150" stroke-width="1.8"/>
      <path id="Path_8750" data-name="Path 8750" d="M15.41,27.541l12.947.072V10.454L15.41,10.4Z" transform="translate(-1.043 -2.788)" fill="#fff"/>
      <path id="Path_8746" data-name="Path 8746" d="M17.42,6.44h-2a.21.21,0,0,0-.15.37l.39.39-3.52,3.61L10.46,9.17l.38-.39a.22.22,0,0,0-.16-.37H8.73a.21.21,0,0,0-.21.22v1.95a.21.21,0,0,0,.37.14l.39-.4,2.31,2.23a.81.81,0,0,0,.58.23.84.84,0,0,0,.59-.24l4.09-4.2.4.38a.22.22,0,0,0,.37-.16V6.62a.22.22,0,0,0-.22-.22" transform="translate(-0.676 0.3)" fill="#505150"/>
    </g>
    <path id="noun-hourglass-3807221" d="M150.078,13.052h-.593V10a2.358,2.358,0,0,0-1.311-2.117l-1.518-.759,1.518-.759h0a2.358,2.358,0,0,0,1.311-2.117V1.192h.593a.593.593,0,0,0,0-1.186H140.59a.593.593,0,0,0,0,1.186h.593V4.246a2.358,2.358,0,0,0,1.311,2.117l1.518.759-1.518.759A2.358,2.358,0,0,0,141.183,10v3.054h-.593a.593.593,0,0,0,0,1.186h9.488a.593.593,0,0,0,0-1.186ZM148.3,1.192V4.157h-5.93V1.192Zm-5.272,7.75,2.307-1.156,2.307,1.156A1.167,1.167,0,0,1,148.3,10v.682h-5.93V10a1.167,1.167,0,0,1,.658-1.056Z" transform="translate(5490.829 2437.293)" fill="#505150"/>
  </g>
</svg>
