<svg xmlns="http://www.w3.org/2000/svg" xmlns:xlink="http://www.w3.org/1999/xlink" width="23" height="24" viewBox="0 0 21.521 21.507">
	<defs>
		<clipPath id="clip-path">
			<rect id="Rectangle_658" data-name="Rectangle 658" width="23" height="24" fill="none" />
		</clipPath>
	</defs>
	<g id="Tip" transform="translate(0 -0.2)">
		<g id="H10" transform="translate(0 0.2)">
			<g id="Layer_143" data-name="Layer 143" transform="translate(0 0)">
				<g id="Group_8919" data-name="Group 8919" clip-path="url(#clip-path)">
					<path id="Path_7792" data-name="Path 7792" d="M.673,17.6H0v9.223a4.107,4.107,0,0,0,4.107,4.107H17.414a4.107,4.107,0,0,0,4.107-4.107V17.6a4.107,4.107,0,0,0-3.5-4.062l-.112.651h.673V12.1H2.94v2.087h.673l-.09-.651A4.107,4.107,0,0,0,0,17.6H1.346A2.783,2.783,0,0,1,3.7,14.86l.583-.09V13.446H17.234V14.77l.583.09A2.783,2.783,0,0,1,20.174,17.6v9.223a2.715,2.715,0,0,1-.808,1.952,2.76,2.76,0,0,1-1.952.808H4.107a2.76,2.76,0,0,1-2.76-2.76V17.6Z" transform="translate(0 -9.43)" fill="#fff" />
					<path id="Path_7793" data-name="Path 7793" d="M4.673,1.524H4V4.217H23.725V.2H4V1.524H22.379V2.87H5.346V1.524Z" transform="translate(-3.102 -0.2)" fill="#fff" />
					<path id="Path_7794" data-name="Path 7794" d="M26.749,40.624V41.3A6.149,6.149,0,1,0,20.6,35.149,6.149,6.149,0,0,0,26.749,41.3V39.951a4.825,4.825,0,0,1-4.8-4.8,4.827,4.827,0,0,1,4.8-4.78,4.825,4.825,0,0,1,4.78,4.78,4.735,4.735,0,0,1-1.414,3.389,4.668,4.668,0,0,1-3.366,1.414Z" transform="translate(-15.977 -22.537)" fill="#fff" />
					<path id="Path_7795" data-name="Path 7795" d="M43.237,46.527c0,.785-.606,1.212-1.369,1.324v.965h-.92v-.987A3.658,3.658,0,0,1,39.4,47.2l.471-.965a3.1,3.1,0,0,0,1.616.651c.247,0,.426-.09.426-.292,0-.651-2.244-.247-2.244-1.75a1.34,1.34,0,0,1,1.279-1.3V42.6h.92v.92a3.187,3.187,0,0,1,1.369.471l-.471.987a3.566,3.566,0,0,0-1.414-.494c-.359,0-.359.09-.359.247,0,.628,2.244.247,2.244,1.8" transform="translate(-30.558 -33.085)" fill="#fff" />
				</g>
			</g>
		</g>
	</g>
</svg>
