<svg xmlns="http://www.w3.org/2000/svg" width="13.827" height="19.996" viewBox="0 0 13.827 19.996">
  <g id="icon_online_booking_confirm" data-name="icon online booking confirm" transform="translate(-1029.612 -575.8)">
    <path id="Path_8151" data-name="Path 8151" d="M273.351,61.583l-4.206,4.206a.949.949,0,0,1-1.339,0l-2.144-2.144A.947.947,0,0,1,267,62.305l1.474,1.475,3.537-3.537a.947.947,0,0,1,1.339,1.339Z" transform="translate(767.019 522.211)" fill="#505050"/>
    <path id="Path_8152" data-name="Path 8152" d="M273.572,54.218h-7.578a3.128,3.128,0,0,0-3.124,3.124V71.09a3.128,3.128,0,0,0,3.124,3.124h7.578A3.129,3.129,0,0,0,276.7,71.09a.79.79,0,0,0-.019-.092h.019V57.342A3.129,3.129,0,0,0,273.572,54.218ZM275.157,67.2v3.824h.019a.659.659,0,0,0-.019.093,1.57,1.57,0,0,1-1.569,1.568h-7.609a1.57,1.57,0,0,1-1.569-1.568V57.314a1.571,1.571,0,0,1,1.569-1.569h7.609a1.571,1.571,0,0,1,1.569,1.569V67.2Z" transform="translate(766.742 521.582)" fill="#505050"/>
    <path id="Path_8153" data-name="Path 8153" d="M270.67,69.193a.68.68,0,0,0-.637-.675v-.007H270l-.018,0-.018,0h-1.407v.009a.576.576,0,0,0-.06-.012.685.685,0,1,0,0,1.371.574.574,0,0,0,.06-.012v.008h1.4c.008,0,.014,0,.022,0s.013,0,.021,0h.029v-.006A.68.68,0,0,0,270.67,69.193Z" transform="translate(767.272 523.082)" fill="#505050"/>
  </g>
</svg>
