<?xml version="1.0" encoding="utf-8"?>
<!-- Generator: Adobe Illustrator 24.2.3, SVG Export Plug-In . SVG Version: 6.00 Build 0)  -->
<svg version="1.1" id="Layer_1" xmlns="http://www.w3.org/2000/svg" xmlns:xlink="http://www.w3.org/1999/xlink" x="0px" y="0px"
	 viewBox="0 0 31 31" style="enable-background:new 0 0 31 31;" xml:space="preserve">
<style type="text/css">
	.st0{fill:#505050;}
	
		.st1{fill:none;stroke:#505050;stroke-width:2;stroke-linecap:round;stroke-linejoin:round;stroke-miterlimit:10;stroke-dasharray:3.591,4.56;}
</style>
<g>
	<path class="st0" d="M27.55,0.5h-4.39c-0.75,0-1.41,0.41-1.76,1.03H9.6c-0.35-0.61-1-1.03-1.76-1.03H3.45
		c-1.11,0-2.02,0.9-2.02,2.02v25.97c0,1.11,0.9,2.02,2.02,2.02h4.39c0.75,0,1.41-0.41,1.76-1.03H21.4c0.35,0.61,1,1.03,1.76,1.03
		h4.39c1.11,0,2.02-0.9,2.02-2.02V2.52C29.57,1.4,28.66,0.5,27.55,0.5 M27.55,2.52v25.97h-4.39v-1.03H7.84v1.03H3.45V2.52h4.39v1.03
		h15.32V2.52H27.55z"/>
</g>
<line class="st1" x1="5.55" y1="6.31" x2="25.45" y2="6.31"/>
<line class="st1" x1="5.55" y1="23.96" x2="25.45" y2="23.96"/>
<path class="st0" d="M16.86,14h-2.41l-0.32,2.44h2.41L16.86,14z M19.13,14l-0.32,2.44h2.37l-0.25,2.2h-2.39l-0.34,2.71h-2.27
	l0.34-2.71h-2.41l-0.34,2.71h-2.27l0.34-2.71H9.23l0.25-2.2h2.39L12.19,14H9.81l0.25-2.21h2.39l0.35-2.85h2.27l-0.35,2.85h2.41
	l0.35-2.85h2.27l-0.35,2.85h2.37L21.52,14H19.13z"/>
</svg>
