<svg xmlns="http://www.w3.org/2000/svg" width="29.903" height="34" viewBox="0 0 29.903 34">
  <g id="Group_7603" data-name="Group 7603" transform="translate(-5595.604 433.979)">
    <g id="Group_7587" data-name="Group 7587" transform="translate(5595.604 -433.979)">
      <g id="Group_7578" data-name="Group 7578" transform="translate(0 1.268)">
        <g id="Group_7577" data-name="Group 7577">
          <path id="Path_7161" data-name="Path 7161" d="M233.223,461.39l-11.267-11.266a2.987,2.987,0,0,0-4.588,3.784l-.016.079a20.857,20.857,0,0,1-5.719,10.686l-5.168,5.167a2.986,2.986,0,0,0,0,4.225l2.816,2.816a2.986,2.986,0,0,0,4.225,0l.7-.7,4.929,4.929a2.988,2.988,0,0,0,4.225-4.225l-2.113-2.113.7-.7a2.986,2.986,0,0,0,0-4.225l-.479-.479a20.859,20.859,0,0,1,7.883-3.366l.079-.017a2.991,2.991,0,0,0,3.783-.364h0A2.991,2.991,0,0,0,233.223,461.39ZM212.1,475.473a1,1,0,0,1-1.409,0l-2.816-2.816a1,1,0,0,1,0-1.408l4.929-4.929,4.225,4.225Zm9.857,2.816a1,1,0,0,1-1.408,1.408l-4.929-4.929,1.409-1.408Zm-3.52-6.337c.3-.3.747-.758,1.454-1.362l.657.658a1,1,0,0,1,0,1.408l-.7.7Zm.042-2.774-4.31-4.31a22.788,22.788,0,0,0,4.848-9.234l8.7,8.7A22.789,22.789,0,0,0,218.479,469.178Zm13.336-4.971a1,1,0,0,1-1.408,0L219.14,452.94a1,1,0,1,1,1.408-1.408L231.814,462.8A1,1,0,0,1,231.814,464.207Z" transform="translate(-205.59 -449.25)" fill="#505050"/>
        </g>
      </g>
      <g id="Group_7580" data-name="Group 7580" transform="translate(4.809 21.566)">
        <g id="Group_7579" data-name="Group 7579">
          <path id="Path_7162" data-name="Path 7162" d="M214.821,475.386a1,1,0,0,0-1.408,0L212,476.794a1,1,0,1,0,1.409,1.409l1.408-1.409A1,1,0,0,0,214.821,475.386Z" transform="translate(-211.713 -475.095)" fill="#00bed6"/>
        </g>
      </g>
      <g id="Group_7582" data-name="Group 7582" transform="translate(19.945)">
        <g id="Group_7581" data-name="Group 7581">
          <path id="Path_7163" data-name="Path 7163" d="M231.981,447.635a1,1,0,0,0-1,1v1.992a1,1,0,0,0,1.992,0v-1.992A1,1,0,0,0,231.981,447.635Z" transform="translate(-230.985 -447.635)" fill="#00bed6"/>
        </g>
      </g>
      <g id="Group_7584" data-name="Group 7584" transform="translate(25.92 7.967)">
        <g id="Group_7583" data-name="Group 7583">
          <path id="Path_7164" data-name="Path 7164" d="M241.581,457.779h-1.992a1,1,0,0,0,0,1.992h1.992a1,1,0,0,0,0-1.992Z" transform="translate(-238.593 -457.779)" fill="#00bed6"/>
        </g>
      </g>
      <g id="Group_7586" data-name="Group 7586" transform="translate(23.928 1.992)">
        <g id="Group_7585" data-name="Group 7585">
          <path id="Path_7165" data-name="Path 7165" d="M239.748,450.463a1,1,0,0,0-1.408,0l-1.992,1.992a1,1,0,1,0,1.408,1.408l1.992-1.992A1,1,0,0,0,239.748,450.463Z" transform="translate(-236.057 -450.171)" fill="#00bed6"/>
        </g>
      </g>
    </g>
  </g>
</svg>
