<svg id="Web_Icons" data-name="Web Icons" xmlns="http://www.w3.org/2000/svg" width="34" height="34" viewBox="0 0 34 34">
  <g id="H4" transform="translate(0 0)">
    <g id="H8">
      <g id="Layer_80" data-name="Layer 80">
        <g id="_67" data-name="67">
          <path id="Path_7229" data-name="Path 7229" d="M19.128,10.758a1.344,1.344,0,0,0-.9-.358H11.154a1.344,1.344,0,0,0-.9.358,1.433,1.433,0,0,0-.358.9V18.6a1.433,1.433,0,0,0,.358.9,1.344,1.344,0,0,0,.9.358h7.078a1.344,1.344,0,0,0,.9-.358,1.433,1.433,0,0,0,.358-.9V11.654A1.433,1.433,0,0,0,19.128,10.758ZM16.933,17.3h-4.48V12.953h4.48Z" transform="translate(-9.9 -10.4)" fill="#505050"/>
          <path id="Path_7230" data-name="Path 7230" d="M19.128,38.158a1.344,1.344,0,0,0-.9-.358H11.154a1.344,1.344,0,0,0-.9.358,1.433,1.433,0,0,0-.358.9v6.9a1.433,1.433,0,0,0,.358.941,1.344,1.344,0,0,0,.9.358h7.078a1.344,1.344,0,0,0,.9-.358,1.433,1.433,0,0,0,.358-.941v-6.9A1.433,1.433,0,0,0,19.128,38.158ZM16.933,44.7h-4.48V40.353h4.48Z" transform="translate(-9.9 -25.526)" fill="#505050"/>
          <path id="Path_7231" data-name="Path 7231" d="M19.128,65.558a1.344,1.344,0,0,0-.9-.358H11.154A1.225,1.225,0,0,0,9.9,66.454v6.9a1.433,1.433,0,0,0,.358.941,1.344,1.344,0,0,0,.9.358h7.078a1.344,1.344,0,0,0,.9-.358,1.433,1.433,0,0,0,.358-.941v-6.9A1.344,1.344,0,0,0,19.128,65.558ZM16.933,72.1h-4.48V67.753h4.48Z" transform="translate(-9.9 -40.652)" fill="#505050"/>
          <path id="Path_7232" data-name="Path 7232" d="M46.327,10.758a1.344,1.344,0,0,0-.9-.358H38.353a1.433,1.433,0,0,0-.9.358,1.433,1.433,0,0,0-.358.9V18.6a1.209,1.209,0,0,0,1.254,1.254h7.078a1.344,1.344,0,0,0,.9-.358,1.433,1.433,0,0,0,.358-.9V11.654a1.433,1.433,0,0,0-.358-.9ZM44.132,17.3h-4.48V12.953h4.48Z" transform="translate(-24.915 -10.4)" fill="#505050"/>
          <path id="Path_7233" data-name="Path 7233" d="M46.327,38.157a1.344,1.344,0,0,0-.9-.358H38.353A1.209,1.209,0,0,0,37.1,39.053v6.9a1.228,1.228,0,0,0,1.254,1.3h7.078a1.344,1.344,0,0,0,.9-.358,1.433,1.433,0,0,0,.358-.941v-6.9A1.433,1.433,0,0,0,46.327,38.157ZM44.132,44.7h-4.48V40.352h4.48Z" transform="translate(-24.915 -25.525)" fill="#00bed6"/>
          <path id="Path_7234" data-name="Path 7234" d="M46.328,65.558a1.344,1.344,0,0,0-.9-.358H38.354a1.434,1.434,0,0,0-.9.358,1.344,1.344,0,0,0-.358.9v6.9a1.228,1.228,0,0,0,1.254,1.3h7.078a1.344,1.344,0,0,0,.9-.358,1.433,1.433,0,0,0,.358-.941v-6.9A1.344,1.344,0,0,0,46.328,65.558ZM44.133,72.1h-4.48V67.753h4.48Z" transform="translate(-24.916 -40.652)" fill="#505050"/>
          <path id="Path_7235" data-name="Path 7235" d="M73.528,10.758a1.254,1.254,0,0,0-.9-.358H65.6a1.3,1.3,0,0,0-1.3,1.254V18.6a1.3,1.3,0,0,0,1.3,1.254h7.033a1.3,1.3,0,0,0,1.3-1.254V11.654a1.254,1.254,0,0,0-.4-.9Zm-2.15,6.54H66.853V12.953h4.524Z" transform="translate(-39.931 -10.4)" fill="#505050"/>
          <path id="Path_7236" data-name="Path 7236" d="M73.528,38.158a1.254,1.254,0,0,0-.9-.358H65.6a1.3,1.3,0,0,0-1.3,1.254v6.9a1.3,1.3,0,0,0,.4.941,1.254,1.254,0,0,0,.9.358h7.033a1.254,1.254,0,0,0,.9-.358,1.3,1.3,0,0,0,.4-.941v-6.9A1.254,1.254,0,0,0,73.528,38.158Zm-2.15,6.54H66.853V40.353h4.524Z" transform="translate(-39.931 -25.526)" fill="#505050"/>
          <path id="Path_7237" data-name="Path 7237" d="M73.528,65.558a1.254,1.254,0,0,0-.9-.358H65.6a1.254,1.254,0,0,0-.9.358,1.21,1.21,0,0,0-.4.9v6.9a1.3,1.3,0,0,0,.4.941,1.254,1.254,0,0,0,.9.358h7.033a1.254,1.254,0,0,0,.9-.358,1.3,1.3,0,0,0,.4-.941v-6.9A1.21,1.21,0,0,0,73.528,65.558Zm-2.15,6.54H66.853V67.753h4.524Z" transform="translate(-39.931 -40.652)" fill="#505050"/>
        </g>
      </g>
    </g>
  </g>
</svg>
