<svg id="minimize" xmlns="http://www.w3.org/2000/svg" width="22.391" height="22.396" viewBox="0 0 22.391 22.396">
  <path id="Path_7784" data-name="Path 7784" d="M22.454,12.168v7.788A2.445,2.445,0,0,1,20.011,22.4H2.506A2.445,2.445,0,0,1,.063,19.955V2.47A2.446,2.446,0,0,1,2.506.027h7.809A2.712,2.712,0,0,0,9.554,1.66H2.506a.811.811,0,0,0-.81.81V19.955a.811.811,0,0,0,.81.81h17.5a.811.811,0,0,0,.81-.81V12.927A2.7,2.7,0,0,0,22.454,12.168Zm-3.772-1.436H13.344l8.641-8.64A1.225,1.225,0,0,0,20.253.359L11.612,9V3.662a1.225,1.225,0,1,0-2.449,0v8.295a1.225,1.225,0,0,0,1.225,1.225h8.295a1.224,1.224,0,1,0,0-2.449Z" transform="translate(-0.063 -0.001)" fill="#505050"/>
</svg>
