<svg xmlns="http://www.w3.org/2000/svg" width="34" height="34" viewBox="0 0 34 34">
  <g id="Need_Help" data-name="Need Help" transform="translate(0 0.37)">
    <g id="H3" transform="translate(0 -0.37)">
      <g id="H6" transform="translate(0 0)">
        <g id="Layer_71" data-name="Layer 71">
          <path id="Path_7053" data-name="Path 7053" d="M5.678,27.9l-.741.705A17,17,0,1,0,0,16.654,17,17,0,0,0,4.937,28.61l.741-.705.705-.741a14.9,14.9,0,1,1,21.072.018,14.953,14.953,0,0,1-21.072-.018Z" transform="translate(0 0.37)" fill="#505050"/>
          <path id="Path_7054" data-name="Path 7054" d="M22.884,35.58l-.741.705a10.051,10.051,0,0,0,7.195,3,10.192,10.192,0,1,0-7.195-3l.741-.705.705-.705a8.182,8.182,0,1,1,5.749,2.363,8.076,8.076,0,0,1-5.749-2.363Z" transform="translate(-12.409 -12.102)" fill="#505050"/>
          <path id="Path_7055" data-name="Path 7055" d="M64.646,9.4,60.66,13.384a2.786,2.786,0,0,0,0,3.985,2.821,2.821,0,0,0,3.985,0l3.985-3.985A2.821,2.821,0,1,0,64.646,9.4" transform="translate(-38.724 -5.353)" fill="#00bed6"/>
          <path id="Path_7056" data-name="Path 7056" d="M13.746,60.659,9.76,64.644a2.818,2.818,0,1,0,3.985,3.985l3.985-3.985a2.821,2.821,0,0,0-3.985-3.985" transform="translate(-5.775 -38.663)" fill="#00bed6"/>
          <path id="Path_7057" data-name="Path 7057" d="M9.688,13.546l3.985,3.985a2.821,2.821,0,0,0,3.985,0,2.786,2.786,0,0,0,.035-3.985L13.673,9.56a2.786,2.786,0,0,0-3.985,0,2.821,2.821,0,0,0,0,3.985" transform="translate(-5.738 -5.515)" fill="#00bed6"/>
          <path id="Path_7058" data-name="Path 7058" d="M60.595,64.447l4.02,3.985A2.821,2.821,0,0,0,68.6,64.447l-3.985-3.985a2.83,2.83,0,1,0-4.02,3.985" transform="translate(-38.693 -38.466)" fill="#00bed6"/>
        </g>
      </g>
    </g>
  </g>
</svg>
