<svg xmlns="http://www.w3.org/2000/svg" viewBox="0 0 95.4 96"><defs><style>.cls-1{fill:#505050;}</style></defs><g id="Layer_2" data-name="Layer 2"><g id="Layer_117" data-name="Layer 117"><polygon class="cls-1" points="67.3 51.8 67.3 5.2 0 5.2 0 85.2 37.8 85.2 37.8 78.1 7.2 78.1 7.2 12.3 60.1 12.3 60.1 51.8 67.3 51.8 67.3 51.8"/><polyline class="cls-1" points="13.5 54.6 38.6 54.6 38.6 47.4 13.5 47.4"/><polyline class="cls-1" points="10 0 10 18.7 17.1 18.7 17.1 0"/><polyline class="cls-1" points="47.8 0 47.8 18.7 55 18.7 55 0"/><polyline class="cls-1" points="13.5 65.3 38.6 65.3 38.6 58.2 13.5 58.2"/><polyline class="cls-1" points="13.5 44.2 51.4 44.2 51.4 37 13.5 37"/><polyline class="cls-1" points="13.5 33.9 51.4 33.9 51.4 26.7 13.5 26.7"/><polygon class="cls-1" points="62.1 92.4 62.1 88.8 54.2 88.8 54.2 82.7 80.5 56.5 85.5 61.5 59.5 90 62.1 92.4 62.1 88.8 62.1 92.4 64.8 94.8 95.4 61.2 80.5 46.3 47 79.8 47 96 63.7 96 64.8 94.8 62.1 92.4"/></g></g></svg>