<?xml version="1.0" encoding="utf-8"?>
<!-- Generator: Adobe Illustrator 24.3.0, SVG Export Plug-In . SVG Version: 6.00 Build 0)  -->
<svg version="1.1" id="Layer_1" xmlns="http://www.w3.org/2000/svg" xmlns:xlink="http://www.w3.org/1999/xlink" x="0px" y="0px"
	 viewBox="0 0 25 25" style="enable-background:new 0 0 25 25;" xml:space="preserve">
<style type="text/css">
	.st0{fill:#4F4F4F;}
</style>
<g>
	<path class="st0" d="M22.34,5.74c-0.84,0.84-2.21,0.84-3.05,0c-0.84-0.85-0.84-2.22,0-3.06c0.41-0.41,0.95-0.63,1.52-0.63
		c0.58,0,1.12,0.22,1.52,0.63C23.17,3.52,23.17,4.9,22.34,5.74 M16.23,15.54L9.55,8.82c1.83-0.41,5.73-1.56,7.78-3.19
		c0.19,0.48,0.46,0.91,0.81,1.26c0.35,0.35,0.77,0.63,1.26,0.82C17.78,9.77,16.63,13.7,16.23,15.54 M15.61,18.77
		c-0.46,0.46-1.21,0.46-1.67,0l-7.61-7.65c-0.46-0.46-0.46-1.21,0-1.67C6.56,9.22,6.86,9.1,7.16,9.1c0.3,0,0.6,0.11,0.83,0.35
		l7.61,7.65C16.06,17.56,16.06,18.31,15.61,18.77 M23.42,1.59c-0.7-0.7-1.62-1.08-2.61-1.08h0c-0.99,0-1.91,0.39-2.61,1.09
		c-0.67,0.68-1.04,1.57-1.07,2.52c-0.27,0.04-0.54,0.14-0.76,0.31c-2.03,1.62-6.69,2.87-7.82,3.02C8.32,7.48,8.12,7.57,7.94,7.68
		c-0.92-0.28-1.97-0.06-2.7,0.67c-1.06,1.06-1.06,2.79,0,3.86l7.61,7.65c0.53,0.53,1.22,0.8,1.92,0.8c0.69,0,1.39-0.27,1.92-0.8
		c0.73-0.73,0.94-1.78,0.67-2.71c0.12-0.18,0.21-0.39,0.24-0.61v0c0.16-1.14,1.4-5.82,3.01-7.87c0.17-0.22,0.27-0.49,0.31-0.76
		c0.91-0.02,1.82-0.38,2.51-1.07C24.86,5.39,24.86,3.03,23.42,1.59"/>
	<path class="st0" d="M7.78,17.33c-0.3-0.3-0.79-0.3-1.09,0l-2.97,2.98c-0.3,0.3-0.3,0.79,0,1.09c0.15,0.15,0.35,0.23,0.54,0.23
		c0.2,0,0.39-0.07,0.54-0.23l2.97-2.98C8.08,18.12,8.08,17.64,7.78,17.33"/>
	<path class="st0" d="M6.15,14.76c-0.17-0.39-0.61-0.58-1.01-0.41l-4.17,1.77c-0.39,0.17-0.57,0.62-0.41,1.01
		c0.12,0.3,0.41,0.47,0.71,0.47c0.1,0,0.2-0.02,0.3-0.06l4.17-1.77C6.13,15.6,6.31,15.15,6.15,14.76"/>
	<path class="st0" d="M10.46,18.82c-0.39-0.16-0.84,0.02-1.01,0.41L7.7,23.43c-0.16,0.39,0.02,0.85,0.41,1.01
		c0.1,0.04,0.2,0.06,0.3,0.06c0.3,0,0.59-0.18,0.71-0.47l1.76-4.19C11.03,19.44,10.85,18.99,10.46,18.82"/>
</g>
</svg>
