<?xml version="1.0" encoding="utf-8"?>
<!-- Generator: Adobe Illustrator 24.2.3, SVG Export Plug-In . SVG Version: 6.00 Build 0)  -->
<svg version="1.1" id="Layer_1" xmlns="http://www.w3.org/2000/svg" xmlns:xlink="http://www.w3.org/1999/xlink" x="0px" y="0px"
	 viewBox="0 0 48 31" style="enable-background:new 0 0 48 31;" xml:space="preserve">
<style type="text/css">
	.st0{fill:#F44C7F;}
	.st1{fill:#FFF;stroke:#F44C7F;stroke-width:1.723;stroke-linecap:round;stroke-linejoin:round;stroke-miterlimit:10;}
	.st2{fill:#FFF;stroke:#F44C7F;stroke-width:0.431;stroke-miterlimit:10;}
</style>
<g>
	<path class="st0" d="M15.6,0.45c-8.28,0-15,6.72-15,15c0,8.29,6.72,15,15,15s15-6.72,15-15C30.6,7.17,23.88,0.45,15.6,0.45
		 M15.6,2.47c7.16,0,12.98,5.82,12.98,12.98c0,7.16-5.82,12.98-12.98,12.98S2.62,22.61,2.62,15.45C2.62,8.3,8.44,2.47,15.6,2.47"/>
	<path class="st0" d="M13.22,13.61c0,1.15-0.93,2.08-2.08,2.08c-1.15,0-2.08-0.93-2.08-2.08c0-1.15,0.93-2.08,2.08-2.08
		C12.29,11.53,13.22,12.46,13.22,13.61"/>
	<path class="st0" d="M22.14,13.61c0,1.15-0.93,2.08-2.08,2.08c-1.15,0-2.08-0.93-2.08-2.08c0-1.15,0.93-2.08,2.08-2.08
		C21.21,11.53,22.14,12.46,22.14,13.61"/>
	<path class="st1" d="M10.92,5.03c1.62,1.7,5.97,5.22,13.89,4.71 M10.03,20.46c0.66,2.43,2.88,4.22,5.53,4.22
		c2.65,0,4.88-1.79,5.54-4.22"/>
	<path class="st0" d="M47.19,20.12c0-5.31-4.31-9.62-9.63-9.62c-1.84,0-3.55,0.52-5.01,1.41c0.1,0.46,0.16,0.94,0.22,1.41
		c1.36-0.96,3-1.53,4.79-1.53c4.59,0,8.33,3.73,8.33,8.33s-3.74,8.33-8.33,8.33c-3.04,0-5.67-1.65-7.13-4.08
		c-0.25,0.42-0.51,0.82-0.8,1.21c1.74,2.51,4.64,4.16,7.93,4.16C42.88,29.74,47.19,25.43,47.19,20.12"/>
	<path class="st2" d="M47.19,20.12c0-5.31-4.31-9.62-9.63-9.62c-1.84,0-3.55,0.52-5.01,1.41c0.1,0.46,0.16,0.94,0.22,1.41
		c1.36-0.96,3-1.53,4.79-1.53c4.59,0,8.33,3.73,8.33,8.33s-3.74,8.33-8.33,8.33c-3.04,0-5.67-1.65-7.13-4.08
		c-0.25,0.42-0.51,0.82-0.8,1.21c1.74,2.51,4.64,4.16,7.93,4.16C42.88,29.74,47.19,25.43,47.19,20.12z"/>
	<path class="st0" d="M36.05,19.79c0,0.74-0.6,1.33-1.33,1.33c-0.74,0-1.33-0.6-1.33-1.33s0.6-1.33,1.33-1.33
		C35.45,18.45,36.05,19.05,36.05,19.79"/>
	<path class="st0" d="M41.75,19.79c0,0.74-0.6,1.33-1.33,1.33c-0.74,0-1.33-0.6-1.33-1.33s0.6-1.33,1.33-1.33
		C41.15,18.45,41.75,19.05,41.75,19.79"/>
	<path class="st1" d="M34.61,12.32c1.04,1.09,3.77,4.38,8.89,4.05 M33.96,23.26c0.43,1.56,1.86,2.71,3.57,2.71
		c1.71,0,3.15-1.15,3.58-2.71"/>
</g>
</svg>
