<?xml version="1.0" encoding="utf-8"?>
<!-- Generator: Adobe Illustrator 24.2.3, SVG Export Plug-In . SVG Version: 6.00 Build 0)  -->
<svg version="1.1" id="Layer_1" xmlns="http://www.w3.org/2000/svg" xmlns:xlink="http://www.w3.org/1999/xlink" x="0px" y="0px"
	 viewBox="0 0 25 25" style="enable-background:new 0 0 25 25;" xml:space="preserve">
<style type="text/css">
	.st0{fill:none;stroke:#95C93D;stroke-width:1.5;}
	.st1{fill:#95C93D;}
</style>
<g>
	<circle class="st0" cx="12.5" cy="12.5" r="11.25"/>
	<path class="st1" d="M16.69,14.31c0,1.72-1.3,2.66-3,2.9v2.12h-2v-2.15c-1.25-0.2-2.5-0.7-3.41-1.41l1.05-2.12
		c0.97,0.82,2.54,1.44,3.51,1.44c0.59,0,0.97-0.2,0.97-0.63c0-1.43-4.92-0.52-4.92-3.84c0-1.52,1.07-2.57,2.81-2.87V5.67h2V7.7
		c1.13,0.13,2.22,0.51,3.02,1.03l-1.03,2.15c-0.97-0.55-2.34-1.05-3.13-1.05c-0.47,0-0.78,0.16-0.78,0.51
		C11.77,11.73,16.69,10.91,16.69,14.31"/>
</g>
</svg>
