<svg id="Web_Icons" data-name="Web Icons" xmlns="http://www.w3.org/2000/svg" width="26.811" height="34" viewBox="0 0 26.811 34">
  <g id="H11" transform="translate(0 0)">
    <g id="Layer_163" data-name="Layer 163">
      <rect id="Rectangle_300" data-name="Rectangle 300" width="10.317" height="2.123" transform="translate(7.907 16.283)" fill="#00bed6"/>
      <rect id="Rectangle_301" data-name="Rectangle 301" width="10.317" height="2.123" transform="translate(7.907 13.336)" fill="#00bed6"/>
      <rect id="Rectangle_302" data-name="Rectangle 302" width="6.855" height="2.123" transform="translate(7.876 19.194)" fill="#00bed6"/>
      <rect id="Rectangle_303" data-name="Rectangle 303" width="6.855" height="2.123" transform="translate(7.876 22.104)" fill="#00bed6"/>
      <path id="Path_7221" data-name="Path 7221" d="M18.9,3.312a2.234,2.234,0,0,0-1.631-.78h-.035a4.256,4.256,0,0,0-7.66,0H9.54a2.234,2.234,0,0,0-1.631.78H0V34.131H26.811V3.312ZM9.54,5.44V4.695h.816a1.064,1.064,0,0,0,1.064-.851,1.206,1.206,0,0,1,.213-.532,2.057,2.057,0,0,1,3.546,0,1.206,1.206,0,0,1,.213.532,1.064,1.064,0,0,0,1.064.851h.816V7.532H9.54ZM8.547,9.7a2.412,2.412,0,0,0,.993.248h7.731a2.412,2.412,0,0,0,.993-.248h2.447V21.221l-6.561,6.526H6.1V9.7Zm16.1,22.272H2.163V5.44H7.412V7.532H3.972V29.91H15.037l7.8-7.8V7.532H19.4V5.44h5.249Z" transform="translate(0 -0.131)" fill="#505050"/>
      <path id="Path_7222" data-name="Path 7222" d="M35.915,7.2a1.014,1.014,0,1,0,1.014.979A1.014,1.014,0,0,0,35.915,7.2Z" transform="translate(-22.51 -4.728)" fill="#505050"/>
    </g>
  </g>
</svg>
