<svg xmlns="http://www.w3.org/2000/svg" width="39.806" height="34" viewBox="0 0 39.806 34">
  <g id="Group_7602" data-name="Group 7602" transform="translate(-5936.367 701.712)">
    <g id="Group_7572" data-name="Group 7572" transform="translate(5936.367 -701.712)">
      <g id="Group_7571" data-name="Group 7571" transform="translate(0 0)">
        <path id="Path_7155" data-name="Path 7155" d="M459.1,372.179l-.027-.149c0-.024-.007-.046-.012-.069l-2.792-6.742V361.9H422.2v3.317l-2.745,6.742c-.006.026-.01.054-.015.079l-.025.139a4.785,4.785,0,0,0-.057.74,4.735,4.735,0,0,0,2.488,4.171V395.9h34.83V377.09a4.737,4.737,0,0,0,2.488-4.171A4.9,4.9,0,0,0,459.1,372.179Zm-1.875-.325h-6.093l-.733-4.925h4.821Zm-33.371-8.293h30.757v1.658H423.855Zm25.848,9.952.09.6-.491.653a3.079,3.079,0,0,1-4.929,0l-.5-.667-.029-.588Zm-5.941-1.658-.242-4.925h5.2l.733,4.925Zm-1.58,1.658h0l.03.6-.492.653a3.08,3.08,0,0,1-4.93,0l-.5-.671.03-.584Zm-5.782-1.658.249-4.925h5.211l.241,4.925Zm-7.336,0,.724-4.925h5.2l-.25,4.925Zm5.59,1.658-.031.608-.486.646a3.08,3.08,0,0,1-4.93,0l-.478-.637.091-.617Zm-11.365-6.583h4.822l-.724,4.925h-6.1Zm-2.222,6.583h6.076l-.13.644-.458.61a3.081,3.081,0,0,1-5.488-1.254ZM451.7,394.245h-6.635v-5.807h.83a.828.828,0,1,0,0-1.657h-.83v-5.807H451.7Zm3.316,0h-1.658V379.318H443.4v14.927H423.5V377.621a4.731,4.731,0,0,0,4.383-1.858,4.739,4.739,0,0,0,7.583,0,4.737,4.737,0,0,0,7.581,0,4.739,4.739,0,0,0,7.583,0,4.729,4.729,0,0,0,4.382,1.858v16.624ZM454.419,376a3.057,3.057,0,0,1-2.464-1.233l-.482-.64-.093-.614h6.061A3.082,3.082,0,0,1,454.419,376Z" transform="translate(-419.353 -361.902)" fill="#505050"/>
      </g>
    </g>
    <g id="Group_7576" data-name="Group 7576" transform="translate(5941.878 -682.927)">
      <g id="Group_7575" data-name="Group 7575" transform="translate(0 0)">
        <path id="Path_7160" data-name="Path 7160" d="M441.147,386.961l-3.77-3.77a.539.539,0,0,0-.92.38v1.616h-3.77a.539.539,0,0,0,0,1.077H437a.539.539,0,0,0,.539-.538v-.855l2.47,2.471-2.47,2.47v-.855a.539.539,0,0,0-.539-.538h-5.924V386.8a.539.539,0,0,0-.92-.38l-3.77,3.77a.538.538,0,0,0,0,.762l3.77,3.77a.539.539,0,0,0,.381.158.529.529,0,0,0,.206-.041.537.537,0,0,0,.332-.5v-1.616h3.77a.539.539,0,0,0,0-1.078h-4.308a.539.539,0,0,0-.539.538v.854l-2.47-2.47,2.47-2.47v.854a.539.539,0,0,0,.539.539h5.924v1.616a.539.539,0,0,0,.92.38l3.77-3.77A.538.538,0,0,0,441.147,386.961Z" transform="translate(-426.224 -383.033)" fill="#00bed6" stroke="#00bed6" stroke-miterlimit="10" stroke-width="0.567"/>
      </g>
    </g>
  </g>
</svg>
