<svg xmlns="http://www.w3.org/2000/svg" xmlns:xlink="http://www.w3.org/1999/xlink" width="34" height="34" viewBox="0 0 34 34">
  <defs>
    <clipPath id="clip-path">
      <rect id="Rectangle_417" data-name="Rectangle 417" width="34" height="34" fill="none"/>
    </clipPath>
  </defs>
  <g id="Group_8104" data-name="Group 8104" transform="translate(-135.235 -123.555)">
    <g id="Group_8100" data-name="Group 8100" transform="translate(135.235 123.555)">
      <g id="Group_8099" data-name="Group 8099" transform="translate(0 0)">
        <g id="Group_8098" data-name="Group 8098" transform="translate(0 0)" clip-path="url(#clip-path)">
          <path id="Path_7374" data-name="Path 7374" d="M157.469,145.77h0Zm-5.35-11.78a6.431,6.431,0,1,0,4.548,1.883,6.412,6.412,0,0,0-4.548-1.883m0,15.124a8.693,8.693,0,1,1,6.152-2.542,8.671,8.671,0,0,1-6.152,2.542m-6.44.736a2.373,2.373,0,0,1,1.141.291,11.057,11.057,0,0,0,2.082.874,2.394,2.394,0,0,1,1.7,2.168l.089,1.889a.115.115,0,0,0,.115.109h2.526a.113.113,0,0,0,.115-.109l.089-1.859a2.394,2.394,0,0,1,1.719-2.176,11.053,11.053,0,0,0,2.088-.856,2.39,2.39,0,0,1,2.728.333l1.4,1.274a.113.113,0,0,0,.156,0L163.416,150a.117.117,0,0,0,0-.16l-1.25-1.377a2.383,2.383,0,0,1-.328-2.745,11.1,11.1,0,0,0,.873-2.08,2.394,2.394,0,0,1,2.17-1.7l1.887-.091a.114.114,0,0,0,.111-.115V139.2a.115.115,0,0,0-.111-.115L164.913,139a2.394,2.394,0,0,1-2.176-1.719,10.917,10.917,0,0,0-.857-2.086,2.391,2.391,0,0,1,.336-2.73l1.272-1.4a.114.114,0,0,0,0-.159l-1.784-1.785a.117.117,0,0,0-.162,0l-1.377,1.252a2.383,2.383,0,0,1-2.745.326,11.177,11.177,0,0,0-2.079-.871,2.4,2.4,0,0,1-1.7-2.17l-.091-1.887a.115.115,0,0,0-.115-.111H150.9a.115.115,0,0,0-.115.111l-.088,1.858a2.4,2.4,0,0,1-1.719,2.176,10.871,10.871,0,0,0-2.086.856,2.387,2.387,0,0,1-2.729-.335l-1.4-1.273a.115.115,0,0,0-.159,0l-1.785,1.788a.116.116,0,0,0-.006.159l1.253,1.377a2.385,2.385,0,0,1,.326,2.746,11.056,11.056,0,0,0-.871,2.079,2.4,2.4,0,0,1-2.17,1.7l-1.889.091a.113.113,0,0,0-.109.115v2.525a.112.112,0,0,0,.108.115l1.86.089a2.393,2.393,0,0,1,2.176,1.72,10.952,10.952,0,0,0,.857,2.086,2.388,2.388,0,0,1-.336,2.728l-1.273,1.4a.116.116,0,0,0,0,.158l1.788,1.787a.114.114,0,0,0,.159,0l1.378-1.25a2.378,2.378,0,0,1,1.6-.619m7.653,7.6h-2.526a2.378,2.378,0,0,1-2.38-2.269l-.089-1.887a.123.123,0,0,0-.092-.108,13.383,13.383,0,0,1-2.512-1.053.116.116,0,0,0-.132.014l-1.378,1.253a2.38,2.38,0,0,1-3.288-.079l-1.785-1.787a2.375,2.375,0,0,1-.078-3.287l1.273-1.4a.118.118,0,0,0,.014-.132,13.18,13.18,0,0,1-1.033-2.515.126.126,0,0,0-.108-.1l-1.859-.088a2.38,2.38,0,0,1-2.269-2.381v-2.525a2.38,2.38,0,0,1,2.271-2.381l1.887-.089a.123.123,0,0,0,.106-.094,13.342,13.342,0,0,1,1.053-2.509.113.113,0,0,0-.016-.133l-1.252-1.377a2.38,2.38,0,0,1,.079-3.29L141,127.45a2.38,2.38,0,0,1,3.288-.078l1.4,1.272a.116.116,0,0,0,.132.014,13.509,13.509,0,0,1,2.516-1.032.123.123,0,0,0,.1-.108l.088-1.859a2.383,2.383,0,0,1,2.381-2.269h2.526a2.378,2.378,0,0,1,2.38,2.271l.091,1.886a.12.12,0,0,0,.094.106,13.323,13.323,0,0,1,2.508,1.054.115.115,0,0,0,.133-.014l1.378-1.253a2.38,2.38,0,0,1,3.288.079l1.785,1.784a2.383,2.383,0,0,1,.081,3.29l-1.273,1.4a.114.114,0,0,0-.017.129,13.152,13.152,0,0,1,1.033,2.519.124.124,0,0,0,.111.094l1.858.089a2.38,2.38,0,0,1,2.269,2.38v2.526a2.38,2.38,0,0,1-2.271,2.381l-1.887.091a.118.118,0,0,0-.106.091,13.318,13.318,0,0,1-1.053,2.51.111.111,0,0,0,.014.132l1.252,1.378a2.383,2.383,0,0,1-.078,3.29l-1.787,1.784a2.376,2.376,0,0,1-3.288.079l-1.4-1.272a.118.118,0,0,0-.131-.017,13.074,13.074,0,0,1-2.519,1.033.128.128,0,0,0-.094.111l-.088,1.858a2.38,2.38,0,0,1-2.381,2.269" transform="translate(-135.235 -123.555)" fill="#505050"/>
        </g>
      </g>
    </g>
    <path id="Path_7375" data-name="Path 7375" d="M155.008,143.308h0Zm-5.35-11.78a6.431,6.431,0,1,0,4.548,1.883,6.412,6.412,0,0,0-4.548-1.883m0,15.124a8.693,8.693,0,1,1,6.152-2.542,8.671,8.671,0,0,1-6.152,2.542" transform="translate(2.462 2.462)" fill="#00bed6"/>
  </g>
</svg>
