<svg xmlns="http://www.w3.org/2000/svg" width="33.5" height="33.5" viewBox="0 0 33.5 33.5">
  <g id="Done_Action" data-name="Done Action" transform="translate(0.75 0.75)">
    <path id="_31x31px" data-name="31x31px" d="M16,0A16,16,0,1,1,0,16,16,16,0,0,1,16,0Z" fill="#fff" stroke="#505050" stroke-width="1.5"/>
    <path id="Path_8734" data-name="Path 8734" d="M13.148,9.444a1.215,1.215,0,0,0-.817.335,1.131,1.131,0,0,0-.367.848v9.424a1.152,1.152,0,0,0,.367.848,1.215,1.215,0,0,0,1.518.1l6.419-4.733a1.2,1.2,0,0,0,0-1.906L13.807,9.685a1.162,1.162,0,0,0-.66-.241m0,13.917A3.278,3.278,0,0,1,9.87,20.093V10.669A3.278,3.278,0,0,1,13.148,7.36a3.236,3.236,0,0,1,1.9.67l6.419,4.723a3.288,3.288,0,0,1,0,5.236l-6.419,4.7a3.236,3.236,0,0,1-1.937.639" transform="translate(0.685 0.64)" fill="#505050" stroke="#505050" stroke-width="1"/>
  </g>
</svg>
