<svg id="Ticket_Note" data-name="Ticket Note" xmlns="http://www.w3.org/2000/svg" width="19.875" height="20" viewBox="0 0 19.875 20">
  <path id="Path_7427" data-name="Path 7427" d="M14.021,14.908V5.2H0V21.867H7.875V20.388H1.5V6.679H12.521v8.229Z" transform="translate(0 -4.117)" fill="#505050"/>
  <path id="Path_7428" data-name="Path 7428" d="M13.5,48.9h5.229V47.4H13.5" transform="translate(-10.688 -37.525)" fill="#505050"/>
  <path id="Path_7429" data-name="Path 7429" d="M10,0V3.9h1.479V0" transform="translate(-7.917)" fill="#505050"/>
  <path id="Path_7430" data-name="Path 7430" d="M47.8,0V3.9h1.5V0" transform="translate(-37.842)" fill="#505050"/>
  <path id="Path_7431" data-name="Path 7431" d="M13.5,59.679h5.229V58.2H13.5" transform="translate(-10.688 -46.075)" fill="#505050"/>
  <path id="Path_7432" data-name="Path 7432" d="M13.5,38.5h7.9V37H13.5" transform="translate(-10.688 -29.292)" fill="#505050"/>
  <path id="Path_7433" data-name="Path 7433" d="M13.5,28.2h7.9V26.7H13.5" transform="translate(-10.688 -21.138)" fill="#505050"/>
  <path id="Path_7434" data-name="Path 7434" d="M50.146,55.9v-.75H48.5V53.883l5.479-5.458,1.042,1.042L49.6,55.4l.542.5v0l.562.5,6.375-7-3.1-3.1L47,53.279v3.375h3.479l.229-.25Z" transform="translate(-37.208 -36.654)" fill="#505050"/>
</svg>
