<svg xmlns="http://www.w3.org/2000/svg" width="34.001" height="34" viewBox="0 0 34.001 34">
  <g id="Work_Schedule" data-name="Work Schedule" transform="translate(-369.485 -361.931)">
    <rect id="Rectangle_441" data-name="Rectangle 441" width="2.706" height="2.706" transform="translate(385.132 377.172)" fill="#505050"/>
    <path id="Path_7450" data-name="Path 7450" d="M373.225,395.931a3.744,3.744,0,0,1-3.74-3.739V368.376a3.744,3.744,0,0,1,3.74-3.739h1.943v-2.706h2.067v2.706h18.5v-2.706H397.8v2.706h1.945a3.744,3.744,0,0,1,3.739,3.739v13.455l-.25.057a6.792,6.792,0,0,0-1.765-2.152l-.05-.039V374.01H371.552v18.182a1.675,1.675,0,0,0,1.673,1.674h14.055l.039.05a6.37,6.37,0,0,0,2.171,1.763l-.052.252Zm28.2-23.987v-3.568a1.676,1.676,0,0,0-1.673-1.674H397.8v2.706h-2.064V366.7h-18.5v2.706h-2.067V366.7h-1.943a1.675,1.675,0,0,0-1.673,1.674v3.568Z" fill="#505050"/>
    <path id="Path_7451" data-name="Path 7451" d="M397.033,398.247a8.77,8.77,0,1,1,8.768-8.77A8.779,8.779,0,0,1,397.033,398.247Zm0-15.562a6.792,6.792,0,1,0,6.792,6.792A6.8,6.8,0,0,0,397.033,382.686Z" transform="translate(-2.36 -2.36)" fill="#00bed6"/>
    <path id="Path_7452" data-name="Path 7452" d="M397.185,392.084V387.1h1.8v3.18h2.3v1.8Z" transform="translate(-3.482 -3.164)" fill="#00bed6"/>
    <rect id="Rectangle_442" data-name="Rectangle 442" width="2.706" height="2.706" transform="translate(379.72 382.585)" fill="#505050"/>
    <rect id="Rectangle_443" data-name="Rectangle 443" width="2.706" height="2.706" transform="translate(374.307 382.585)" fill="#505050"/>
    <rect id="Rectangle_444" data-name="Rectangle 444" width="2.706" height="2.706" transform="translate(374.307 377.172)" fill="#505050"/>
    <rect id="Rectangle_445" data-name="Rectangle 445" width="2.706" height="2.706" transform="translate(374.307 387.997)" fill="#505050"/>
    <rect id="Rectangle_446" data-name="Rectangle 446" width="2.706" height="2.706" transform="translate(379.72 377.172)" fill="#505050"/>
    <rect id="Rectangle_447" data-name="Rectangle 447" width="2.706" height="2.706" transform="translate(379.72 387.997)" fill="#505050"/>
  </g>
</svg>
