<?xml version="1.0" encoding="utf-8"?>
<!-- Generator: Adobe Illustrator 24.2.3, SVG Export Plug-In . SVG Version: 6.00 Build 0)  -->
<svg version="1.1" id="Layer_1" xmlns="http://www.w3.org/2000/svg" xmlns:xlink="http://www.w3.org/1999/xlink" x="0px" y="0px"
	 viewBox="0 0 31 31" style="enable-background:new 0 0 31 31;" xml:space="preserve">
<style type="text/css">
	.st0{fill:#505050;}
	.st1{fill:none;stroke:#505050;stroke-width:2;stroke-linecap:round;stroke-linejoin:round;stroke-miterlimit:10;}
</style>
<g>
	<path class="st0" d="M15.5,0.5c-8.28,0-15,6.72-15,15c0,8.29,6.72,15,15,15s15-6.72,15-15C30.5,7.22,23.78,0.5,15.5,0.5 M15.5,2.52
		c7.16,0,12.98,5.82,12.98,12.98c0,7.16-5.82,12.98-12.98,12.98S2.52,22.66,2.52,15.5C2.52,8.34,8.34,2.52,15.5,2.52"/>
	<path class="st0" d="M13.12,13.66c0,1.15-0.93,2.08-2.08,2.08c-1.15,0-2.08-0.93-2.08-2.08c0-1.15,0.93-2.08,2.08-2.08
		C12.19,11.57,13.12,12.51,13.12,13.66"/>
	<path class="st0" d="M22.04,13.66c0,1.15-0.93,2.08-2.08,2.08c-1.15,0-2.08-0.93-2.08-2.08c0-1.15,0.93-2.08,2.08-2.08
		C21.11,11.57,22.04,12.51,22.04,13.66"/>
	<path class="st1" d="M10.94,5.22c1.59,1.67,5.86,5.15,13.63,4.64 M10.07,20.43c0.65,2.4,2.83,4.16,5.43,4.16
		c2.6,0,4.78-1.76,5.43-4.16"/>
</g>
</svg>
