<?xml version="1.0" encoding="utf-8"?>
<!-- Generator: Adobe Illustrator 24.0.1, SVG Export Plug-In . SVG Version: 6.00 Build 0)  -->
<svg version="1.1" id="Layer_1" xmlns="http://www.w3.org/2000/svg" xmlns:xlink="http://www.w3.org/1999/xlink" x="0px" y="0px"
	 viewBox="0 0 31 31" style="enable-background:new 0 0 31 31;" xml:space="preserve">
<style type="text/css">
	.st0{clip-path:url(#SVGID_2_);fill:none;stroke:#505050;stroke-width:2.5;stroke-linecap:round;stroke-miterlimit:10;}
	.st1{clip-path:url(#SVGID_2_);fill:#FFFFFF;}
	.st2{clip-path:url(#SVGID_2_);fill:none;stroke:#505050;stroke-width:2;stroke-miterlimit:10;}
	.st3{fill:none;stroke:#505050;stroke-width:2;stroke-linecap:round;stroke-miterlimit:10;}
</style>
<g>
	<defs>
		<rect id="SVGID_1_" width="31" height="31"/>
	</defs>
	<clipPath id="SVGID_2_">
		<use xlink:href="#SVGID_1_"  style="overflow:visible;"/>
	</clipPath>
	<path class="st0" d="M26.19,9.27h1.64c0.78,0,1.42,0.64,1.42,1.43v17.12c0,0.79-0.63,1.43-1.42,1.43H3.17
		c-0.78,0-1.42-0.64-1.42-1.43V10.7c0-0.79,0.63-1.43,1.42-1.43h1.48"/>
	<path class="st1" d="M23.82,10.05c0,4.72-3.77,8.55-8.42,8.55c-4.65,0-8.42-3.83-8.42-8.55S10.75,1.5,15.4,1.5
		C20.05,1.5,23.82,5.33,23.82,10.05"/>
	<path class="st2" d="M23.82,10.05c0,4.72-3.77,8.55-8.42,8.55c-4.65,0-8.42-3.83-8.42-8.55S10.75,1.5,15.4,1.5
		C20.05,1.5,23.82,5.33,23.82,10.05z"/>
</g>
<line class="st3" x1="15.4" y1="5.47" x2="15.4" y2="14.64"/>
<line class="st3" x1="15.72" y1="5.47" x2="19.15" y2="7.72"/>
<line class="st3" x1="11.65" y1="7.72" x2="15.08" y2="5.47"/>
</svg>
