<?xml version="1.0" encoding="UTF-8"?><svg xmlns="http://www.w3.org/2000/svg" viewBox="0 0 24 24"><defs><style>.n{fill:#fff;}.o{fill:#505050;}</style></defs><g id="a"><g id="b"/></g><g id="c"/><g id="d"/><g id="e"/><g id="f"/><g id="g"><path class="n" d="M12.16,.3C6.78,.21,2.34,4.49,2.24,9.87c.06,4.58,3.33,8.5,7.83,9.37l2.1,3.24,2.1-3.24c4.5-.87,7.76-4.79,7.82-9.37C21.99,4.49,17.54,.21,12.16,.3Z"/><g><path class="o" d="M14.21,10.42l2.78-2.78c.57-.57,.57-1.49,0-2.06s-1.49-.57-2.06,0l-2.78,2.78-2.78-2.77c-.57-.57-1.49-.57-2.06,0s-.57,1.49,0,2.06l2.78,2.77-2.97,2.97c-.57,.57-.57,1.49,0,2.06,.29,.29,.66,.43,1.03,.43s.75-.14,1.03-.43l2.97-2.97,2.97,2.97c.29,.29,.66,.43,1.03,.43s.75-.14,1.03-.43c.57-.57,.57-1.49,0-2.06l-2.97-2.97Z"/><path class="o" d="M16.21,.85C12.15-.84,7.74,.02,4.71,3.09c-4.11,4.16-4.06,10.89,.1,14.99,1.23,1.22,2.76,2.12,4.41,2.61l1.34,2.32c.33,.57,.94,.93,1.6,.93h.01c.67,0,1.29-.36,1.62-.94l1.33-2.31c4.47-1.31,7.6-5.47,7.61-10.14,.04-4.3-2.46-8.02-6.52-9.7Zm1.83,15.58c-1.08,1.08-2.44,1.84-3.92,2.2-.3,.07-.56,.27-.71,.53l-1.23,2.13-1.23-2.13c-.15-.27-.41-.46-.71-.53-4.47-1.12-7.19-5.66-6.08-10.12,.36-1.44,1.1-2.77,2.15-3.83,1.57-1.57,3.65-2.43,5.87-2.43h0c2.22,0,4.3,.87,5.87,2.44s2.43,3.66,2.43,5.87c0,2.22-.87,4.3-2.44,5.87Z"/></g></g><g id="h"/><g id="i"/><g id="j"/><g id="k"/><g id="l"/><g id="m"/></svg>