<svg id="check_2_" data-name="check (2)" xmlns="http://www.w3.org/2000/svg" width="41.542" height="41.542" viewBox="0 0 41.542 41.542">
  <path id="Path_7557" data-name="Path 7557" d="M20.771,0A20.771,20.771,0,1,0,39.828,29.033a20.435,20.435,0,0,0,1.714-8.262A20.794,20.794,0,0,0,20.771,0Zm0,37.765A16.994,16.994,0,1,1,37.765,20.771,17.014,17.014,0,0,1,20.771,37.765Z" fill="#93d500"/>
  <path id="Path_7558" data-name="Path 7558" d="M96.322,102.824,85.641,113.506l-4.9-4.9a1.888,1.888,0,1,0-2.67,2.67l6.231,6.231a1.888,1.888,0,0,0,1.335.553h0a1.889,1.889,0,0,0,1.335-.553l12.017-12.017a1.888,1.888,0,0,0-2.67-2.67Z" transform="translate(-67.763 -89.397)" fill="#93d500"/>
</svg>
