<svg xmlns="http://www.w3.org/2000/svg" width="34.996" height="34" viewBox="0 0 34.996 34">
  <g id="Clock_In_Tech" data-name="Clock In Tech" transform="translate(-612.55 -88.517)">
    <path id="Path_7047" data-name="Path 7047" d="M636.681,101.049a.319.319,0,0,0,.531-.212V98.073a.319.319,0,0,0-.319-.284h-2.762a.319.319,0,0,0-.212.531l.567.531-4.994,5.137-2.444-2.374.567-.531a.318.318,0,0,0-.248-.531l-2.763.071a.319.319,0,0,0-.284.319l.071,2.725a.319.319,0,0,0,.531.212l.531-.567,3.259,3.153a1.172,1.172,0,0,0,.815.319,1.066,1.066,0,0,0,.815-.355l5.809-5.916Z" transform="translate(-0.046 -0.036)" fill="#505050"/>
    <path id="Path_7048" data-name="Path 7048" d="M630.958,93.446a1.417,1.417,0,1,0-1.417,1.417,1.417,1.417,0,0,0,1.417-1.417Z" transform="translate(-0.061 -0.014)" fill="#505050"/>
    <path id="Path_7049" data-name="Path 7049" d="M628.124,117.843a1.417,1.417,0,1,0,1.417-1.417h0A1.417,1.417,0,0,0,628.124,117.843Z" transform="translate(-0.061 -0.11)" fill="#505050"/>
    <path id="Path_7050" data-name="Path 7050" d="M615.962,105.644a1.395,1.395,0,1,0,1.382-1.417A1.417,1.417,0,0,0,615.962,105.644Z" transform="translate(-0.013 -0.062)" fill="#505050"/>
    <path id="Path_7052" data-name="Path 7052" d="M636.325,107.314V105.65l-3.613,2.8,3.613,2.834v-1.7h11.3v-2.267Z" transform="translate(-0.079 -0.067)" fill="#04b3ce"/>
    <path id="Path_7398" data-name="Path 7398" d="M643.015,112.1a15,15,0,1,1,1.5-7.458h1.992a16.937,16.937,0,1,0-1.28,7.458Z" transform="translate(0 0)" fill="#505050"/>
  </g>
</svg>
