<svg xmlns="http://www.w3.org/2000/svg" xmlns:xlink="http://www.w3.org/1999/xlink" width="35.499" height="35.5" viewBox="0 0 35.499 35.5">
  <defs>
    <clipPath id="clip-path">
      <path id="Subtraction_2" data-name="Subtraction 2" d="M17.4,29.191H2.124A2.127,2.127,0,0,1,0,27.066V2.127A2.128,2.128,0,0,1,2.124,0h24.94a2.129,2.129,0,0,1,2.127,2.127V17.4a8.706,8.706,0,0,0-3.848-.885,8.841,8.841,0,0,0-8.831,8.831A8.719,8.719,0,0,0,17.4,29.19Z" fill="none" stroke="#3f3f3f" stroke-width="1.5"/>
    </clipPath>
  </defs>
  <g id="payroll" transform="translate(0.75 0.75)">
    <g id="Group_13516" data-name="Group 13516">
      <path id="Path_9280" data-name="Path 9280" d="M0,0H24.036V4.544H0Z" transform="translate(2.503 3.612)" fill="#505050"/>
      <path id="Path_8969" data-name="Path 8969" d="M6.072,14.263a2.219,2.219,0,1,1,2.22-2.218,2.219,2.219,0,0,1-2.22,2.218m0-5.711a3.492,3.492,0,1,0,3.492,3.492A3.5,3.5,0,0,0,6.072,8.552" transform="translate(0.184 3.238)" fill="#505050"/>
      <path id="Path_8970" data-name="Path 8970" d="M6.072,19.187a2.219,2.219,0,1,1,2.22-2.218,2.219,2.219,0,0,1-2.22,2.218m0-5.711a3.492,3.492,0,1,0,3.492,3.492,3.5,3.5,0,0,0-3.492-3.492" transform="translate(0.184 5.754)" fill="#505050"/>
      <path id="Path_8971" data-name="Path 8971" d="M11.427,14.263a2.219,2.219,0,1,1,2.22-2.218,2.219,2.219,0,0,1-2.22,2.218m0-5.711a3.492,3.492,0,1,0,3.492,3.492,3.5,3.5,0,0,0-3.492-3.492" transform="translate(2.922 3.238)" fill="#505050"/>
      <path id="Subtraction_1" data-name="Subtraction 1" d="M17.4,29.191H2.124A2.127,2.127,0,0,1,0,27.066V2.127A2.128,2.128,0,0,1,2.124,0h24.94a2.129,2.129,0,0,1,2.127,2.127V17.4a8.706,8.706,0,0,0-3.848-.885,8.841,8.841,0,0,0-8.831,8.831A8.719,8.719,0,0,0,17.4,29.19Z" fill="none" stroke="#505050" stroke-width="1.5"/>
      <g id="Mask_Group_2" data-name="Mask Group 2" clip-path="url(#clip-path)">
        <path id="Path_8972" data-name="Path 8972" d="M11.445,19.215a2.23,2.23,0,1,1,2.231-2.229,2.23,2.23,0,0,1-2.231,2.229m0-5.739a3.51,3.51,0,1,0,3.51,3.51,3.514,3.514,0,0,0-3.51-3.51" transform="translate(2.976 5.85)" fill="#505050"/>
        <path id="Path_8973" data-name="Path 8973" d="M16.8,14.291a2.23,2.23,0,1,1,2.231-2.229A2.23,2.23,0,0,1,16.8,14.291m0-5.739a3.51,3.51,0,1,0,3.51,3.51,3.514,3.514,0,0,0-3.51-3.51" transform="translate(5.754 3.297)" fill="#505050"/>
      </g>
      <g id="Group_13558" data-name="Group 13558" transform="translate(16.947 16.947)">
        <path id="Path_8977" data-name="Path 8977" d="M20.15,28.676a8.527,8.527,0,1,0-8.526-8.526A8.536,8.536,0,0,0,20.15,28.676Z" transform="translate(-11.624 -11.623)" fill="none" stroke="#00bed6" stroke-width="1.5"/>
        <path id="Path_8978" data-name="Path 8978" d="M22.358,20.976c0,1.53-1.159,2.366-2.665,2.581v1.886H17.914V23.532a6.82,6.82,0,0,1-3.035-1.254l.933-1.888a5.713,5.713,0,0,0,3.117,1.277c.527,0,.861-.179.861-.56,0-1.267-4.374-.466-4.374-3.417a2.638,2.638,0,0,1,2.5-2.556V13.3h1.779v1.8a6.446,6.446,0,0,1,2.688.92l-.92,1.911A6.953,6.953,0,0,0,18.679,17c-.419,0-.694.144-.694.455,0,1.231,4.372.5,4.372,3.524" transform="translate(-10.105 -10.843)" fill="#00bed6"/>
      </g>
    </g>
  </g>
</svg>
