<svg xmlns="http://www.w3.org/2000/svg" width="21" height="24" viewBox="0 0 21 24">
  <path id="Coppy" d="M59.464,0h-9a3.125,3.125,0,0,0-3,3l-.867.02A3,3,0,0,0,43.714,6V21a3.125,3.125,0,0,0,3,3h11.25a3.125,3.125,0,0,0,3-3h.75a3.125,3.125,0,0,0,3-3V6.018Zm-1.5,22.5H46.714a1.573,1.573,0,0,1-1.5-1.5V6a1.487,1.487,0,0,1,1.429-1.475l.821-.025V18a3.125,3.125,0,0,0,3,3h9A1.573,1.573,0,0,1,57.964,22.5Zm5.25-4.5a1.573,1.573,0,0,1-1.5,1.5H50.464a1.573,1.573,0,0,1-1.5-1.5V3a1.573,1.573,0,0,1,1.5-1.5h7.5c-.012,1.727,0,3.019,0,3.019a3.09,3.09,0,0,0,3,2.981h2.25ZM60.964,6c-.8,0-1.5-1.451-1.5-2.23V1.522L63.214,6Zm-1.5,4.514h-6.75a.749.749,0,1,0,0,1.5h6.75a.749.749,0,1,0,0-1.5Zm0,3.746h-6.75a.749.749,0,1,0,0,1.5h6.75a.749.749,0,1,0,0-1.5Z" transform="translate(-43.714)" fill="#505050"/>
</svg>
