<svg xmlns="http://www.w3.org/2000/svg" width="21.483" height="21.859" viewBox="0 0 21.483 21.859">
  <g id="Group_8124" data-name="Group 8124" transform="translate(-557.941 -91.562)">
    <g id="Group_8122" data-name="Group 8122" transform="translate(557.941 91.562)">
      <path id="Path_7382" data-name="Path 7382" d="M570.9,96.227h-7.961a.7.7,0,1,0,0,1.409H570.9a.7.7,0,0,0,0-1.409Z" transform="translate(-558.202 -91.845)" fill="#FFFFFF"/>
      <path id="Path_7383" data-name="Path 7383" d="M571.607,101.267a.7.7,0,0,0-.7-.7h-7.961a.7.7,0,1,0,0,1.409H570.9A.7.7,0,0,0,571.607,101.267Z" transform="translate(-558.202 -92.108)" fill="#FFFFFF"/>
      <path id="Path_7384" data-name="Path 7384" d="M569.755,105.6a.7.7,0,0,0-.7-.7h-6.109a.7.7,0,1,0,0,1.409h6.109A.7.7,0,0,0,569.755,105.6Z" transform="translate(-558.202 -92.371)" fill="#FFFFFF"/>
      <path id="Path_7385" data-name="Path 7385" d="M562.881,109.235a.707.707,0,0,0,0,1.409h5.456a.707.707,0,0,0,0-1.409Z" transform="translate(-558.202 -92.635)" fill="#FFFFFF"/>
      <path id="Path_7386" data-name="Path 7386" d="M575.054,91.622a.569.569,0,0,0-.245-.06H563.132a5.191,5.191,0,0,0-5.191,5.191v16.668h15.727a1.7,1.7,0,0,0,.7-.149,5.947,5.947,0,0,1-.833.066,5.865,5.865,0,0,1-3.718-1.325H559.35V96.753a3.786,3.786,0,0,1,3.782-3.782h10.841v8.6a5.883,5.883,0,0,1,1.409.28V96.644h2.979a.7.7,0,0,0,.7-.7A4.343,4.343,0,0,0,575.054,91.622Zm.363,3.613V93.082a2.953,2.953,0,0,1,2.153,2.153Z" transform="translate(-557.941 -91.562)" fill="#FFFFFF"/>
    </g>
    <g id="Group_8123" data-name="Group 8123" transform="translate(567.635 101.547)">
      <path id="Path_7387" data-name="Path 7387" d="M576.007,102.494a5.883,5.883,0,0,0-1.409-.28c-.147-.01-.293-.023-.442-.023a5.909,5.909,0,1,0,1.851.3Zm0,9.667a4.443,4.443,0,0,1-1.485.375c-.123.01-.24.037-.366.037a4.486,4.486,0,0,1,0-8.972,4.306,4.306,0,0,1,.442.045,4.464,4.464,0,0,1,1.409,8.516Z" transform="translate(-568.261 -102.192)" fill="#FFFFFF"/>
      <path id="Path_7388" data-name="Path 7388" d="M577,107.8h-1.961v-1.9a.7.7,0,0,0-1.409,0v2.606a.7.7,0,0,0,.7.7H577a.7.7,0,1,0,0-1.409Z" transform="translate(-568.587 -102.374)" fill="#FFFFFF"/>
    </g>
  </g>
</svg>
