<svg id="menu_3_" data-name="menu (3)" xmlns="http://www.w3.org/2000/svg" width="26.295" height="26.295" viewBox="0 0 26.295 26.295">
  <g id="Group_7561" data-name="Group 7561" transform="translate(0 0)">
    <g id="Group_7560" data-name="Group 7560">
      <path id="Path_7146" data-name="Path 7146" d="M9.08,0H3.041A3.044,3.044,0,0,0,0,3.041V9.08A3.044,3.044,0,0,0,3.041,12.12H9.08A3.044,3.044,0,0,0,12.12,9.08V3.041A3.044,3.044,0,0,0,9.08,0Zm.986,9.08a.988.988,0,0,1-.986.986H3.041a.988.988,0,0,1-.986-.986V3.041a.988.988,0,0,1,.986-.986H9.08a.988.988,0,0,1,.986.986Z" transform="translate(0 0)" fill="#fff"/>
    </g>
  </g>
  <g id="Group_7563" data-name="Group 7563" transform="translate(14.175 0)">
    <g id="Group_7562" data-name="Group 7562">
      <path id="Path_7147" data-name="Path 7147" d="M285.039,0h-5.957A3.085,3.085,0,0,0,276,3.081V9.039a3.085,3.085,0,0,0,3.081,3.081h5.957a3.085,3.085,0,0,0,3.081-3.081V3.081A3.085,3.085,0,0,0,285.039,0Zm1.027,9.039a1.028,1.028,0,0,1-1.027,1.027h-5.957a1.028,1.028,0,0,1-1.027-1.027V3.081a1.028,1.028,0,0,1,1.027-1.027h5.957a1.028,1.028,0,0,1,1.027,1.027Z" transform="translate(-276)" fill="#fff"/>
    </g>
  </g>
  <g id="Group_7565" data-name="Group 7565" transform="translate(0 14.175)">
    <g id="Group_7564" data-name="Group 7564">
      <path id="Path_7148" data-name="Path 7148" d="M9.08,276H3.041A3.044,3.044,0,0,0,0,279.041v6.039a3.044,3.044,0,0,0,3.041,3.041H9.08a3.044,3.044,0,0,0,3.041-3.041v-6.039A3.044,3.044,0,0,0,9.08,276Zm.986,9.08a.988.988,0,0,1-.986.986H3.041a.988.988,0,0,1-.986-.986v-6.039a.988.988,0,0,1,.986-.986H9.08a.988.988,0,0,1,.986.986Z" transform="translate(0 -276)" fill="#fff"/>
    </g>
  </g>
  <g id="Group_7567" data-name="Group 7567" transform="translate(14.175 14.175)">
    <g id="Group_7566" data-name="Group 7566">
      <path id="Path_7149" data-name="Path 7149" d="M285.039,276h-5.957A3.085,3.085,0,0,0,276,279.081v5.957a3.085,3.085,0,0,0,3.081,3.081h5.957a3.085,3.085,0,0,0,3.081-3.081v-5.957A3.085,3.085,0,0,0,285.039,276Zm1.027,9.039a1.028,1.028,0,0,1-1.027,1.027h-5.957a1.028,1.028,0,0,1-1.027-1.027v-5.957a1.028,1.028,0,0,1,1.027-1.027h5.957a1.028,1.028,0,0,1,1.027,1.027Z" transform="translate(-276 -276)" fill="#fff"/>
    </g>
  </g>
</svg>
