<svg xmlns="http://www.w3.org/2000/svg" width="41.534" height="30.3" viewBox="0 0 41.534 30.3">
  <g id="reminder" transform="translate(8143.601 147.15)">
    <g id="Group_12950" data-name="Group 12950" transform="translate(-8135.634 -147)">
      <path id="Path_9161" data-name="Path 9161" d="M356.661,342.143a1.457,1.457,0,0,1-.733-.2,1.493,1.493,0,0,1-.5-2.075L356,338.86l-.514-.466a12.366,12.366,0,0,1-4.464-10.481,12.491,12.491,0,0,1,7.458-10.938,1.339,1.339,0,0,0,.857-1.1,4.549,4.549,0,0,1,4.4-3.731h.005a4.524,4.524,0,0,1,4.481,3.464,2,2,0,0,0,1.21,1.511,12.837,12.837,0,0,1,2.669,21.308l-.385.365.057.312.459.808a1.473,1.473,0,0,1-.539,2.037,1.451,1.451,0,0,1-.721.193,1.521,1.521,0,0,1-1.289-.75l-.6-1.022-.279.111a12.941,12.941,0,0,1-9.967,0l-.277-.109-.581.971A1.56,1.56,0,0,1,356.661,342.143Zm7.144-24.5a11,11,0,1,0,.005,0Z" transform="translate(-350.992 -312.143)" fill="#505050" stroke="#505050" stroke-width="0.3"/>
      <path id="Path_9162" data-name="Path 9162" d="M357.463,329.179v-1.844h5.092v-7.29h1.852V328.1c0,.736-.324,1.066-1.046,1.072l-2.565.007Z" transform="translate(-350.672 -311.752)" fill="#505050"/>
    </g>
    <g id="Group_12949" data-name="Group 12949" transform="translate(-8143.401 -136.505)">
      <g id="Group_12948" data-name="Group 12948">
        <g id="Group_12945" data-name="Group 12945" transform="translate(0 0)">
          <path id="Path_9154" data-name="Path 9154" d="M294.833,329.173a1.1,1.1,0,0,1-.366.645,6.031,6.031,0,0,0-1.789,4.306,6.209,6.209,0,0,0,1.782,4.561.912.912,0,1,1-1.3,1.276,8.2,8.2,0,0,1-2.153-4.135,3.326,3.326,0,0,0-.162-.846l.013-1.639a1.371,1.371,0,0,0,.128-.545,8.1,8.1,0,0,1,2.333-4.4.871.871,0,0,1,1.04-.131A.889.889,0,0,1,294.833,329.173Z" transform="translate(-290.847 -328.152)" fill="#505050" stroke="#505050" stroke-width="0.4"/>
          <path id="Path_9155" data-name="Path 9155" d="M295.93,331.161a.947.947,0,0,1,1.055-.24.909.909,0,0,1,.256,1.509,2.745,2.745,0,0,0-.015,3.829.906.906,0,0,1-.734,1.544c-.4.015-.64-.332-.9-.656A4.583,4.583,0,0,1,295.93,331.161Z" transform="translate(-290.984 -328.25)" fill="#505050" stroke="#505050" stroke-width="0.4"/>
        </g>
        <g id="Group_12946" data-name="Group 12946" transform="translate(34.633)">
          <path id="Path_9154-2" data-name="Path 9154" d="M290.855,329.173a1.1,1.1,0,0,0,.366.645,6.031,6.031,0,0,1,1.789,4.306,6.209,6.209,0,0,1-1.782,4.561.912.912,0,1,0,1.3,1.276,8.2,8.2,0,0,0,2.153-4.135,3.327,3.327,0,0,1,.162-.846l-.013-1.639a1.371,1.371,0,0,1-.128-.545,8.1,8.1,0,0,0-2.333-4.4.871.871,0,0,0-1.04-.131A.889.889,0,0,0,290.855,329.173Z" transform="translate(-288.29 -328.152)" fill="#505050" stroke="#505050" stroke-width="0.3"/>
          <path id="Path_9155-2" data-name="Path 9155" d="M296.243,331.161a.947.947,0,0,0-1.055-.24.909.909,0,0,0-.256,1.509,2.745,2.745,0,0,1,.015,3.829.906.906,0,0,0,.734,1.544c.4.015.64-.332.9-.656A4.583,4.583,0,0,0,296.243,331.161Z" transform="translate(-294.639 -328.25)" fill="#505050" stroke="#505050" stroke-width="0.3"/>
        </g>
      </g>
    </g>
  </g>
</svg>
