<svg xmlns="http://www.w3.org/2000/svg" width="14.399" height="14.4" viewBox="0 0 14.399 14.4">
  <g id="RQ" transform="translate(-45.8 -5.8)">
    <path id="Path_8232" data-name="Path 8232" d="M14.5,6.715A6.874,6.874,0,0,0,7.5,0a6.874,6.874,0,0,0-7,6.715v.012a6.606,6.606,0,0,0,2.2,4.885V13.3A.686.686,0,0,0,3.382,14a.682.682,0,0,0,.362-.1l1.36-.85a7.187,7.187,0,0,0,2.381.4H7.63A6.874,6.874,0,0,0,14.5,6.734V6.715Z" transform="translate(45.5 6.001)" fill="#fff"/>
    <path id="Path_8733" data-name="Path 8733" d="M14.5,6.715A6.874,6.874,0,0,0,7.5,0a6.874,6.874,0,0,0-7,6.715v.012a6.606,6.606,0,0,0,2.2,4.885V13.3A.686.686,0,0,0,3.382,14a.682.682,0,0,0,.362-.1l1.36-.85a7.187,7.187,0,0,0,2.381.4H7.63A6.874,6.874,0,0,0,14.5,6.734V6.715Zm-2.684,4.232a6.017,6.017,0,0,1-4.307,1.682H7.486a6.369,6.369,0,0,1-2.2-.391.6.6,0,0,0-.526.054l-1.243.777V11.511a.6.6,0,0,0-.207-.453,5.785,5.785,0,0,1-1.989-4.33A6.053,6.053,0,0,1,7.491.821h.016a6.053,6.053,0,0,1,6.17,5.9A6.013,6.013,0,0,1,11.815,10.947Zm0,0" transform="translate(45.5 6.001)" fill="#f44c7f" stroke="#f44c7f" stroke-width="0.4"/>
    <path id="Path_8233" data-name="Path 8233" d="M137.891,144.184a2.173,2.173,0,0,0-1.358.468,2.59,2.59,0,0,0-.318.292,2.581,2.581,0,0,0-.318-.292,2.174,2.174,0,0,0-1.358-.468,2.308,2.308,0,0,0-1.717.748,2.642,2.642,0,0,0-.674,1.8c0,1.5,1.147,2.473,2.734,3.825.261.222.556.474.862.742a.715.715,0,0,0,.941,0c.309-.27.6-.521.863-.742,1.587-1.352,2.734-2.329,2.734-3.825a2.642,2.642,0,0,0-.674-1.8A2.309,2.309,0,0,0,137.891,144.184Z" transform="translate(-83.216 -134.839)" fill="#f44c7f" stroke="#f44c7f" stroke-width="0.4"/>
  </g>
</svg>
