<svg version="1.1" id="Layer_1" xmlns="http://www.w3.org/2000/svg" x="0" y="0" viewBox="0 0 30 30" xml:space="preserve"><style>.st0{fill:#58595b}</style><path class="st0" d="M12.37 17.27h3.46v3.46h-3.46z"/><path class="st0" d="M25.47 23.6A13.517 13.517 0 0 1 15 28.55c-4.22 0-7.99-1.92-10.47-4.94.38-3.72 3.54-6.65 7.36-6.65h6.21c3.81 0 6.98 2.92 7.37 6.64z"/><circle cx="15" cy="15" r="13.55" fill="none" stroke="#fff" stroke-width="4" stroke-linecap="round" stroke-linejoin="round" stroke-miterlimit="10"/><circle cx="15" cy="15" r="13.55" fill="none" stroke="#58595b" stroke-width="2" stroke-linecap="round" stroke-linejoin="round" stroke-miterlimit="10"/><circle cx="15" cy="10.71" r="4.65" fill="#fff" stroke="#58595b" stroke-miterlimit="10"/><path fill="#fff" stroke="#58595b" stroke-linecap="round" stroke-linejoin="bevel" stroke-miterlimit="10" d="M17.04 16.71l-2.12 2.11-2.11-2.11z"/><path fill="#fff" d="M14.57 28.61l-2.12-2.11-.13-.49 2.12-7.86h.96l2.12 7.86-.13.49-2.11 2.11z"/><path class="st0" d="M14.92 18.28l2.12 7.86-2.12 2.12-2.12-2.12 2.12-7.86m-.96-.26l-2.12 7.86.26.97 2.12 2.12h1.41l2.12-2.12.25-.97-2.12-7.86h-1.92z"/><path class="st0" d="M9.96 10.44s2.45-2.98 4.95-2.95c2.5.04 5.14 2.95 5.14 2.95l.42-4.53s-2.73-1.1-5.84-1.14c-3.11-.04-5.28 1.56-5.28 1.56l.61 4.11z"/></svg>