<?xml version="1.0" encoding="utf-8"?>
<!-- Generator: Adobe Illustrator 24.0.3, SVG Export Plug-In . SVG Version: 6.00 Build 0)  -->
<svg version="1.1" id="Layer_1" xmlns="http://www.w3.org/2000/svg" xmlns:xlink="http://www.w3.org/1999/xlink" x="0px" y="0px"
	 viewBox="0 0 35 31" style="enable-background:new 0 0 35 31;" xml:space="preserve">
<style type="text/css">
	.st0{fill:none;stroke:#FFCE02;stroke-width:1.8;}
	.st1{fill:#FFCE02;}
	.st2{fill:#FFFFFF;}
	.st3{fill:none;stroke:#FFCE02;stroke-width:2;}
</style>
<g>
	<circle class="st0" cx="16" cy="15.5" r="14.1"/>
	<path class="st1" d="M22.5,8.6l-2.4,0c-0.2,0-0.4,0.3-0.2,0.5l0.5,0.5L16,14L13.8,12l0.5-0.5c0.2-0.2,0-0.5-0.2-0.5l-2.4,0.1
		c-0.2,0-0.3,0.1-0.3,0.3l0.1,2.4c0,0.2,0.3,0.4,0.5,0.2l0.5-0.5l2.9,2.8c0.2,0.2,0.5,0.3,0.7,0.3c0.3,0,0.5-0.1,0.7-0.3l5.1-5.2
		l0.5,0.5c0.2,0.2,0.5,0,0.5-0.2l0-2.4C22.8,8.7,22.7,8.6,22.5,8.6"/>
	<path class="st1" d="M16,5.9c0.7,0,1.3-0.5,1.3-1.2S16.7,3.5,16,3.5c-0.7,0-1.3,0.5-1.3,1.2S15.3,5.9,16,5.9"/>
	<path class="st1" d="M16,25.1c-0.7,0-1.3,0.5-1.3,1.2c0,0.7,0.6,1.2,1.3,1.2c0.7,0,1.3-0.5,1.3-1.2C17.3,25.6,16.7,25.1,16,25.1"/>
	<path class="st1" d="M5.2,14.2c-0.7,0-1.2,0.6-1.2,1.3c0,0.7,0.5,1.3,1.2,1.3s1.2-0.6,1.2-1.3C6.4,14.8,5.9,14.2,5.2,14.2"/>
</g>
<polygon class="st2" points="20,13.5 20,25.4 34,25.5 34,13.5 "/>
<g>
	<line class="st3" x1="20.4" y1="17" x2="31.4" y2="17"/>
</g>
<polygon class="st1" points="30.4,14.5 30.4,19.5 33.6,17 "/>
<g>
	<line class="st3" x1="33.6" y1="22" x2="22.6" y2="22"/>
</g>
<polygon class="st1" points="23.6,24.5 23.6,19.5 20.4,22 "/>
</svg>
