<?xml version="1.0" encoding="utf-8"?>
<!-- Generator: Adobe Illustrator 24.0.3, SVG Export Plug-In . SVG Version: 6.00 Build 0)  -->
<svg version="1.1" id="Layer_1" xmlns="http://www.w3.org/2000/svg" xmlns:xlink="http://www.w3.org/1999/xlink" x="0px" y="0px"
	 viewBox="0 0 31 31" style="enable-background:new 0 0 31 31;" xml:space="preserve">
<style type="text/css">
	.st0{fill:#1ABFD1;}
</style>
<g>
	<path class="st0" d="M5.7,25.3h2.8v2.1l-3.8,0.7l-1.8-1.8l0.7-3.8h2.1V25.3z M7.8,20.4c-0.3-0.3-0.3-0.8,0-1.2l9-9
		c0.3-0.3,0.8-0.3,1.2,0c0.3,0.3,0.3,0.8,0,1.2l-9,9C8.6,20.7,8.1,20.7,7.8,20.4 M17.2,6.3L1.8,21.7l-1.2,7.1
		c-0.2,1,0.7,1.8,1.6,1.6l7.1-1.2l15.4-15.4c0.3-0.3,0.3-0.7,0-1l-6.5-6.5C17.9,6.1,17.4,6.1,17.2,6.3 M29.7,8.8L27,11.5
		c-0.3,0.3-0.7,0.3-1,0L19.5,5c-0.3-0.3-0.3-0.7,0-1l2.7-2.7c1.1-1.1,2.9-1.1,4,0l3.5,3.5C30.8,5.9,30.8,7.7,29.7,8.8"/>
</g>
</svg>
