<?xml version="1.0" encoding="utf-8"?>
<!-- Generator: Adobe Illustrator 24.0.3, SVG Export Plug-In . SVG Version: 6.00 Build 0)  -->
<svg version="1.1" id="Layer_1" xmlns="http://www.w3.org/2000/svg" xmlns:xlink="http://www.w3.org/1999/xlink" x="0px" y="0px"
	 viewBox="0 0 31 31" style="enable-background:new 0 0 31 31;" xml:space="preserve">
<style type="text/css">
	.st0{fill:#FFCE02;}
</style>
<g>
	<path class="st0" d="M15.5,19.9c2.4,0,4.4-2,4.4-4.4s-2-4.4-4.4-4.4s-4.4,2-4.4,4.4S13.1,19.9,15.5,19.9"/>
	<path class="st0" d="M18.5,12.2l-6.3,6.3c0.8,0.9,2,1.5,3.3,1.5c2.5,0,4.5-2,4.5-4.5C20,14.2,19.4,13,18.5,12.2"/>
</g>
<rect x="1.6" y="14" transform="matrix(0.7071 -0.7071 0.7071 0.7071 -6.4204 15.5)" class="st0" width="27.9" height="3"/>
<g>
	<path class="st0" d="M7.9,15.5c0-4.2,3.4-7.6,7.6-7.6c0.8,0,1.6,0.2,2.4,0.4l1.6-1.6c-1.3-0.4-2.6-0.7-4-0.7c-8.3,0-15,9.5-15,9.5
		s1.9,2.7,5,5.2l2.9-2.9C8.1,17.1,7.9,16.3,7.9,15.5"/>
	<path class="st0" d="M21.3,7.5l-1.7,1.7c2.1,1.3,3.4,3.6,3.4,6.3c0,4.2-3.4,7.6-7.6,7.6c-2.6,0-4.9-1.4-6.3-3.4L7,21.9
		c2.4,1.7,5.3,3.1,8.5,3.1c8.3,0,15-9.5,15-9.5S26.7,10.2,21.3,7.5"/>
</g>
</svg>
