<?xml version="1.0" encoding="utf-8"?>
<!-- Generator: Adobe Illustrator 24.0.3, SVG Export Plug-In . SVG Version: 6.00 Build 0)  -->
<svg version="1.1" id="Layer_1" xmlns="http://www.w3.org/2000/svg" xmlns:xlink="http://www.w3.org/1999/xlink" x="0px" y="0px"
	 viewBox="0 0 31 31" style="enable-background:new 0 0 31 31;" xml:space="preserve">
<style type="text/css">
	.st0{fill:none;stroke:#FFCE02;stroke-width:1.8;}
	.st1{fill:#FFCE02;}
	.st2{fill:none;stroke:#FFCE02;stroke-width:1.8;stroke-linecap:round;stroke-linejoin:round;}
	.st3{fill:#FFFFFF;}
	.st4{fill:none;stroke:#FFFFFF;stroke-width:4;stroke-linecap:round;}
	.st5{fill:none;stroke:#FFCE02;stroke-width:1.8;stroke-linecap:round;}
</style>
<g>
	<path class="st0" d="M2.5,1.4c-0.6,0-1.1,0.5-1.1,1.1v26c0,0.6,0.5,1.1,1.1,1.1h26c0.6,0,1.1-0.5,1.1-1.1v-26
		c0-0.6-0.5-1.1-1.1-1.1H2.5z"/>
</g>
<rect x="5.2" y="5.2" class="st1" width="4.6" height="4.5"/>
<rect x="5.2" y="5.2" class="st2" width="4.6" height="4.5"/>
<rect x="5.2" y="13.3" class="st2" width="4.6" height="4.5"/>
<rect x="5.2" y="21.4" class="st2" width="4.6" height="4.5"/>
<rect x="13.2" y="5.2" class="st2" width="4.6" height="4.5"/>
<rect x="13.2" y="13.3" class="st3" width="4.6" height="4.5"/>
<rect x="13.2" y="13.3" class="st2" width="4.6" height="4.5"/>
<rect x="13.2" y="21.4" class="st2" width="4.6" height="4.5"/>
<rect x="21.3" y="5.2" class="st2" width="4.6" height="4.5"/>
<rect x="21.3" y="13.3" class="st2" width="4.6" height="4.5"/>
<rect x="21.3" y="21.4" class="st1" width="4.6" height="4.5"/>
<rect x="21.3" y="21.4" class="st2" width="4.6" height="4.5"/>
<line class="st4" x1="9.9" y1="9.9" x2="20.5" y2="20.5"/>
<polyline class="st4" points="16.4,21.1 21.1,21.1 21.1,16.4 "/>
<line class="st5" x1="10.2" y1="10.2" x2="20.2" y2="20.2"/>
<polyline class="st5" points="16.7,20.8 20.8,20.8 20.8,16.7 "/>
</svg>
