<?xml version="1.0" encoding="utf-8"?>
<!-- Generator: Adobe Illustrator 24.0.3, SVG Export Plug-In . SVG Version: 6.00 Build 0)  -->
<svg version="1.1" id="Layer_1" xmlns="http://www.w3.org/2000/svg" xmlns:xlink="http://www.w3.org/1999/xlink" x="0px" y="0px"
	 viewBox="0 0 31 31" style="enable-background:new 0 0 31 31;" xml:space="preserve">
<style type="text/css">
	.st0{fill:#505050;}
</style>
<g>
	<path class="st0" d="M23.1,15.5c0,4.2-3.4,7.6-7.6,7.6c-4.2,0-7.6-3.4-7.6-7.6s3.4-7.6,7.6-7.6C19.7,7.9,23.1,11.3,23.1,15.5
		 M30.5,15.5c0,0-6.7-9.5-15-9.5c-8.3,0-15,9.5-15,9.5s6.7,9.5,15,9.5C23.8,25,30.5,15.5,30.5,15.5"/>
	<path class="st0" d="M15.5,19.9c2.4,0,4.4-2,4.4-4.4c0-2.4-2-4.4-4.4-4.4s-4.4,2-4.4,4.4C11.1,17.9,13.1,19.9,15.5,19.9"/>
</g>
</svg>
