<?xml version="1.0" encoding="utf-8"?>
<!-- Generator: Adobe Illustrator 24.0.0, SVG Export Plug-In . SVG Version: 6.00 Build 0)  -->
<svg version="1.1" id="Layer_1" xmlns="http://www.w3.org/2000/svg" xmlns:xlink="http://www.w3.org/1999/xlink" x="0px" y="0px"
	 viewBox="0 0 18 16.63" style="enable-background:new 0 0 18 16.63;" xml:space="preserve">
<style type="text/css">
	.st0{clip-path:url(#SVGID_4_);fill:#FFFFFF;}
	.st1{clip-path:url(#SVGID_4_);fill:none;stroke:#00BED6;stroke-width:1.8;}
</style>
<g>
	<defs>
		<rect id="SVGID_1_" x="-1.22" y="3.07" width="24" height="23.86"/>
	</defs>
	<clipPath id="SVGID_2_">
		<use xlink:href="#SVGID_1_"  style="display:none;overflow:visible;"/>
	</clipPath>
</g>
<g>
	<defs>
		<rect id="SVGID_3_" width="18" height="16.63"/>
	</defs>
	<clipPath id="SVGID_4_">
		<use xlink:href="#SVGID_3_"  style="overflow:visible;"/>
	</clipPath>
	<path class="st0" d="M8.21,3.64c-0.43,0.9-0.87,1.8-1.3,2.7C5.9,6.47,4.88,6.59,3.87,6.72L1.99,6.95l1.4,1.28l2.23,2.04
		c-0.19,0.97-0.38,1.95-0.57,2.92l-0.35,1.81l1.62-0.87c0.9-0.48,1.8-0.96,2.7-1.45c0.9,0.48,1.8,0.96,2.7,1.45l1.62,0.87
		l-0.35-1.81c-0.19-0.97-0.38-1.95-0.57-2.92c0.74-0.68,1.48-1.36,2.23-2.04l1.4-1.28l-1.88-0.23c-1.02-0.12-2.03-0.25-3.05-0.37
		c-0.43-0.9-0.87-1.8-1.3-2.7L9,2.01L8.21,3.64z"/>
	<path class="st1" d="M8.21,3.64c-0.43,0.9-0.87,1.8-1.3,2.7C5.9,6.47,4.88,6.59,3.87,6.72L1.99,6.95l1.4,1.28l2.23,2.04
		c-0.19,0.97-0.38,1.95-0.57,2.92l-0.35,1.81l1.62-0.87c0.9-0.48,1.8-0.96,2.7-1.45c0.9,0.48,1.8,0.96,2.7,1.45l1.62,0.87
		l-0.35-1.81c-0.19-0.97-0.38-1.95-0.57-2.92c0.74-0.68,1.48-1.36,2.23-2.04l1.4-1.28l-1.88-0.23c-1.02-0.12-2.03-0.25-3.05-0.37
		c-0.43-0.9-0.87-1.8-1.3-2.7L9,2.01L8.21,3.64z"/>
</g>
</svg>
