<?xml version="1.0" encoding="utf-8"?>
<!-- Generator: Adobe Illustrator 24.0.0, SVG Export Plug-In . SVG Version: 6.00 Build 0)  -->
<svg version="1.1" id="Layer_1" xmlns="http://www.w3.org/2000/svg" xmlns:xlink="http://www.w3.org/1999/xlink" x="0px" y="0px"
	 viewBox="0 0 32.43 24" style="enable-background:new 0 0 32.43 24;" xml:space="preserve">
<style type="text/css">
	.st0{clip-path:url(#SVGID_4_);fill:#FFFFFF;}
	.st1{clip-path:url(#SVGID_4_);fill:none;stroke:#505050;}
	.st2{clip-path:url(#SVGID_4_);fill:#505050;}
	.st3{clip-path:url(#SVGID_4_);fill:none;stroke:#505050;stroke-miterlimit:10;}
</style>
<g>
	<defs>
		<rect id="SVGID_1_" y="0.07" width="24" height="23.86"/>
	</defs>
	<clipPath id="SVGID_2_">
		<use xlink:href="#SVGID_1_"  style="display:none;overflow:visible;"/>
	</clipPath>
</g>
<g>
	<defs>
		<rect id="SVGID_3_" x="8.29" y="0" width="14.33" height="24"/>
	</defs>
	<clipPath id="SVGID_4_">
		<use xlink:href="#SVGID_3_"  style="overflow:visible;"/>
	</clipPath>
	<path class="st0" d="M15.45,16.08c2.25,0,4.08-1.83,4.08-4.08s-1.83-4.08-4.08-4.08S11.38,9.75,11.38,12S13.21,16.08,15.45,16.08"
		/>
	<path class="st1" d="M15.45,16.08c2.25,0,4.08-1.83,4.08-4.08s-1.83-4.08-4.08-4.08S11.38,9.75,11.38,12S13.21,16.08,15.45,16.08z"
		/>
	<path class="st2" d="M17.22,12.76c0,0.72-0.55,1.12-1.26,1.22v0.89h-0.84v-0.91c-0.53-0.09-1.06-0.29-1.44-0.59l0.44-0.9
		c0.41,0.35,1.07,0.61,1.48,0.61c0.25,0,0.41-0.08,0.41-0.27c0-0.6-2.07-0.22-2.07-1.62c0-0.64,0.45-1.08,1.19-1.21V9.12h0.84v0.86
		c0.48,0.06,0.93,0.21,1.28,0.44l-0.44,0.91c-0.41-0.23-0.99-0.44-1.32-0.44c-0.2,0-0.33,0.07-0.33,0.22
		C15.15,11.67,17.22,11.33,17.22,12.76"/>
	<path class="st2" d="M19.37,22.8h-7.84c-1.14,0-2.07-0.95-2.07-2.11V19.4v-0.49h0.49h11h0.49v0.49v1.29c0,0.85-0.49,1.61-1.26,1.94
		C19.93,22.75,19.65,22.8,19.37,22.8 M9.95,3.93h11h0.49v0.49v14.27v0.49h-0.49h-11H9.46v-0.49V4.42V3.93H9.95z M19.64,1.19
		c0.99,0,1.8,0.83,1.8,1.84v0.68v0.49h-0.49h-11H9.46V3.72V3.03c0-1.01,0.81-1.84,1.8-1.84H19.64z M19.64,0.49h-8.37
		c-1.37,0-2.49,1.14-2.49,2.54v1.03v14.63v2c0,1.55,1.24,2.82,2.76,2.82h7.84c0.37,0,0.74-0.08,1.08-0.22
		c1.02-0.44,1.68-1.46,1.68-2.59V3.03C22.13,1.63,21.01,0.49,19.64,0.49"/>
	<path class="st3" d="M19.37,22.8h-7.84c-1.14,0-2.07-0.95-2.07-2.11V19.4v-0.49h0.49h11h0.49v0.49v1.29c0,0.85-0.49,1.61-1.26,1.94
		C19.93,22.75,19.65,22.8,19.37,22.8z M9.95,3.93h11h0.49v0.49v14.27v0.49h-0.49h-11H9.46v-0.49V4.42V3.93H9.95z M19.64,1.19
		c0.99,0,1.8,0.83,1.8,1.84v0.68v0.49h-0.49h-11H9.46V3.72V3.03c0-1.01,0.81-1.84,1.8-1.84H19.64z M19.64,0.49h-8.37
		c-1.37,0-2.49,1.14-2.49,2.54v1.03v14.63v2c0,1.55,1.24,2.82,2.76,2.82h7.84c0.37,0,0.74-0.08,1.08-0.22
		c1.02-0.44,1.68-1.46,1.68-2.59V3.03C22.13,1.63,21.01,0.49,19.64,0.49z"/>
	<path class="st2" d="M16.71,21.26h-2.52c-0.16,0-0.28-0.32-0.28-0.72s0.13-0.72,0.28-0.72h2.52c0.16,0,0.28,0.32,0.28,0.72
		S16.87,21.26,16.71,21.26"/>
</g>
</svg>
