<?xml version="1.0" encoding="utf-8"?>
<!-- Generator: Adobe Illustrator 24.0.0, SVG Export Plug-In . SVG Version: 6.00 Build 0)  -->
<svg version="1.1" id="Layer_1" xmlns="http://www.w3.org/2000/svg" xmlns:xlink="http://www.w3.org/1999/xlink" x="0px" y="0px"
	 viewBox="0 0 32.43 24" style="enable-background:new 0 0 32.43 24;" xml:space="preserve">
<style type="text/css">
	.st0{clip-path:url(#SVGID_4_);fill:#505050;}
</style>
<g>
	<defs>
		<rect id="SVGID_1_" y="0.07" width="24" height="23.86"/>
	</defs>
	<clipPath id="SVGID_2_">
		<use xlink:href="#SVGID_1_"  style="display:none;overflow:visible;"/>
	</clipPath>
</g>
<g>
	<defs>
		<rect id="SVGID_3_" y="0" width="31.51" height="24"/>
	</defs>
	<clipPath id="SVGID_4_">
		<use xlink:href="#SVGID_3_"  style="overflow:visible;"/>
	</clipPath>
	<path class="st0" d="M30.58,11.08h-2.77c-0.51,0-0.92,0.41-0.92,0.92s0.41,0.92,0.92,0.92h2.77c0.51,0,0.92-0.41,0.92-0.92
		S31.09,11.08,30.58,11.08"/>
	<path class="st0" d="M29.39,16.89l-1.85-1.85c-0.36-0.36-0.94-0.36-1.31,0c-0.36,0.36-0.36,0.94,0,1.3l1.85,1.85
		c0.36,0.36,0.94,0.36,1.31,0C29.75,17.83,29.75,17.25,29.39,16.89"/>
	<path class="st0" d="M29.39,5.81c-0.36-0.36-0.95-0.36-1.31,0l-1.85,1.85c-0.36,0.36-0.36,0.94,0,1.31c0.36,0.36,0.94,0.36,1.31,0
		l1.85-1.85C29.75,6.75,29.75,6.17,29.39,5.81"/>
	<path class="st0" d="M22.28,19.39c0,0.51-0.41,0.92-0.92,0.92c-0.51,0-0.92-0.41-0.92-0.92V2.77c0-0.51,0.41-0.92,0.92-0.92
		c0.51,0,0.92,0.41,0.92,0.92V19.39z M18.58,17.19c-1.56-1.35-3.56-2.19-5.67-2.38V7.34c2.1-0.19,4.11-1.03,5.67-2.38V17.19z
		 M11.08,14.77H6.46c-0.51,0-0.92-0.41-0.92-0.92V8.31c0-0.51,0.41-0.92,0.92-0.92h4.61V14.77z M9.23,21.23
		c0,0.51-0.41,0.92-0.92,0.92c-0.51,0-0.92-0.41-0.92-0.92v-4.62h1.85V21.23z M3.69,12.92c-1.02,0-1.85-0.83-1.85-1.85
		s0.83-1.85,1.85-1.85V12.92z M21.35,0c-1.39,0-2.54,1.02-2.74,2.36L17.77,3.2C16.31,4.66,14.15,5.54,12,5.54H6.46
		c-1.2,0-2.23,0.77-2.61,1.85H3.69C1.66,7.39,0,9.04,0,11.08s1.66,3.69,3.69,3.69h0.16c0.28,0.79,0.9,1.41,1.69,1.69v4.77
		c0,1.53,1.24,2.77,2.77,2.77s2.77-1.24,2.77-2.77v-4.62H12c2.15,0,4.31,0.88,5.77,2.34l0.84,0.84c0.2,1.33,1.35,2.36,2.74,2.36
		c1.53,0,2.77-1.24,2.77-2.77V2.77C24.12,1.24,22.88,0,21.35,0"/>
</g>
</svg>
