<?xml version="1.0" encoding="utf-8"?>
<!-- Generator: Adobe Illustrator 24.0.0, SVG Export Plug-In . SVG Version: 6.00 Build 0)  -->
<svg version="1.1" id="Layer_1" xmlns="http://www.w3.org/2000/svg" xmlns:xlink="http://www.w3.org/1999/xlink" x="0px" y="0px"
	 viewBox="0 0 32.43 24" style="enable-background:new 0 0 32.43 24;" xml:space="preserve">
<style type="text/css">
	.st0{clip-path:url(#SVGID_4_);fill:#505050;}
	.st1{clip-path:url(#SVGID_4_);fill:none;stroke:#505050;stroke-width:0.5;stroke-miterlimit:10;}
	.st2{fill:none;stroke:#505050;stroke-width:1.5;stroke-linecap:square;stroke-linejoin:round;stroke-miterlimit:10;}
</style>
<g>
	<defs>
		<rect id="SVGID_1_" y="0.07" width="24" height="23.86"/>
	</defs>
	<clipPath id="SVGID_2_">
		<use xlink:href="#SVGID_1_"  style="display:none;overflow:visible;"/>
	</clipPath>
</g>
<g>
	<defs>
		<rect id="SVGID_3_" x="1.05" width="30.34" height="24"/>
	</defs>
	<clipPath id="SVGID_4_">
		<use xlink:href="#SVGID_3_"  style="overflow:visible;"/>
	</clipPath>
	<path class="st0" d="M7.87,7.51V5.87c0-1.81,1.47-3.28,3.28-3.28c1.81,0,3.28,1.47,3.28,3.28v1.64c0,1.81-1.47,3.29-3.28,3.29
		C9.34,10.8,7.87,9.33,7.87,7.51 M17.89,14l-3.46-0.86v-1.96c1.01-0.9,1.64-2.21,1.64-3.66V5.87c0-2.72-2.21-4.93-4.93-4.93
		S6.22,3.15,6.22,5.87v1.64c0,1.45,0.64,2.76,1.64,3.66v1.96L4.41,14c-1.83,0.46-3.11,2.1-3.11,3.98v5.77h1.64v-5.77
		c0-1.13,0.77-2.12,1.86-2.39l4.7-1.18v-2.26c0.51,0.18,1.07,0.29,1.64,0.29c0.58,0,1.13-0.1,1.64-0.29v2.26l4.7,1.18
		c1.1,0.27,1.86,1.26,1.86,2.39v5.77H21v-5.77C21,16.1,19.73,14.46,17.89,14"/>
	<path class="st1" d="M7.87,7.51V5.87c0-1.81,1.47-3.28,3.28-3.28c1.81,0,3.28,1.47,3.28,3.28v1.64c0,1.81-1.47,3.29-3.28,3.29
		C9.34,10.8,7.87,9.33,7.87,7.51z M17.89,14l-3.46-0.86v-1.96c1.01-0.9,1.64-2.21,1.64-3.66V5.87c0-2.72-2.21-4.93-4.93-4.93
		S6.22,3.15,6.22,5.87v1.64c0,1.45,0.64,2.76,1.64,3.66v1.96L4.41,14c-1.83,0.46-3.11,2.1-3.11,3.98v5.77h1.64v-5.77
		c0-1.13,0.77-2.12,1.86-2.39l4.7-1.18v-2.26c0.51,0.18,1.07,0.29,1.64,0.29c0.58,0,1.13-0.1,1.64-0.29v2.26l4.7,1.18
		c1.1,0.27,1.86,1.26,1.86,2.39v5.77H21v-5.77C21,16.1,19.73,14.46,17.89,14z"/>
	<path class="st0" d="M29.49,1.89v8.2h-9.12l0.75-0.94V1.89H29.49z M19.49,1.89v6.69l-2.53,3.16h12.53c0.9,0,1.64-0.74,1.64-1.64
		v-8.2c0-0.9-0.74-1.64-1.64-1.64h-8.36C20.23,0.25,19.49,0.99,19.49,1.89"/>
	<path class="st1" d="M29.49,1.89v8.2h-9.12l0.75-0.94V1.89H29.49z M19.49,1.89v6.69l-2.53,3.16h12.53c0.9,0,1.64-0.74,1.64-1.64
		v-8.2c0-0.9-0.74-1.64-1.64-1.64h-8.36C20.23,0.25,19.49,0.99,19.49,1.89z"/>
</g>
<line class="st2" x1="25.47" y1="3.67" x2="25.47" y2="8.26"/>
<line class="st2" x1="23.17" y1="5.97" x2="27.77" y2="5.97"/>
</svg>
