<?xml version="1.0" encoding="utf-8"?>
<!-- Generator: Adobe Illustrator 24.0.0, SVG Export Plug-In . SVG Version: 6.00 Build 0)  -->
<svg version="1.1" id="Layer_1" xmlns="http://www.w3.org/2000/svg" xmlns:xlink="http://www.w3.org/1999/xlink" x="0px" y="0px"
	 viewBox="0 0 32.43 24" style="enable-background:new 0 0 32.43 24;" xml:space="preserve">
<style type="text/css">
	.st0{clip-path:url(#SVGID_4_);fill:#505050;}
	.st1{clip-path:url(#SVGID_4_);fill:none;stroke:#505050;stroke-width:0.5;stroke-miterlimit:10;}
</style>
<g>
	<defs>
		<rect id="SVGID_1_" y="0.07" width="24" height="23.86"/>
	</defs>
	<clipPath id="SVGID_2_">
		<use xlink:href="#SVGID_1_"  style="display:none;overflow:visible;"/>
	</clipPath>
</g>
<g>
	<defs>
		<rect id="SVGID_3_" x="5.47" y="0" width="23.05" height="24"/>
	</defs>
	<clipPath id="SVGID_4_">
		<use xlink:href="#SVGID_3_"  style="overflow:visible;"/>
	</clipPath>
	<path class="st0" d="M26.56,15.61l-1.77,0.94c-0.56,0.3-0.95,0.83-1.06,1.46l-0.35,1.97c-0.06,0.37-0.41,0.62-0.78,0.57l-1.98-0.28
		c-0.63-0.09-1.26,0.11-1.71,0.56l-1.44,1.39c-0.27,0.26-0.69,0.26-0.97,0l-1.44-1.39c-0.39-0.37-0.89-0.58-1.42-0.58
		c-0.1,0-0.19,0.01-0.29,0.02l-1.98,0.28c-0.37,0.05-0.72-0.2-0.78-0.57l-0.35-1.97c-0.11-0.63-0.5-1.16-1.06-1.46l-1.77-0.94
		c-0.33-0.18-0.46-0.58-0.3-0.92l0.88-1.8c0.28-0.57,0.28-1.23,0-1.8L7.14,9.3C6.97,8.97,7.1,8.56,7.44,8.39L9.2,7.45
		c0.56-0.3,0.95-0.83,1.06-1.46l0.35-1.97c0.06-0.37,0.41-0.62,0.78-0.57l1.98,0.28c0.63,0.09,1.26-0.11,1.71-0.56l1.44-1.39
		c0.27-0.26,0.69-0.26,0.97,0l1.44,1.39c0.46,0.44,1.08,0.65,1.71,0.56l1.98-0.28c0.37-0.05,0.72,0.2,0.78,0.57l0.35,1.97
		c0.11,0.63,0.5,1.16,1.06,1.46l1.77,0.94c0.33,0.18,0.46,0.58,0.3,0.92l-0.88,1.8c-0.28,0.57-0.28,1.23,0,1.8l0.88,1.8
		C27.02,15.03,26.89,15.44,26.56,15.61 M27.2,12.3c-0.1-0.19-0.1-0.42,0-0.61l0.88-1.79c0.49-1,0.1-2.19-0.88-2.71l-1.76-0.94
		c-0.19-0.1-0.32-0.28-0.36-0.49l-0.35-1.97c-0.19-1.1-1.21-1.83-2.31-1.68l-1.98,0.28c-0.21,0.03-0.43-0.04-0.58-0.19l-1.44-1.39
		c-0.8-0.77-2.05-0.77-2.85,0L14.13,2.2c-0.16,0.15-0.37,0.22-0.58,0.19l-1.98-0.28c-1.1-0.16-2.11,0.58-2.31,1.68L8.92,5.76
		C8.89,5.97,8.76,6.15,8.57,6.25L6.8,7.19C5.82,7.71,5.43,8.9,5.92,9.9L6.8,11.7c0.1,0.19,0.1,0.42,0,0.61L5.92,14.1
		c-0.49,1-0.1,2.19,0.88,2.71l1.77,0.94c0.19,0.1,0.32,0.28,0.36,0.49l0.34,1.97c0.18,1,1.03,1.7,2.01,1.7
		c0.1,0,0.19-0.01,0.29-0.02l1.98-0.28c0.21-0.03,0.43,0.04,0.58,0.19l1.44,1.39c0.4,0.39,0.91,0.58,1.43,0.58s1.03-0.19,1.43-0.58
		l1.44-1.39c0.15-0.15,0.37-0.22,0.58-0.19l1.98,0.28c1.1,0.16,2.11-0.58,2.31-1.68l0.35-1.97c0.04-0.21,0.17-0.39,0.36-0.49
		l1.76-0.94c0.98-0.52,1.37-1.71,0.88-2.71L27.2,12.3z"/>
	<path class="st1" d="M26.56,15.61l-1.77,0.94c-0.56,0.3-0.95,0.83-1.06,1.46l-0.35,1.97c-0.06,0.37-0.41,0.62-0.78,0.57l-1.98-0.28
		c-0.63-0.09-1.26,0.11-1.71,0.56l-1.44,1.39c-0.27,0.26-0.69,0.26-0.97,0l-1.44-1.39c-0.39-0.37-0.89-0.58-1.42-0.58
		c-0.1,0-0.19,0.01-0.29,0.02l-1.98,0.28c-0.37,0.05-0.72-0.2-0.78-0.57l-0.35-1.97c-0.11-0.63-0.5-1.16-1.06-1.46l-1.77-0.94
		c-0.33-0.18-0.46-0.58-0.3-0.92l0.88-1.8c0.28-0.57,0.28-1.23,0-1.8L7.14,9.3C6.97,8.97,7.1,8.56,7.44,8.39L9.2,7.45
		c0.56-0.3,0.95-0.83,1.06-1.46l0.35-1.97c0.06-0.37,0.41-0.62,0.78-0.57l1.98,0.28c0.63,0.09,1.26-0.11,1.71-0.56l1.44-1.39
		c0.27-0.26,0.69-0.26,0.97,0l1.44,1.39c0.46,0.44,1.08,0.65,1.71,0.56l1.98-0.28c0.37-0.05,0.72,0.2,0.78,0.57l0.35,1.97
		c0.11,0.63,0.5,1.16,1.06,1.46l1.77,0.94c0.33,0.18,0.46,0.58,0.3,0.92l-0.88,1.8c-0.28,0.57-0.28,1.23,0,1.8l0.88,1.8
		C27.02,15.03,26.89,15.44,26.56,15.61z M27.2,12.3c-0.1-0.19-0.1-0.42,0-0.61l0.88-1.79c0.49-1,0.1-2.19-0.88-2.71l-1.76-0.94
		c-0.19-0.1-0.32-0.28-0.36-0.49l-0.35-1.97c-0.19-1.1-1.21-1.83-2.31-1.68l-1.98,0.28c-0.21,0.03-0.43-0.04-0.58-0.19l-1.44-1.39
		c-0.8-0.77-2.05-0.77-2.85,0L14.13,2.2c-0.16,0.15-0.37,0.22-0.58,0.19l-1.98-0.28c-1.1-0.16-2.11,0.58-2.31,1.68L8.92,5.76
		C8.89,5.97,8.76,6.15,8.57,6.25L6.8,7.19C5.82,7.71,5.43,8.9,5.92,9.9L6.8,11.7c0.1,0.19,0.1,0.42,0,0.61L5.92,14.1
		c-0.49,1-0.1,2.19,0.88,2.71l1.77,0.94c0.19,0.1,0.32,0.28,0.36,0.49l0.34,1.97c0.18,1,1.03,1.7,2.01,1.7
		c0.1,0,0.19-0.01,0.29-0.02l1.98-0.28c0.21-0.03,0.43,0.04,0.58,0.19l1.44,1.39c0.4,0.39,0.91,0.58,1.43,0.58s1.03-0.19,1.43-0.58
		l1.44-1.39c0.15-0.15,0.37-0.22,0.58-0.19l1.98,0.28c1.1,0.16,2.11-0.58,2.31-1.68l0.35-1.97c0.04-0.21,0.17-0.39,0.36-0.49
		l1.76-0.94c0.98-0.52,1.37-1.71,0.88-2.71L27.2,12.3z"/>
	<path class="st0" d="M21.95,7.04c-0.27-0.27-0.69-0.27-0.96,0L12.04,16c-0.26,0.26-0.26,0.69,0,0.96c0.13,0.13,0.31,0.2,0.48,0.2
		c0.17,0,0.35-0.07,0.48-0.2L21.95,8C22.22,7.74,22.22,7.31,21.95,7.04"/>
	<path class="st1" d="M21.95,7.04c-0.27-0.27-0.69-0.27-0.96,0L12.04,16c-0.26,0.26-0.26,0.69,0,0.96c0.13,0.13,0.31,0.2,0.48,0.2
		c0.17,0,0.35-0.07,0.48-0.2L21.95,8C22.22,7.74,22.22,7.31,21.95,7.04z"/>
	<path class="st0" d="M14.28,9.51c-0.62,0-1.13-0.51-1.13-1.13c0-0.62,0.51-1.13,1.13-1.13c0.62,0,1.13,0.51,1.13,1.13
		C15.41,9,14.91,9.51,14.28,9.51 M14.28,5.89c-1.37,0-2.49,1.12-2.49,2.49c0,1.37,1.12,2.49,2.49,2.49c1.37,0,2.49-1.12,2.49-2.49
		C16.77,7.01,15.65,5.89,14.28,5.89"/>
	<path class="st1" d="M14.28,9.51c-0.62,0-1.13-0.51-1.13-1.13c0-0.62,0.51-1.13,1.13-1.13c0.62,0,1.13,0.51,1.13,1.13
		C15.41,9,14.91,9.51,14.28,9.51z M14.28,5.89c-1.37,0-2.49,1.12-2.49,2.49c0,1.37,1.12,2.49,2.49,2.49c1.37,0,2.49-1.12,2.49-2.49
		C16.77,7.01,15.65,5.89,14.28,5.89z"/>
	<path class="st0" d="M19.71,16.75c-0.62,0-1.13-0.51-1.13-1.13c0-0.62,0.51-1.13,1.13-1.13s1.13,0.51,1.13,1.13
		C20.84,16.24,20.33,16.75,19.71,16.75 M19.71,13.13c-1.37,0-2.49,1.12-2.49,2.49c0,1.37,1.12,2.49,2.49,2.49s2.49-1.12,2.49-2.49
		C22.2,14.25,21.08,13.13,19.71,13.13"/>
	<path class="st1" d="M19.71,16.75c-0.62,0-1.13-0.51-1.13-1.13c0-0.62,0.51-1.13,1.13-1.13s1.13,0.51,1.13,1.13
		C20.84,16.24,20.33,16.75,19.71,16.75z M19.71,13.13c-1.37,0-2.49,1.12-2.49,2.49c0,1.37,1.12,2.49,2.49,2.49s2.49-1.12,2.49-2.49
		C22.2,14.25,21.08,13.13,19.71,13.13z"/>
</g>
</svg>
