<?xml version="1.0" encoding="utf-8"?>
<!-- Generator: Adobe Illustrator 24.0.0, SVG Export Plug-In . SVG Version: 6.00 Build 0)  -->
<svg version="1.1" id="Layer_1" xmlns="http://www.w3.org/2000/svg" xmlns:xlink="http://www.w3.org/1999/xlink" x="0px" y="0px"
	 viewBox="0 0 32.43 24" style="enable-background:new 0 0 32.43 24;" xml:space="preserve">
<style type="text/css">
	.st0{fill:#505050;}
	.st1{clip-path:url(#SVGID_4_);fill:none;stroke:#505050;stroke-width:0.5;stroke-miterlimit:10;}
	.st2{fill:none;stroke:#505050;stroke-width:1.5;stroke-linecap:square;stroke-linejoin:round;stroke-miterlimit:10;}
	.st3{clip-path:url(#SVGID_6_);fill:#00BED6;}
	.st4{clip-path:url(#SVGID_6_);fill:#505050;}
</style>
<g>
	<defs>
		<rect id="SVGID_1_" y="0.07" width="24" height="23.86"/>
	</defs>
	<clipPath id="SVGID_2_">
		<use xlink:href="#SVGID_1_"  style="display:none;overflow:visible;"/>
	</clipPath>
</g>
<path class="st0" d="M17.62,15.94v-0.91h9.68v1.81H6.56v-1.81h9.68v0.91H17.62z M6.56,2.78H27.3v10.88H6.56V2.78z M5.18,1.39v16.84
	h11.01v2.47H9.28v1.38h15.3V20.7h-7.01v-2.47h11.11V1.39H5.18z"/>
<g>
	<defs>
		<rect id="SVGID_3_" x="4.93" y="1.14" width="24" height="21.19"/>
	</defs>
	<clipPath id="SVGID_4_">
		<use xlink:href="#SVGID_3_"  style="overflow:visible;"/>
	</clipPath>
	<path class="st1" d="M6.56,2.77H27.3v10.88H6.56V2.77z M27.3,16.85H6.56v-1.81h9.68v0.9h1.38v-0.9h9.68V16.85z M5.18,1.39v16.84
		h11.01v2.47H9.28v1.38h15.3V20.7h-7.01v-2.47h11.11V1.39H5.18z"/>
</g>
<line class="st2" x1="18.87" y1="5.75" x2="25.22" y2="5.75"/>
<line class="st2" x1="18.87" y1="8.1" x2="25.22" y2="8.1"/>
<g>
	<defs>
		<rect id="SVGID_5_" x="4.93" y="1.14" width="24" height="21.19"/>
	</defs>
	<clipPath id="SVGID_6_">
		<use xlink:href="#SVGID_5_"  style="overflow:visible;"/>
	</clipPath>
	<path class="st3" d="M18.76,8.28"/>
	<path class="st3" d="M25.32,8.28"/>
	<path class="st4" d="M12.64,5.57c-1.84,0-3.33,1.49-3.33,3.33c0,1.84,1.49,3.33,3.33,3.33s3.33-1.49,3.33-3.33h-1.32
		c0,1.11-0.9,2.01-2.01,2.01s-2.01-0.9-2.01-2.01s0.9-2.01,2.01-2.01V5.57z"/>
	<path class="st4" d="M15.4,8.15h1.32c0-1.84-1.49-3.33-3.33-3.33v1.32C14.5,6.14,15.4,7.04,15.4,8.15"/>
</g>
</svg>
