<?xml version="1.0" encoding="utf-8"?>
<!-- Generator: Adobe Illustrator 24.0.0, SVG Export Plug-In . SVG Version: 6.00 Build 0)  -->
<svg version="1.1" id="Layer_1" xmlns="http://www.w3.org/2000/svg" xmlns:xlink="http://www.w3.org/1999/xlink" x="0px" y="0px"
	 viewBox="0 0 25 25" style="enable-background:new 0 0 25 25;" xml:space="preserve">
<style type="text/css">
	.st0{clip-path:url(#SVGID_2_);fill:#515558;}
</style>
<g>
	<defs>
		<rect id="SVGID_1_" width="25" height="25"/>
	</defs>
	<clipPath id="SVGID_2_">
		<use xlink:href="#SVGID_1_"  style="overflow:visible;"/>
	</clipPath>
	<path class="st0" d="M19.56,22.05h-3.67v-6.29h3.67V22.05z M12.54,15.77h0.9v6.29h-0.9V15.77z M10.15,10.62
		c0.16,0.02,0.31,0.02,0.46,0.02c0.1,0,0.18-0.02,0.28-0.02h3.05c0.03,0,0.06,0.01,0.1,0.01c0.05,0,0.1-0.01,0.15-0.01h6.49
		c0.07,0.12,0.12,0.25,0.12,0.41v2.29h-1.22h-8.24H5.44H4.21v-2.29c0-0.16,0.04-0.29,0.11-0.41H10.15z M18.47,4.8
		c0.07,0.26-0.41,1.4-1.91,2.42c-0.34,0.23-0.66,0.4-0.96,0.54c0.24-0.67,0.37-1.45,0.37-2.28C17.27,4.72,18.3,4.7,18.47,4.8
		 M12.58,2.95L12.58,2.95c0.14,0,0.58,0.44,0.81,1.36c0.07,0.3,0.12,0.66,0.13,1.07c0,0.19-0.01,0.36-0.02,0.53
		c-0.2,0.23-0.38,0.45-0.53,0.68c-0.17-0.39-0.39-0.77-0.67-1.16C12.13,5.22,11.95,5,11.75,4.78C11.88,3.55,12.43,2.95,12.58,2.95
		 M6.25,4.6c0.29-0.12,1.48,0.01,2.87,1.07c0.07,0.05,0.12,0.11,0.19,0.16c1.27,1.05,1.66,2.12,1.62,2.32
		c-0.01,0.01-0.04,0.01-0.05,0.02h-0.61c-0.13-0.02-0.28-0.06-0.44-0.11C9.32,7.91,8.7,7.62,8.02,7.1C6.64,6.04,6.2,4.91,6.25,4.6
		 M5.44,15.77h4.65v6.29H5.44V15.77z M21.77,8.17h-2.54c0.48-0.48,0.89-0.99,1.18-1.52c0.65-1.18,0.69-2.35,0.1-3.2
		c-0.88-1.3-2.88-1.43-4.98-0.49c-0.58-1.51-1.69-2.47-2.99-2.47c-1.32,0.02-2.39,1.04-2.92,2.59C8.87,2.65,8.1,2.34,7.37,2.2
		C6.05,1.96,4.92,2.29,4.29,3.11C3.66,3.93,3.64,5.1,4.21,6.31c0.3,0.64,0.78,1.27,1.35,1.86H3.23c-1.12,0-2.04,0.92-2.04,2.04v3.51
		c0,1,0.81,1.88,1.8,2.01v6.72c0,1.13,0.91,2.04,2.04,2.04h14.94c1.15,0,2.04-0.93,2.04-2.12v-6.64c1.04-0.11,1.8-0.94,1.8-2.02
		v-3.51C23.81,9.09,22.89,8.17,21.77,8.17"/>
</g>
</svg>
