<?xml version="1.0" encoding="utf-8"?>
<!-- Generator: Adobe Illustrator 24.0.0, SVG Export Plug-In . SVG Version: 6.00 Build 0)  -->
<svg version="1.1" id="Layer_1" xmlns="http://www.w3.org/2000/svg" xmlns:xlink="http://www.w3.org/1999/xlink" x="0px" y="0px"
	 viewBox="0 0 30 38.81" style="enable-background:new 0 0 30 38.81;" xml:space="preserve">
<style type="text/css">
	.st0{fill:#FFFFFF;}
	.st1{clip-path:url(#SVGID_4_);fill:none;stroke:#00BED6;stroke-width:1.8;stroke-miterlimit:10;}
	.st2{clip-path:url(#SVGID_4_);fill:#FFFFFF;}
</style>
<g>
	<defs>
		<rect id="SVGID_1_" x="4.78" y="19.76" width="24" height="23.86"/>
	</defs>
	<clipPath id="SVGID_2_">
		<use xlink:href="#SVGID_1_"  style="display:none;overflow:visible;"/>
	</clipPath>
</g>
<polygon class="st0" points="15,33.29 23.21,37.36 23.21,12.44 6.79,12.44 6.79,37.36 "/>
<g>
	<defs>
		<rect id="SVGID_3_" width="30" height="38.81"/>
	</defs>
	<clipPath id="SVGID_4_">
		<use xlink:href="#SVGID_3_"  style="overflow:visible;"/>
	</clipPath>
	<polygon class="st1" points="15,33.29 23.21,37.36 23.21,12.44 6.79,12.44 6.79,37.36 	"/>
	<path class="st2" d="M18.47,3.05c0.46,0.93,1.54,1.37,2.52,1.04c1.4-0.47,2.93-0.12,3.98,0.93c1.05,1.05,1.41,2.57,0.93,3.98
		c-0.33,0.98,0.12,2.06,1.04,2.52c1.33,0.66,2.15,1.99,2.15,3.47c0,1.48-0.83,2.81-2.15,3.47c-0.93,0.46-1.37,1.54-1.04,2.52
		c0.47,1.4,0.12,2.93-0.93,3.98c-1.05,1.05-2.57,1.41-3.98,0.93c-0.98-0.33-2.06,0.12-2.52,1.04c-0.66,1.33-1.99,2.15-3.47,2.15
		c-1.48,0-2.81-0.83-3.47-2.15c-0.46-0.92-1.54-1.37-2.52-1.04c-1.4,0.47-2.93,0.12-3.98-0.93c-1.05-1.05-1.4-2.57-0.93-3.98
		c0.33-0.98-0.12-2.06-1.04-2.52C1.73,17.81,0.9,16.48,0.9,15c0-1.48,0.82-2.81,2.15-3.47c0.93-0.46,1.37-1.54,1.04-2.52
		C3.62,7.6,3.98,6.08,5.03,5.03C6.08,3.98,7.6,3.62,9.01,4.1c0.98,0.33,2.06-0.12,2.52-1.04C12.19,1.72,13.52,0.9,15,0.9
		C16.48,0.9,17.81,1.72,18.47,3.05z"/>
	<path class="st1" d="M18.47,3.05c0.46,0.93,1.54,1.37,2.52,1.04c1.4-0.47,2.93-0.12,3.98,0.93c1.05,1.05,1.41,2.57,0.93,3.98
		c-0.33,0.98,0.12,2.06,1.04,2.52c1.33,0.66,2.15,1.99,2.15,3.47c0,1.48-0.83,2.81-2.15,3.47c-0.93,0.46-1.37,1.54-1.04,2.52
		c0.47,1.4,0.12,2.93-0.93,3.98c-1.05,1.05-2.57,1.41-3.98,0.93c-0.98-0.33-2.06,0.12-2.52,1.04c-0.66,1.33-1.99,2.15-3.47,2.15
		c-1.48,0-2.81-0.83-3.47-2.15c-0.46-0.92-1.54-1.37-2.52-1.04c-1.4,0.47-2.93,0.12-3.98-0.93c-1.05-1.05-1.4-2.57-0.93-3.98
		c0.33-0.98-0.12-2.06-1.04-2.52C1.73,17.81,0.9,16.48,0.9,15c0-1.48,0.82-2.81,2.15-3.47c0.93-0.46,1.37-1.54,1.04-2.52
		C3.62,7.6,3.98,6.08,5.03,5.03C6.08,3.98,7.6,3.62,9.01,4.1c0.98,0.33,2.06-0.12,2.52-1.04C12.19,1.72,13.52,0.9,15,0.9
		C16.48,0.9,17.81,1.72,18.47,3.05z"/>
	<path class="st2" d="M15,22.3c4.02,0,7.3-3.27,7.3-7.3S19.02,7.7,15,7.7S7.7,10.97,7.7,15S10.97,22.3,15,22.3"/>
	<circle class="st1" cx="15" cy="15" r="7.3"/>
</g>
</svg>
