<?xml version="1.0" encoding="utf-8"?>
<!-- Generator: Adobe Illustrator 24.0.0, SVG Export Plug-In . SVG Version: 6.00 Build 0)  -->
<svg version="1.1" id="Layer_1" xmlns="http://www.w3.org/2000/svg" xmlns:xlink="http://www.w3.org/1999/xlink" x="0px" y="0px"
	 viewBox="0 0 30 30" style="enable-background:new 0 0 30 30;" xml:space="preserve">
<style type="text/css">
	.st0{clip-path:url(#SVGID_4_);fill:#FFFFFF;}
	.st1{clip-path:url(#SVGID_4_);fill:#00BED6;}
	.st2{fill:#00BED6;}
</style>
<g>
	<defs>
		<rect id="SVGID_1_" x="4.78" y="15.35" width="24" height="23.86"/>
	</defs>
	<clipPath id="SVGID_2_">
		<use xlink:href="#SVGID_1_"  style="display:none;overflow:visible;"/>
	</clipPath>
</g>
<g>
	<defs>
		<rect id="SVGID_3_" width="30" height="30"/>
	</defs>
	<clipPath id="SVGID_4_">
		<use xlink:href="#SVGID_3_"  style="overflow:visible;"/>
	</clipPath>
	<path class="st0" d="M15,28c7.18,0,13-5.82,13-13S22.18,2,15,2S2,7.82,2,15S7.82,28,15,28"/>
	<path class="st1" d="M15,0C6.72,0,0,6.72,0,15c0,8.28,6.72,15,15,15s15-6.72,15-15C30,6.72,23.28,0,15,0 M15,2.02
		c7.16,0,12.98,5.82,12.98,12.98c0,7.16-5.82,12.98-12.98,12.98S2.02,22.16,2.02,15C2.02,7.84,7.84,2.02,15,2.02"/>
</g>
<polygon class="st2" points="17.67,9.2 17.67,16.24 11.9,9.2 9.68,9.2 9.68,20.8 12.33,20.8 12.33,13.76 18.12,20.8 20.32,20.8 
	20.32,9.2 "/>
</svg>
