<?xml version="1.0" encoding="utf-8"?>
<!-- Generator: Adobe Illustrator 24.0.0, SVG Export Plug-In . SVG Version: 6.00 Build 0)  -->
<svg version="1.1" id="Layer_1" xmlns="http://www.w3.org/2000/svg" xmlns:xlink="http://www.w3.org/1999/xlink" x="0px" y="0px"
	 viewBox="0 0 30 35.46" style="enable-background:new 0 0 30 35.46;" xml:space="preserve">
<style type="text/css">
	.st0{clip-path:url(#SVGID_4_);fill:#00BED6;}
	.st1{clip-path:url(#SVGID_4_);fill:none;stroke:#00BED6;stroke-width:0.5;stroke-miterlimit:10;}
	.st2{fill:#00BED6;}
	.st3{fill:none;stroke:#00BED6;stroke-width:0.5;stroke-miterlimit:10;}
	.st4{clip-path:url(#SVGID_6_);fill:#00BED6;}
	.st5{clip-path:url(#SVGID_6_);fill:none;stroke:#00BED6;stroke-width:0.5;stroke-miterlimit:10;}
</style>
<g>
	<defs>
		<rect id="SVGID_1_" x="-1.22" y="3.07" width="24" height="23.86"/>
	</defs>
	<clipPath id="SVGID_2_">
		<use xlink:href="#SVGID_1_"  style="display:none;overflow:visible;"/>
	</clipPath>
</g>
<g>
	<defs>
		<rect id="SVGID_3_" width="30" height="34.99"/>
	</defs>
	<clipPath id="SVGID_4_">
		<use xlink:href="#SVGID_3_"  style="overflow:visible;"/>
	</clipPath>
	<path class="st0" d="M22.96,18.97h0.52c1.08,0,2.08,0.58,2.62,1.52c0.28,0.49,0.74,0.79,1.23,0.79c0.83,0,1.5-0.83,1.5-1.85v-1.56
		c0-1.46-1.18-2.64-2.64-2.64H3.81c-1.46,0-2.64,1.18-2.64,2.64v1.56c0,1.02,0.67,1.85,1.5,1.85c0.49,0,0.94-0.29,1.23-0.79
		c0.54-0.94,1.54-1.52,2.62-1.52h0.52c1.08,0,2.08,0.58,2.62,1.52c0.28,0.49,0.74,0.79,1.23,0.79c0.48,0,0.94-0.29,1.23-0.79
		c0.54-0.94,1.54-1.52,2.62-1.52h0.52c1.08,0,2.08,0.58,2.62,1.52c0.28,0.49,0.74,0.79,1.23,0.79c0.48,0,0.94-0.29,1.23-0.79
		C20.87,19.55,21.88,18.97,22.96,18.97 M27.33,22.2c-0.82,0-1.58-0.47-2.03-1.25c-0.37-0.65-1.07-1.06-1.82-1.06h-0.52
		c-0.75,0-1.44,0.41-1.82,1.06c-0.45,0.78-1.21,1.25-2.03,1.25c-0.82,0-1.58-0.47-2.03-1.25c-0.37-0.65-1.07-1.06-1.82-1.06h-0.52
		c-0.75,0-1.44,0.41-1.82,1.06c-0.45,0.78-1.21,1.25-2.03,1.25c-0.82,0-1.58-0.47-2.03-1.25c-0.37-0.65-1.07-1.06-1.82-1.06H6.52
		c-0.75,0-1.44,0.41-1.82,1.06c-0.45,0.78-1.21,1.25-2.03,1.25c-1.34,0-2.42-1.24-2.42-2.77v-1.56c0-1.97,1.6-3.57,3.57-3.57h22.38
		c1.97,0,3.57,1.6,3.57,3.57v1.56C29.75,20.96,28.67,22.2,27.33,22.2"/>
	<path class="st1" d="M22.96,18.97h0.52c1.08,0,2.08,0.58,2.62,1.52c0.28,0.49,0.74,0.79,1.23,0.79c0.83,0,1.5-0.83,1.5-1.85v-1.56
		c0-1.46-1.18-2.64-2.64-2.64H3.81c-1.46,0-2.64,1.18-2.64,2.64v1.56c0,1.02,0.67,1.85,1.5,1.85c0.49,0,0.94-0.29,1.23-0.79
		c0.54-0.94,1.54-1.52,2.62-1.52h0.52c1.08,0,2.08,0.58,2.62,1.52c0.28,0.49,0.74,0.79,1.23,0.79c0.48,0,0.94-0.29,1.23-0.79
		c0.54-0.94,1.54-1.52,2.62-1.52h0.52c1.08,0,2.08,0.58,2.62,1.52c0.28,0.49,0.74,0.79,1.23,0.79c0.48,0,0.94-0.29,1.23-0.79
		C20.87,19.55,21.88,18.97,22.96,18.97z M27.33,22.2c-0.82,0-1.58-0.47-2.03-1.25c-0.37-0.65-1.07-1.06-1.82-1.06h-0.52
		c-0.75,0-1.44,0.41-1.82,1.06c-0.45,0.78-1.21,1.25-2.03,1.25c-0.82,0-1.58-0.47-2.03-1.25c-0.37-0.65-1.07-1.06-1.82-1.06h-0.52
		c-0.75,0-1.44,0.41-1.82,1.06c-0.45,0.78-1.21,1.25-2.03,1.25c-0.82,0-1.58-0.47-2.03-1.25c-0.37-0.65-1.07-1.06-1.82-1.06H6.52
		c-0.75,0-1.44,0.41-1.82,1.06c-0.45,0.78-1.21,1.25-2.03,1.25c-1.34,0-2.42-1.24-2.42-2.77v-1.56c0-1.97,1.6-3.57,3.57-3.57h22.38
		c1.97,0,3.57,1.6,3.57,3.57v1.56C29.75,20.96,28.67,22.2,27.33,22.2z"/>
	<path class="st0" d="M2.1,22.12v11.47c0,0.12,0.1,0.22,0.22,0.22h25.36c0.12,0,0.22-0.1,0.22-0.22V22.12
		c-0.19,0.05-0.38,0.08-0.57,0.08c-0.82,0-1.58-0.47-2.03-1.25c-0.38-0.66-1.02-1.06-1.72-1.06h-0.72c-0.7,0-1.34,0.4-1.72,1.06
		c-0.45,0.78-1.21,1.25-2.03,1.25c-0.82,0-1.58-0.47-2.03-1.25c-0.38-0.66-1.02-1.06-1.72-1.06h-0.72c-0.7,0-1.34,0.4-1.72,1.06
		c-0.45,0.78-1.21,1.25-2.03,1.25c-0.82,0-1.58-0.47-2.03-1.25c-0.38-0.66-1.02-1.06-1.72-1.06H6.42c-0.7,0-1.34,0.4-1.72,1.06
		c-0.45,0.78-1.21,1.25-2.03,1.25C2.48,22.2,2.29,22.17,2.1,22.12 M27.68,34.74H2.32c-0.63,0-1.15-0.51-1.15-1.15V20.48l0.74,0.54
		c0.66,0.48,1.55,0.23,1.98-0.53c0.55-0.95,1.49-1.52,2.52-1.52h0.73c1.03,0,1.97,0.57,2.52,1.52c0.28,0.49,0.74,0.79,1.23,0.79
		c0.48,0,0.94-0.29,1.23-0.79c0.55-0.95,1.49-1.52,2.52-1.52h0.72c1.03,0,1.97,0.57,2.52,1.52c0.28,0.49,0.74,0.79,1.23,0.79
		c0.48,0,0.94-0.29,1.23-0.79c0.55-0.95,1.49-1.52,2.52-1.52h0.72c1.03,0,1.97,0.57,2.52,1.52c0.44,0.76,1.33,1.01,1.98,0.53
		l0.74-0.54v13.12C28.82,34.23,28.31,34.74,27.68,34.74"/>
	<path class="st1" d="M2.1,22.12v11.47c0,0.12,0.1,0.22,0.22,0.22h25.36c0.12,0,0.22-0.1,0.22-0.22V22.12
		c-0.19,0.05-0.38,0.08-0.57,0.08c-0.82,0-1.58-0.47-2.03-1.25c-0.38-0.66-1.02-1.06-1.72-1.06h-0.72c-0.7,0-1.34,0.4-1.72,1.06
		c-0.45,0.78-1.21,1.25-2.03,1.25c-0.82,0-1.58-0.47-2.03-1.25c-0.38-0.66-1.02-1.06-1.72-1.06h-0.72c-0.7,0-1.34,0.4-1.72,1.06
		c-0.45,0.78-1.21,1.25-2.03,1.25c-0.82,0-1.58-0.47-2.03-1.25c-0.38-0.66-1.02-1.06-1.72-1.06H6.42c-0.7,0-1.34,0.4-1.72,1.06
		c-0.45,0.78-1.21,1.25-2.03,1.25C2.48,22.2,2.29,22.17,2.1,22.12z M27.68,34.74H2.32c-0.63,0-1.15-0.51-1.15-1.15V20.48l0.74,0.54
		c0.66,0.48,1.55,0.23,1.98-0.53c0.55-0.95,1.49-1.52,2.52-1.52h0.73c1.03,0,1.97,0.57,2.52,1.52c0.28,0.49,0.74,0.79,1.23,0.79
		c0.48,0,0.94-0.29,1.23-0.79c0.55-0.95,1.49-1.52,2.52-1.52h0.72c1.03,0,1.97,0.57,2.52,1.52c0.28,0.49,0.74,0.79,1.23,0.79
		c0.48,0,0.94-0.29,1.23-0.79c0.55-0.95,1.49-1.52,2.52-1.52h0.72c1.03,0,1.97,0.57,2.52,1.52c0.44,0.76,1.33,1.01,1.98,0.53
		l0.74-0.54v13.12C28.82,34.23,28.31,34.74,27.68,34.74z"/>
	<path class="st0" d="M2.1,28.14v5.46c0,0.12,0.1,0.22,0.22,0.22h25.36c0.12,0,0.22-0.1,0.22-0.22v-5.46H2.1z M27.68,34.74H2.32
		c-0.63,0-1.15-0.51-1.15-1.15v-6.38h27.65v6.38C28.82,34.23,28.31,34.74,27.68,34.74"/>
	<path class="st1" d="M2.1,28.14v5.46c0,0.12,0.1,0.22,0.22,0.22h25.36c0.12,0,0.22-0.1,0.22-0.22v-5.46H2.1z M27.68,34.74H2.32
		c-0.63,0-1.15-0.51-1.15-1.15v-6.38h27.65v6.38C28.82,34.23,28.31,34.74,27.68,34.74z"/>
	<path class="st0" d="M14.18,14.3h1.63v-4.11l-0.03-0.03h-1.58L14.18,14.3z M16.28,15.23h-2.56c-0.26,0-0.46-0.21-0.46-0.46v-4.58
		c0-0.53,0.43-0.95,0.96-0.95h1.58c0.53,0,0.96,0.43,0.96,0.95v4.58C16.74,15.02,16.54,15.23,16.28,15.23"/>
	<path class="st1" d="M14.18,14.3h1.63v-4.11l-0.03-0.03h-1.58L14.18,14.3z M16.28,15.23h-2.56c-0.26,0-0.46-0.21-0.46-0.46v-4.58
		c0-0.53,0.43-0.95,0.96-0.95h1.58c0.53,0,0.96,0.43,0.96,0.95v4.58C16.74,15.02,16.54,15.23,16.28,15.23z"/>
	<path class="st0" d="M15.4,2.04c-0.09,0.82-0.38,1.85-1.2,2.63c-0.21,0.2-0.3,0.42-0.29,0.68c0.02,0.61,0.6,1.32,1.03,1.74
		c0.41-0.47,1.1-1.47,1.15-2.72C16.12,3.59,15.88,2.81,15.4,2.04 M14.97,8.2c-0.1,0-0.21-0.03-0.29-0.1
		c-0.17-0.14-1.64-1.37-1.69-2.71c-0.02-0.52,0.18-1,0.58-1.38c1.23-1.18,0.91-3.2,0.9-3.22c-0.03-0.2,0.07-0.4,0.25-0.49
		c0.18-0.09,0.4-0.05,0.54,0.09c1.22,1.27,1.81,2.63,1.76,4.03c-0.08,2.16-1.67,3.61-1.74,3.67C15.19,8.17,15.08,8.2,14.97,8.2"/>
	<path class="st1" d="M15.4,2.04c-0.09,0.82-0.38,1.85-1.2,2.63c-0.21,0.2-0.3,0.42-0.29,0.68c0.02,0.61,0.6,1.32,1.03,1.74
		c0.41-0.47,1.1-1.47,1.15-2.72C16.12,3.59,15.88,2.81,15.4,2.04z M14.97,8.2c-0.1,0-0.21-0.03-0.29-0.1
		c-0.17-0.14-1.64-1.37-1.69-2.71c-0.02-0.52,0.18-1,0.58-1.38c1.23-1.18,0.91-3.2,0.9-3.22c-0.03-0.2,0.07-0.4,0.25-0.49
		c0.18-0.09,0.4-0.05,0.54,0.09c1.22,1.27,1.81,2.63,1.76,4.03c-0.08,2.16-1.67,3.61-1.74,3.67C15.19,8.17,15.08,8.2,14.97,8.2z"/>
	<path class="st0" d="M21.63,14.3h1.63v-4.11l-0.03-0.03h-1.58L21.63,14.3z M23.72,15.23h-2.56c-0.26,0-0.46-0.21-0.46-0.46v-4.58
		c0-0.53,0.43-0.95,0.95-0.95h1.58c0.53,0,0.96,0.43,0.96,0.95v4.58C24.19,15.02,23.98,15.23,23.72,15.23"/>
	<path class="st1" d="M21.63,14.3h1.63v-4.11l-0.03-0.03h-1.58L21.63,14.3z M23.72,15.23h-2.56c-0.26,0-0.46-0.21-0.46-0.46v-4.58
		c0-0.53,0.43-0.95,0.95-0.95h1.58c0.53,0,0.96,0.43,0.96,0.95v4.58C24.19,15.02,23.98,15.23,23.72,15.23z"/>
	<path class="st0" d="M6.74,14.3h1.63v-4.11l-0.03-0.03H6.77L6.74,14.3z M8.84,15.23H6.28c-0.26,0-0.46-0.21-0.46-0.46v-4.58
		c0-0.53,0.43-0.95,0.96-0.95h1.58c0.53,0,0.96,0.43,0.96,0.95v4.58C9.3,15.02,9.09,15.23,8.84,15.23"/>
	<path class="st1" d="M6.74,14.3h1.63v-4.11l-0.03-0.03H6.77L6.74,14.3z M8.84,15.23H6.28c-0.26,0-0.46-0.21-0.46-0.46v-4.58
		c0-0.53,0.43-0.95,0.96-0.95h1.58c0.53,0,0.96,0.43,0.96,0.95v4.58C9.3,15.02,9.09,15.23,8.84,15.23z"/>
	<path class="st0" d="M7.95,2.04c-0.09,0.82-0.38,1.85-1.2,2.63c-0.21,0.2-0.3,0.42-0.29,0.67c0.02,0.61,0.6,1.32,1.03,1.75
		C7.9,6.62,8.6,5.62,8.65,4.37C8.67,3.59,8.44,2.81,7.95,2.04 M7.52,8.2c-0.1,0-0.21-0.03-0.29-0.1C7.06,7.96,5.59,6.73,5.54,5.39
		C5.52,4.86,5.72,4.39,6.12,4c1.23-1.18,0.91-3.2,0.9-3.22c-0.03-0.2,0.07-0.4,0.25-0.49c0.18-0.09,0.4-0.05,0.54,0.09
		c1.22,1.27,1.81,2.63,1.76,4.03C9.49,6.58,7.9,8.03,7.83,8.09C7.74,8.17,7.63,8.2,7.52,8.2"/>
	<path class="st1" d="M7.95,2.04c-0.09,0.82-0.38,1.85-1.2,2.63c-0.21,0.2-0.3,0.42-0.29,0.67c0.02,0.61,0.6,1.32,1.03,1.75
		C7.9,6.62,8.6,5.62,8.65,4.37C8.67,3.59,8.44,2.81,7.95,2.04z M7.52,8.2c-0.1,0-0.21-0.03-0.29-0.1C7.06,7.96,5.59,6.73,5.54,5.39
		C5.52,4.86,5.72,4.39,6.12,4c1.23-1.18,0.91-3.2,0.9-3.22c-0.03-0.2,0.07-0.4,0.25-0.49c0.18-0.09,0.4-0.05,0.54,0.09
		c1.22,1.27,1.81,2.63,1.76,4.03C9.49,6.58,7.9,8.03,7.83,8.09C7.74,8.17,7.63,8.2,7.52,8.2z"/>
	<path class="st0" d="M22.84,2.04c-0.09,0.82-0.38,1.85-1.2,2.63c-0.21,0.2-0.3,0.42-0.29,0.68c0.02,0.61,0.6,1.32,1.03,1.74
		c0.41-0.47,1.1-1.47,1.15-2.72C23.56,3.59,23.33,2.81,22.84,2.04 M22.41,8.2c-0.1,0-0.21-0.03-0.29-0.1
		c-0.17-0.14-1.64-1.37-1.69-2.71C20.41,4.86,20.61,4.39,21,4c1.23-1.18,0.91-3.2,0.9-3.22c-0.03-0.2,0.07-0.4,0.25-0.49
		c0.18-0.09,0.4-0.05,0.54,0.09c1.22,1.27,1.81,2.63,1.76,4.03c-0.08,2.16-1.67,3.61-1.74,3.67C22.63,8.17,22.52,8.2,22.41,8.2"/>
	<path class="st1" d="M22.84,2.04c-0.09,0.82-0.38,1.85-1.2,2.63c-0.21,0.2-0.3,0.42-0.29,0.68c0.02,0.61,0.6,1.32,1.03,1.74
		c0.41-0.47,1.1-1.47,1.15-2.72C23.56,3.59,23.33,2.81,22.84,2.04z M22.41,8.2c-0.1,0-0.21-0.03-0.29-0.1
		c-0.17-0.14-1.64-1.37-1.69-2.71C20.41,4.86,20.61,4.39,21,4c1.23-1.18,0.91-3.2,0.9-3.22c-0.03-0.2,0.07-0.4,0.25-0.49
		c0.18-0.09,0.4-0.05,0.54,0.09c1.22,1.27,1.81,2.63,1.76,4.03c-0.08,2.16-1.67,3.61-1.74,3.67C22.63,8.17,22.52,8.2,22.41,8.2z"/>
</g>
<rect x="1.64" y="24.04" class="st2" width="26.72" height="0.93"/>
<rect x="1.64" y="24.04" class="st3" width="26.72" height="0.93"/>
<g>
	<defs>
		<rect id="SVGID_5_" width="30" height="34.99"/>
	</defs>
	<clipPath id="SVGID_6_">
		<use xlink:href="#SVGID_5_"  style="overflow:visible;"/>
	</clipPath>
	<path class="st4" d="M6.23,31.44H4.15c-0.26,0-0.46-0.21-0.46-0.46s0.21-0.46,0.46-0.46h2.08c0.26,0,0.46,0.21,0.46,0.46
		S6.49,31.44,6.23,31.44"/>
	<path class="st5" d="M6.23,31.44H4.15c-0.26,0-0.46-0.21-0.46-0.46s0.21-0.46,0.46-0.46h2.08c0.26,0,0.46,0.21,0.46,0.46
		S6.49,31.44,6.23,31.44z"/>
	<path class="st4" d="M13.25,31.44H9.74c-0.26,0-0.46-0.21-0.46-0.46s0.21-0.46,0.46-0.46h3.51c0.26,0,0.46,0.21,0.46,0.46
		S13.5,31.44,13.25,31.44 M20.26,31.44h-3.51c-0.26,0-0.46-0.21-0.46-0.46s0.21-0.46,0.46-0.46h3.51c0.26,0,0.46,0.21,0.46,0.46
		S20.52,31.44,20.26,31.44"/>
	<path class="st5" d="M13.25,31.44H9.74c-0.26,0-0.46-0.21-0.46-0.46s0.21-0.46,0.46-0.46h3.51c0.26,0,0.46,0.21,0.46,0.46
		S13.5,31.44,13.25,31.44z M20.26,31.44h-3.51c-0.26,0-0.46-0.21-0.46-0.46s0.21-0.46,0.46-0.46h3.51c0.26,0,0.46,0.21,0.46,0.46
		S20.52,31.44,20.26,31.44z"/>
	<path class="st4" d="M25.85,31.44h-2.08c-0.26,0-0.46-0.21-0.46-0.46s0.21-0.46,0.46-0.46h2.08c0.26,0,0.46,0.21,0.46,0.46
		S26.11,31.44,25.85,31.44"/>
	<path class="st5" d="M25.85,31.44h-2.08c-0.26,0-0.46-0.21-0.46-0.46s0.21-0.46,0.46-0.46h2.08c0.26,0,0.46,0.21,0.46,0.46
		S26.11,31.44,25.85,31.44z"/>
</g>
</svg>
