<?xml version="1.0" encoding="utf-8"?>
<!-- Generator: Adobe Illustrator 24.0.0, SVG Export Plug-In . SVG Version: 6.00 Build 0)  -->
<svg version="1.1" id="Layer_1" xmlns="http://www.w3.org/2000/svg" xmlns:xlink="http://www.w3.org/1999/xlink" x="0px" y="0px"
	 viewBox="0 0 30 30" style="enable-background:new 0 0 30 30;" xml:space="preserve">
<style type="text/css">
	.st0{clip-path:url(#SVGID_4_);fill:#00BED6;}
</style>
<g>
	<defs>
		<rect id="SVGID_1_" x="-1.22" y="3.07" width="24" height="23.86"/>
	</defs>
	<clipPath id="SVGID_2_">
		<use xlink:href="#SVGID_1_"  style="display:none;overflow:visible;"/>
	</clipPath>
</g>
<g>
	<defs>
		<rect id="SVGID_3_" x="0" width="30" height="30"/>
	</defs>
	<clipPath id="SVGID_4_">
		<use xlink:href="#SVGID_3_"  style="overflow:visible;"/>
	</clipPath>
	<path class="st0" d="M15,0C6.72,0,0,6.72,0,15c0,8.29,6.72,15,15,15s15-6.72,15-15C30,6.72,23.28,0,15,0 M15,2.02
		c7.16,0,12.98,5.82,12.98,12.98S22.16,27.98,15,27.98S2.02,22.16,2.02,15S7.84,2.02,15,2.02"/>
	<path class="st0" d="M12.63,13.16c0,1.15-0.93,2.08-2.08,2.08c-1.15,0-2.08-0.93-2.08-2.08s0.93-2.08,2.08-2.08
		C11.69,11.07,12.63,12.01,12.63,13.16"/>
	<path class="st0" d="M21.54,13.16c0,1.15-0.93,2.08-2.08,2.08c-1.15,0-2.08-0.93-2.08-2.08s0.93-2.08,2.08-2.08
		C20.61,11.07,21.54,12.01,21.54,13.16"/>
	<path class="st0" d="M15,25.09c-2.99,0-5.62-2.02-6.4-4.9c-0.14-0.54,0.17-1.09,0.71-1.24c0.53-0.14,1.09,0.17,1.24,0.71
		c0.54,2.01,2.37,3.41,4.45,3.41s3.91-1.4,4.45-3.41c0.15-0.54,0.7-0.85,1.24-0.71c0.54,0.14,0.86,0.7,0.71,1.24
		C20.62,23.07,17.99,25.09,15,25.09"/>
	<path class="st0" d="M22.56,10.42c-7.27,0-11.36-3.44-12.84-5c-0.38-0.4-0.37-1.04,0.04-1.43c0.4-0.38,1.04-0.37,1.43,0.04
		c1.39,1.46,5.39,4.81,12.81,4.32c0.58-0.02,1.04,0.39,1.07,0.94c0.04,0.56-0.39,1.04-0.94,1.07
		C23.59,10.41,23.06,10.42,22.56,10.42"/>
</g>
</svg>
