<?xml version="1.0" encoding="utf-8"?>
<!-- Generator: Adobe Illustrator 24.0.3, SVG Export Plug-In . SVG Version: 6.00 Build 0)  -->
<svg version="1.1" id="Layer_1" xmlns="http://www.w3.org/2000/svg" xmlns:xlink="http://www.w3.org/1999/xlink" x="0px" y="0px"
	 viewBox="0 0 51 51" style="enable-background:new 0 0 51 51;" xml:space="preserve">
<style type="text/css">
	.st0{fill:#505050;}
	.st1{fill:#FFFFFF;}
</style>
<g>
	<path class="st0" d="M25.5,50.5c13.8,0,25-11.2,25-25c0-13.8-11.2-25-25-25s-25,11.2-25,25C0.5,39.3,11.7,50.5,25.5,50.5"/>
	<path class="st1" d="M23.5,37.9c-0.7,0-1.3-0.3-1.7-0.8L16.1,31c-0.9-1-0.8-2.4,0.1-3.3c1-0.9,2.4-0.8,3.3,0.1l3.4,3.6l8.9-17.1
		c0.6-1.2,2-1.6,3.2-1c1.2,0.6,1.6,2,1,3.2l-10.4,20c-0.4,0.7-1,1.1-1.8,1.2C23.7,37.9,23.6,37.9,23.5,37.9"/>
</g>
</svg>
