<?xml version="1.0"?>
<svg xmlns="http://www.w3.org/2000/svg" viewBox="0 0 512 512" width="512" height="512"><g id="Out_line" data-name="Out line"><path d="M354.34326,322.34326,324.686,352H307.31348l10.34326-10.34326a7.99915,7.99915,0,0,0,0-11.31348,53.25417,53.25417,0,0,0-75.31348,0L236.686,336H226.50977a71.52742,71.52742,0,0,0-50.91163,21.08838L152,380.68652l-10.34326-10.34326a8,8,0,0,0-11.31348,0l-112,112,11.31348,11.31348L136,387.314,212.686,464l-18.34278,18.34326,11.31348,11.31348,24-24a7.99915,7.99915,0,0,0,0-11.31348l-10.3432-10.3432L251.314,416H344a7.99877,7.99877,0,0,0,5.65674-2.34326l80-80a7.99915,7.99915,0,0,0,0-11.31348A53.3138,53.3138,0,0,0,354.34326,322.34326ZM340.686,400H248a7.99877,7.99877,0,0,0-5.65674,2.34326L208,436.68652,163.31348,392l23.59814-23.59814A55.63555,55.63555,0,0,1,226.50977,352H240a7.99877,7.99877,0,0,0,5.65674-2.34326l8-8a37.32132,37.32132,0,0,1,46.418-5.04541L260.686,376H240v16h24a7.99877,7.99877,0,0,0,5.65674-2.34326L291.31348,368H328a7.99877,7.99877,0,0,0,5.65674-2.34326l32-32a37.322,37.322,0,0,1,46.418-5.04541Z"/><path d="M172,448a20,20,0,1,0,20,20A20.02292,20.02292,0,0,0,172,448Zm0,24a4,4,0,1,1,4-4A4.00458,4.00458,0,0,1,172,472Z"/><path d="M448,272H360V160H344V272H112a8,8,0,0,1-8-8V248H88v16a24,24,0,0,0,24,24H448a24,24,0,0,0,24-24V232H456v32A8,8,0,0,1,448,272Z"/><path d="M112,32h72V87.76237a8.22348,8.22348,0,0,0,3.27842,6.70016,8.00613,8.00613,0,0,0,10.37833-.80579L208,83.314l10.34326,10.34278a8,8,0,0,0,11.31348,0L240,83.314l10.34326,10.34278a8.00339,8.00339,0,0,0,9.672,1.26413A8.251,8.251,0,0,0,264,87.73383V32h80V48h16V32h88a8,8,0,0,1,8,8v80h16V40a24,24,0,0,0-24-24H112A24,24,0,0,0,88,40v96h16V40A8,8,0,0,1,112,32ZM248,68.686l-2.34326-2.34278a8,8,0,0,0-11.31348,0L224,76.686,213.65674,66.34326a8,8,0,0,0-11.31348,0L200,68.686V32h48Z"/><path d="M224,168a7.99977,7.99977,0,0,0-8,8v72a7.99977,7.99977,0,0,0,8,8h96a7.99977,7.99977,0,0,0,8-8V176a7.99977,7.99977,0,0,0-8-8Zm88,72H232V184h80Z"/><rect x="240" y="192" width="32" height="16"/><rect x="288" y="192" width="16" height="16"/><rect x="240" y="216" width="16" height="16"/><rect x="272" y="216" width="32" height="16"/><path d="M72,200a24.0275,24.0275,0,0,1,24,24,8,8,0,0,0,16,0,24.0275,24.0275,0,0,1,24-24,8,8,0,0,0,0-16,24.0275,24.0275,0,0,1-24-24,8,8,0,0,0-16,0,24.0275,24.0275,0,0,1-24,24,8,8,0,0,0,0,16Zm32-16.0249A40.33857,40.33857,0,0,0,112.0249,192,40.33857,40.33857,0,0,0,104,200.0249,40.33857,40.33857,0,0,0,95.9751,192,40.33857,40.33857,0,0,0,104,183.9751Z"/><path d="M344,136a8,8,0,0,0,16,0,24.0275,24.0275,0,0,1,24-24,8,8,0,0,0,0-16,24.0275,24.0275,0,0,1-24-24,8,8,0,0,0-16,0,24.0275,24.0275,0,0,1-24,24,8,8,0,0,0,0,16A24.0275,24.0275,0,0,1,344,136Zm8-40.0249A40.33857,40.33857,0,0,0,360.0249,104,40.33857,40.33857,0,0,0,352,112.0249,40.33857,40.33857,0,0,0,343.9751,104,40.33857,40.33857,0,0,0,352,95.9751Z"/><path d="M488,168a24.0275,24.0275,0,0,1-24-24,8,8,0,0,0-16,0,24.0275,24.0275,0,0,1-24,24,8,8,0,0,0,0,16,24.0275,24.0275,0,0,1,24,24,8,8,0,0,0,16,0,24.0275,24.0275,0,0,1,24-24,8,8,0,0,0,0-16Zm-32,16.0249A40.33857,40.33857,0,0,0,447.9751,176,40.33857,40.33857,0,0,0,456,167.9751,40.33857,40.33857,0,0,0,464.0249,176,40.33857,40.33857,0,0,0,456,184.0249Z"/></g></svg>
