<?xml version="1.0" encoding="iso-8859-1"?>
<svg version="1.1" id="Capa_1" xmlns="http://www.w3.org/2000/svg" xmlns:xlink="http://www.w3.org/1999/xlink" x="0px" y="0px"
	 viewBox="0 0 47.971 47.971" style="enable-background:new 0 0 47.971 47.971;" xml:space="preserve">
  <g><g>
       <path d="m201 356.664 139.381-100.664-139.381-100.664z" data-original="#000000" class="active-path" fill="#000000"/>
       <path d="m256 0c-141.159 0-256 114.841-256 256s114.841 256 256 256 256-114.841 256-256-114.841-256-256-256zm118.782 268.161-180 130c-2.605 1.881-5.687 2.84-8.784 2.84-2.333 0-4.673-.543-6.827-1.645-5.015-2.565-8.171-7.723-8.171-13.356v-260c0-5.633 3.156-10.791 8.171-13.355s11.044-2.103 15.611 1.195l180 130c3.905 2.82 6.218 7.344 6.218 12.16s-2.313 9.341-6.218 12.161z" data-original="#000000" class="active-path" fill="#000000"/></g></g> </svg>
