<svg xmlns="http://www.w3.org/2000/svg" xmlns:xlink="http://www.w3.org/1999/xlink" width="22.903" height="21.733" viewBox="0 0 22.903 21.733">
  <defs>
    <radialGradient id="radial-gradient" cx="0.097" cy="0.054" r="1.132" gradientTransform="translate(0.026) scale(0.949 1)" gradientUnits="objectBoundingBox">
      <stop offset="0" stop-color="#d1d1d1"/>
      <stop offset="1" stop-color="#a7a7a7"/>
    </radialGradient>
    <radialGradient id="radial-gradient-2" cx="0.088" cy="0.008" r="1.187" gradientTransform="translate(0.043) scale(0.915 1)" gradientUnits="objectBoundingBox">
      <stop offset="0" stop-color="#a7a7a7"/>
      <stop offset="1" stop-color="#d1d1d1"/>
    </radialGradient>
  </defs>
  <g id="unconfirm" transform="translate(-641.292 -965.637)">
    <path id="Path_9070" data-name="Path 9070" d="M661.79,965.637H643.7a2.4,2.4,0,0,0-2.4,2.4v12.367a2.4,2.4,0,0,0,2.4,2.4h6.257l.015.031,2.157,4.066a.644.644,0,0,0,1.234,0l2.157-4.066.016-.031h6.257a2.4,2.4,0,0,0,2.405-2.4V968.042A2.4,2.4,0,0,0,661.79,965.637Z" transform="translate(0 0)" fill="url(#radial-gradient)"/>
    <g id="Group_12884" data-name="Group 12884" transform="translate(641.526 966.638)" opacity="0.5" style="mix-blend-mode: multiply;isolation: isolate">
      <path id="Path_9071" data-name="Path 9071" d="M663.314,1074.772a2.4,2.4,0,0,0,2.171,1.37h6.257l.016.031,2.157,4.066a.644.644,0,0,0,1.234,0l2.157-4.066.016-.031h6.257a2.4,2.4,0,0,0,2.405-2.405v-12.367a2.393,2.393,0,0,0-.453-1.4A37.268,37.268,0,0,1,663.314,1074.772Z" transform="translate(-663.314 -1059.966)" fill="url(#radial-gradient-2)"/>
    </g>
    <g id="Group_12907" data-name="Group 12907" transform="translate(647.226 968.152)" opacity="0.5" style="mix-blend-mode: multiply;isolation: isolate">
      <g id="Group_12885" data-name="Group 12885" transform="translate(0.864 0.864)">
        <path id="Path_9072" data-name="Path 9072" d="M1605.444,1289.354c-.39.951-.508,4.7.543,5.563.662.542,4.738.89,5.421.556s.756-1.058.432-1.283c0,0,.468.133.809-.759.37-.966-.172-1.123-.172-1.123s.6-.027.717-.854a1.15,1.15,0,0,0-.313-1.092,1.266,1.266,0,0,0,.431-1.3c-.158-.9-1.4-.727-1.4-.727a15.6,15.6,0,0,1-3.08.1c-.221-.2.954-2.441.561-3.478a1.8,1.8,0,0,0-2.321-.947c-.562.341.283,1.688.011,2.677S1605.75,1288.61,1605.444,1289.354Z" transform="translate(-1601.729 -1283.87)" fill="#fff"/>
        <path id="Path_9073" data-name="Path 9073" d="M1283.086,1686.392c-.849,0-1.475,0-1.475.972v5.011c0,.97.626.972,1.475.972s1.475,0,1.475-.972v-5.011C1284.561,1686.394,1283.936,1686.392,1283.086,1686.392Z" transform="translate(-1281.611 -1682.119)" fill="#fff"/>
      </g>
      <g id="Group_12886" data-name="Group 12886" transform="translate(0.822 0.822)">
        <path id="Path_9074" data-name="Path 9074" d="M1601.571,1285.48c-.39.951-.508,4.7.543,5.563.662.542,4.737.89,5.421.557s.756-1.058.432-1.283c0,0,.468.133.809-.759.37-.966-.172-1.123-.172-1.123s.6-.027.717-.854a1.15,1.15,0,0,0-.313-1.092,1.266,1.266,0,0,0,.431-1.295c-.158-.9-1.4-.727-1.4-.727a15.624,15.624,0,0,1-3.08.1c-.221-.2.953-2.441.561-3.478a1.8,1.8,0,0,0-2.321-.947c-.562.341.283,1.688.011,2.676S1601.876,1284.736,1601.571,1285.48Z" transform="translate(-1597.855 -1279.996)" fill="#f9f9f9"/>
        <path id="Path_9075" data-name="Path 9075" d="M1279.213,1682.518c-.849,0-1.475,0-1.475.972v5.011c0,.97.626.972,1.475.972s1.475,0,1.475-.972v-5.011C1280.688,1682.52,1280.063,1682.518,1279.213,1682.518Z" transform="translate(-1277.738 -1678.245)" fill="#f9f9f9"/>
      </g>
      <g id="Group_12887" data-name="Group 12887" transform="translate(0.781 0.781)">
        <path id="Path_9076" data-name="Path 9076" d="M1597.7,1281.606c-.39.951-.508,4.7.543,5.563.662.542,4.738.89,5.421.556s.756-1.058.432-1.283c0,0,.468.133.809-.759.37-.966-.172-1.123-.172-1.123s.6-.027.717-.854a1.15,1.15,0,0,0-.313-1.092,1.266,1.266,0,0,0,.431-1.3c-.158-.9-1.4-.727-1.4-.727a15.614,15.614,0,0,1-3.08.1c-.221-.2.954-2.442.561-3.478a1.8,1.8,0,0,0-2.321-.946c-.562.341.283,1.687.011,2.676S1598,1280.862,1597.7,1281.606Z" transform="translate(-1593.981 -1276.123)" fill="#f3f3f3"/>
        <path id="Path_9077" data-name="Path 9077" d="M1275.339,1678.644c-.849,0-1.475,0-1.475.972v5.011c0,.969.626.972,1.475.972s1.475,0,1.475-.972v-5.011C1276.814,1678.646,1276.189,1678.644,1275.339,1678.644Z" transform="translate(-1273.864 -1674.371)" fill="#f3f3f3"/>
      </g>
      <g id="Group_12888" data-name="Group 12888" transform="translate(0.74 0.74)">
        <path id="Path_9078" data-name="Path 9078" d="M1593.823,1277.733c-.39.951-.508,4.7.543,5.563.663.542,4.738.89,5.421.556s.756-1.058.432-1.283c0,0,.467.133.809-.759.37-.966-.172-1.123-.172-1.123s.6-.027.716-.854a1.15,1.15,0,0,0-.313-1.092,1.267,1.267,0,0,0,.431-1.295c-.158-.9-1.4-.727-1.4-.727a15.614,15.614,0,0,1-3.08.1c-.221-.2.953-2.442.561-3.478a1.8,1.8,0,0,0-2.321-.947c-.562.341.283,1.688.011,2.676S1594.129,1276.989,1593.823,1277.733Z" transform="translate(-1590.107 -1272.249)" fill="#ededee"/>
        <path id="Path_9079" data-name="Path 9079" d="M1271.465,1674.771c-.849,0-1.475,0-1.475.972v5.011c0,.969.626.972,1.475.972s1.475,0,1.475-.972v-5.011C1272.941,1674.773,1272.315,1674.771,1271.465,1674.771Z" transform="translate(-1269.99 -1670.498)" fill="#ededee"/>
      </g>
      <g id="Group_12889" data-name="Group 12889" transform="translate(0.699 0.699)">
        <path id="Path_9080" data-name="Path 9080" d="M1589.95,1273.859c-.39.951-.508,4.7.543,5.563.662.542,4.738.89,5.421.556s.756-1.058.432-1.283c0,0,.468.133.809-.759.37-.966-.172-1.123-.172-1.123s.6-.027.717-.854a1.15,1.15,0,0,0-.313-1.092,1.266,1.266,0,0,0,.431-1.3c-.158-.9-1.4-.727-1.4-.727a15.614,15.614,0,0,1-3.08.1c-.221-.2.953-2.441.561-3.478a1.8,1.8,0,0,0-2.321-.947c-.562.341.283,1.687.011,2.676S1590.255,1273.115,1589.95,1273.859Z" transform="translate(-1586.234 -1268.375)" fill="#e7e7e8"/>
        <path id="Path_9081" data-name="Path 9081" d="M1267.592,1670.9c-.849,0-1.475,0-1.475.972v5.011c0,.969.626.972,1.475.972s1.475,0,1.475-.972v-5.011C1269.068,1670.9,1268.442,1670.9,1267.592,1670.9Z" transform="translate(-1266.117 -1666.624)" fill="#e7e7e8"/>
      </g>
      <g id="Group_12890" data-name="Group 12890" transform="translate(0.658 0.658)">
        <path id="Path_9082" data-name="Path 9082" d="M1586.076,1269.985c-.39.951-.508,4.7.543,5.563.662.542,4.738.89,5.421.556s.756-1.058.432-1.283c0,0,.468.133.809-.759.37-.966-.172-1.123-.172-1.123s.6-.027.717-.854a1.15,1.15,0,0,0-.312-1.092,1.266,1.266,0,0,0,.431-1.3c-.158-.9-1.4-.727-1.4-.727a15.623,15.623,0,0,1-3.08.1c-.221-.2.954-2.442.561-3.478a1.8,1.8,0,0,0-2.321-.947c-.562.341.283,1.688.011,2.676S1586.381,1269.241,1586.076,1269.985Z" transform="translate(-1582.36 -1264.501)" fill="#e1e1e2"/>
        <path id="Path_9083" data-name="Path 9083" d="M1263.718,1667.023c-.849,0-1.475,0-1.475.972v5.011c0,.969.626.972,1.475.972s1.475,0,1.475-.972v-5.011C1265.194,1667.025,1264.568,1667.023,1263.718,1667.023Z" transform="translate(-1262.243 -1662.75)" fill="#e1e1e2"/>
      </g>
      <g id="Group_12891" data-name="Group 12891" transform="translate(0.617 0.617)">
        <path id="Path_9084" data-name="Path 9084" d="M1582.2,1266.112c-.39.951-.508,4.7.543,5.563.662.542,4.738.89,5.421.556s.756-1.058.432-1.283c0,0,.468.133.809-.759.37-.966-.172-1.123-.172-1.123s.6-.027.717-.854a1.15,1.15,0,0,0-.313-1.092,1.266,1.266,0,0,0,.431-1.3c-.158-.9-1.4-.727-1.4-.727a15.606,15.606,0,0,1-3.08.1c-.221-.2.953-2.441.561-3.478a1.8,1.8,0,0,0-2.321-.946c-.562.341.283,1.687.011,2.676S1582.508,1265.368,1582.2,1266.112Z" transform="translate(-1578.487 -1260.628)" fill="#dbdbdc"/>
        <path id="Path_9085" data-name="Path 9085" d="M1259.844,1663.149c-.849,0-1.475,0-1.475.972v5.011c0,.969.626.972,1.475.972s1.475,0,1.475-.972v-5.011C1261.32,1663.151,1260.694,1663.149,1259.844,1663.149Z" transform="translate(-1258.369 -1658.876)" fill="#dbdbdc"/>
      </g>
      <g id="Group_12892" data-name="Group 12892" transform="translate(0.576 0.576)">
        <path id="Path_9086" data-name="Path 9086" d="M1578.329,1262.238c-.39.951-.508,4.7.543,5.563.662.542,4.737.891,5.421.556s.756-1.058.432-1.283c0,0,.468.133.809-.759.37-.966-.172-1.123-.172-1.123s.6-.027.717-.854a1.15,1.15,0,0,0-.313-1.092,1.266,1.266,0,0,0,.431-1.3c-.158-.9-1.4-.727-1.4-.727a15.641,15.641,0,0,1-3.08.1c-.221-.2.953-2.441.561-3.478a1.8,1.8,0,0,0-2.321-.947c-.562.341.283,1.687.011,2.676S1578.634,1261.494,1578.329,1262.238Z" transform="translate(-1574.613 -1256.754)" fill="#d5d5d6"/>
        <path id="Path_9087" data-name="Path 9087" d="M1255.97,1659.276c-.849,0-1.475,0-1.475.972v5.012c0,.969.626.972,1.475.972s1.475,0,1.475-.972v-5.012C1257.445,1659.278,1256.82,1659.276,1255.97,1659.276Z" transform="translate(-1254.495 -1655.003)" fill="#d5d5d6"/>
      </g>
      <g id="Group_12893" data-name="Group 12893" transform="translate(0.535 0.535)">
        <path id="Path_9088" data-name="Path 9088" d="M1574.455,1258.364c-.39.951-.508,4.7.543,5.563.662.542,4.738.89,5.421.556s.756-1.058.432-1.283c0,0,.468.133.809-.759.37-.966-.172-1.123-.172-1.123s.6-.027.717-.854a1.15,1.15,0,0,0-.313-1.092,1.266,1.266,0,0,0,.431-1.3c-.158-.9-1.4-.727-1.4-.727a15.622,15.622,0,0,1-3.08.1c-.221-.2.954-2.442.561-3.478a1.8,1.8,0,0,0-2.321-.947c-.562.341.283,1.688.011,2.676S1574.76,1257.62,1574.455,1258.364Z" transform="translate(-1570.739 -1252.88)" fill="#cfcfd1"/>
        <path id="Path_9089" data-name="Path 9089" d="M1252.1,1655.4c-.849,0-1.475,0-1.475.972v5.011c0,.97.626.972,1.475.972s1.475,0,1.475-.972v-5.011C1253.572,1655.4,1252.947,1655.4,1252.1,1655.4Z" transform="translate(-1250.622 -1651.129)" fill="#cfcfd1"/>
      </g>
      <g id="Group_12894" data-name="Group 12894" transform="translate(0.493 0.493)">
        <path id="Path_9090" data-name="Path 9090" d="M1570.581,1254.49c-.39.951-.508,4.7.543,5.563.662.542,4.738.89,5.421.556s.756-1.058.432-1.283c0,0,.468.133.809-.759.37-.966-.172-1.123-.172-1.123s.6-.027.717-.854a1.151,1.151,0,0,0-.313-1.092,1.266,1.266,0,0,0,.431-1.3c-.158-.9-1.4-.727-1.4-.727a15.612,15.612,0,0,1-3.08.1c-.221-.2.953-2.442.561-3.478a1.8,1.8,0,0,0-2.321-.947c-.562.341.283,1.688.011,2.676S1570.886,1253.746,1570.581,1254.49Z" transform="translate(-1566.865 -1249.006)" fill="#c9c9cb"/>
        <path id="Path_9091" data-name="Path 9091" d="M1248.223,1651.528c-.849,0-1.475,0-1.475.972v5.012c0,.969.626.972,1.475.972s1.475,0,1.475-.972V1652.5C1249.7,1651.53,1249.073,1651.528,1248.223,1651.528Z" transform="translate(-1246.748 -1647.255)" fill="#c9c9cb"/>
      </g>
      <g id="Group_12895" data-name="Group 12895" transform="translate(0.452 0.452)">
        <path id="Path_9092" data-name="Path 9092" d="M1566.707,1250.617c-.39.951-.508,4.7.543,5.563.662.542,4.738.89,5.421.556s.756-1.058.432-1.283c0,0,.468.133.809-.759.37-.966-.172-1.123-.172-1.123s.6-.027.717-.854a1.15,1.15,0,0,0-.313-1.092,1.266,1.266,0,0,0,.431-1.295c-.158-.9-1.4-.727-1.4-.727a15.6,15.6,0,0,1-3.08.1c-.221-.2.953-2.441.561-3.478a1.8,1.8,0,0,0-2.321-.947c-.562.341.283,1.688.011,2.677S1567.012,1249.873,1566.707,1250.617Z" transform="translate(-1562.991 -1245.133)" fill="#c3c3c5"/>
        <path id="Path_9093" data-name="Path 9093" d="M1244.349,1647.655c-.849,0-1.475,0-1.475.972v5.011c0,.969.626.972,1.475.972s1.475,0,1.475-.972v-5.011C1245.824,1647.657,1245.2,1647.655,1244.349,1647.655Z" transform="translate(-1242.874 -1643.382)" fill="#c3c3c5"/>
      </g>
      <g id="Group_12896" data-name="Group 12896" transform="translate(0.411 0.411)">
        <path id="Path_9094" data-name="Path 9094" d="M1562.834,1246.743c-.39.951-.508,4.7.543,5.563.662.542,4.738.89,5.421.556s.756-1.058.432-1.283c0,0,.468.133.809-.759.37-.966-.172-1.123-.172-1.123s.6-.027.717-.854a1.15,1.15,0,0,0-.313-1.092,1.266,1.266,0,0,0,.431-1.3c-.158-.9-1.4-.727-1.4-.727a15.6,15.6,0,0,1-3.08.1c-.221-.2.954-2.441.561-3.478a1.8,1.8,0,0,0-2.321-.947c-.562.341.283,1.688.011,2.676S1563.139,1246,1562.834,1246.743Z" transform="translate(-1559.118 -1241.259)" fill="#bcbebf"/>
        <path id="Path_9095" data-name="Path 9095" d="M1240.476,1643.781c-.849,0-1.475,0-1.475.972v5.011c0,.969.626.972,1.475.972s1.475,0,1.475-.972v-5.011C1241.952,1643.783,1241.326,1643.781,1240.476,1643.781Z" transform="translate(-1239.001 -1639.508)" fill="#bcbebf"/>
      </g>
      <g id="Group_12897" data-name="Group 12897" transform="translate(0.37 0.37)">
        <path id="Path_9096" data-name="Path 9096" d="M1558.96,1242.869c-.39.951-.508,4.7.543,5.563.662.542,4.738.89,5.421.556s.756-1.058.432-1.283c0,0,.468.133.809-.759.37-.966-.172-1.123-.172-1.123s.6-.027.717-.854a1.15,1.15,0,0,0-.313-1.092,1.267,1.267,0,0,0,.431-1.3c-.158-.9-1.4-.727-1.4-.727a15.622,15.622,0,0,1-3.08.1c-.221-.2.954-2.442.561-3.478a1.8,1.8,0,0,0-2.321-.947c-.562.341.283,1.688.011,2.676S1559.265,1242.125,1558.96,1242.869Z" transform="translate(-1555.244 -1237.385)" fill="#b6b8b9"/>
        <path id="Path_9097" data-name="Path 9097" d="M1236.6,1639.907c-.849,0-1.475,0-1.475.972v5.011c0,.97.626.972,1.475.972s1.475,0,1.475-.972v-5.011C1238.077,1639.909,1237.452,1639.907,1236.6,1639.907Z" transform="translate(-1235.127 -1635.634)" fill="#b6b8b9"/>
      </g>
      <g id="Group_12898" data-name="Group 12898" transform="translate(0.329 0.329)">
        <path id="Path_9098" data-name="Path 9098" d="M1555.086,1239c-.39.951-.508,4.7.543,5.563.662.542,4.738.89,5.421.556s.756-1.058.432-1.283c0,0,.468.133.809-.759.37-.966-.172-1.123-.172-1.123s.6-.027.717-.854a1.15,1.15,0,0,0-.313-1.092,1.266,1.266,0,0,0,.431-1.295c-.158-.9-1.4-.727-1.4-.727a15.6,15.6,0,0,1-3.08.1c-.221-.2.954-2.441.561-3.478a1.8,1.8,0,0,0-2.321-.947c-.562.341.283,1.688.011,2.676S1555.391,1238.252,1555.086,1239Z" transform="translate(-1551.371 -1233.512)" fill="#b0b2b3"/>
        <path id="Path_9099" data-name="Path 9099" d="M1232.728,1636.034c-.849,0-1.475,0-1.475.972v5.012c0,.969.626.972,1.475.972s1.475,0,1.475-.972v-5.012C1234.2,1636.036,1233.578,1636.034,1232.728,1636.034Z" transform="translate(-1231.253 -1631.761)" fill="#b0b2b3"/>
      </g>
      <g id="Group_12899" data-name="Group 12899" transform="translate(0.288 0.288)">
        <path id="Path_9100" data-name="Path 9100" d="M1551.213,1235.122c-.39.951-.508,4.7.543,5.563.662.542,4.738.89,5.421.557s.756-1.058.432-1.283c0,0,.468.133.809-.759.37-.966-.172-1.123-.172-1.123s.6-.027.717-.854a1.15,1.15,0,0,0-.313-1.092,1.266,1.266,0,0,0,.431-1.295c-.158-.9-1.4-.727-1.4-.727a15.626,15.626,0,0,1-3.08.1c-.221-.2.954-2.441.561-3.478a1.8,1.8,0,0,0-2.321-.947c-.562.341.283,1.688.011,2.676S1551.518,1234.378,1551.213,1235.122Z" transform="translate(-1547.497 -1229.638)" fill="#aaacae"/>
        <path id="Path_9101" data-name="Path 9101" d="M1228.855,1632.16c-.849,0-1.475,0-1.475.972v5.011c0,.969.626.972,1.475.972s1.475,0,1.475-.972v-5.011C1230.33,1632.162,1229.7,1632.16,1228.855,1632.16Z" transform="translate(-1227.38 -1627.887)" fill="#aaacae"/>
      </g>
      <g id="Group_12900" data-name="Group 12900" transform="translate(0.247 0.247)">
        <path id="Path_9102" data-name="Path 9102" d="M1547.339,1231.248c-.39.951-.508,4.7.543,5.563.662.542,4.738.89,5.421.556s.756-1.058.432-1.283c0,0,.468.133.809-.759.37-.966-.172-1.123-.172-1.123s.6-.027.717-.854a1.15,1.15,0,0,0-.313-1.092,1.267,1.267,0,0,0,.431-1.3c-.158-.9-1.4-.727-1.4-.727a15.614,15.614,0,0,1-3.08.1c-.221-.2.954-2.442.561-3.478a1.8,1.8,0,0,0-2.321-.947c-.562.341.283,1.688.011,2.676S1547.645,1230.5,1547.339,1231.248Z" transform="translate(-1543.623 -1225.764)" fill="#a4a6a8"/>
        <path id="Path_9103" data-name="Path 9103" d="M1224.981,1628.286c-.849,0-1.475,0-1.475.972v5.011c0,.969.626.972,1.475.972s1.475,0,1.475-.972v-5.011C1226.456,1628.288,1225.831,1628.286,1224.981,1628.286Z" transform="translate(-1223.506 -1624.013)" fill="#a4a6a8"/>
      </g>
      <g id="Group_12901" data-name="Group 12901" transform="translate(0.206 0.206)">
        <path id="Path_9104" data-name="Path 9104" d="M1543.465,1227.375c-.39.951-.508,4.7.543,5.563.662.542,4.738.89,5.421.556s.756-1.058.432-1.283c0,0,.468.133.809-.759.37-.966-.172-1.123-.172-1.123s.6-.027.717-.854a1.15,1.15,0,0,0-.313-1.092,1.266,1.266,0,0,0,.431-1.3c-.158-.9-1.4-.727-1.4-.727a15.6,15.6,0,0,1-3.08.1c-.221-.2.953-2.441.561-3.478a1.8,1.8,0,0,0-2.321-.947c-.562.341.283,1.688.011,2.677S1543.771,1226.63,1543.465,1227.375Z" transform="translate(-1539.75 -1221.891)" fill="#9ea0a2"/>
        <path id="Path_9105" data-name="Path 9105" d="M1221.107,1624.412c-.849,0-1.475,0-1.475.972v5.011c0,.969.626.972,1.475.972s1.475,0,1.475-.972v-5.011C1222.583,1624.414,1221.957,1624.412,1221.107,1624.412Z" transform="translate(-1219.632 -1620.139)" fill="#9ea0a2"/>
      </g>
      <g id="Group_12902" data-name="Group 12902" transform="translate(0.164 0.165)">
        <path id="Path_9106" data-name="Path 9106" d="M1539.592,1223.5c-.39.951-.508,4.7.543,5.563.662.542,4.738.89,5.421.556s.756-1.058.432-1.283c0,0,.468.133.809-.759.37-.966-.172-1.123-.172-1.123s.6-.027.717-.854a1.15,1.15,0,0,0-.313-1.092,1.266,1.266,0,0,0,.431-1.295c-.158-.9-1.4-.727-1.4-.727a15.616,15.616,0,0,1-3.08.1c-.221-.2.954-2.441.561-3.478a1.8,1.8,0,0,0-2.321-.947c-.562.341.283,1.687.011,2.676S1539.9,1222.757,1539.592,1223.5Z" transform="translate(-1535.876 -1218.017)" fill="#989a9c"/>
        <path id="Path_9107" data-name="Path 9107" d="M1217.233,1620.539c-.85,0-1.475,0-1.475.972v5.011c0,.969.626.972,1.475.972s1.475,0,1.475-.972v-5.011C1218.708,1620.541,1218.083,1620.539,1217.233,1620.539Z" transform="translate(-1215.758 -1616.266)" fill="#989a9c"/>
      </g>
      <g id="Group_12903" data-name="Group 12903" transform="translate(0.123 0.123)">
        <path id="Path_9108" data-name="Path 9108" d="M1535.718,1219.627c-.39.951-.508,4.7.543,5.563.663.542,4.738.89,5.421.556s.756-1.058.432-1.283c0,0,.468.133.809-.759.37-.966-.172-1.123-.172-1.123s.6-.027.717-.854a1.15,1.15,0,0,0-.313-1.092,1.266,1.266,0,0,0,.431-1.3c-.158-.9-1.4-.727-1.4-.727a15.624,15.624,0,0,1-3.08.1c-.221-.2.954-2.442.561-3.478a1.8,1.8,0,0,0-2.321-.946c-.562.341.283,1.687.011,2.676S1536.023,1218.883,1535.718,1219.627Z" transform="translate(-1532.002 -1214.143)" fill="#929496"/>
        <path id="Path_9109" data-name="Path 9109" d="M1213.36,1616.665c-.849,0-1.475,0-1.475.972v5.011c0,.969.626.972,1.475.972s1.475,0,1.475-.972v-5.011C1214.835,1616.667,1214.21,1616.665,1213.36,1616.665Z" transform="translate(-1211.885 -1612.392)" fill="#929496"/>
      </g>
      <g id="Group_12904" data-name="Group 12904" transform="translate(0.082 0.082)">
        <path id="Path_9110" data-name="Path 9110" d="M1531.844,1215.753c-.39.951-.508,4.7.543,5.563.662.541,4.738.89,5.421.556s.756-1.058.432-1.283c0,0,.468.133.809-.759.37-.966-.172-1.123-.172-1.123s.6-.027.717-.854a1.15,1.15,0,0,0-.312-1.092,1.266,1.266,0,0,0,.431-1.295c-.158-.9-1.4-.727-1.4-.727a15.614,15.614,0,0,1-3.08.1c-.221-.2.954-2.441.561-3.478a1.8,1.8,0,0,0-2.321-.947c-.562.341.283,1.688.011,2.676S1532.149,1215.009,1531.844,1215.753Z" transform="translate(-1528.128 -1210.269)" fill="#8c8e91"/>
        <path id="Path_9111" data-name="Path 9111" d="M1209.486,1612.791c-.849,0-1.475,0-1.475.972v5.011c0,.97.626.972,1.475.972s1.475,0,1.475-.972v-5.011C1210.961,1612.793,1210.336,1612.791,1209.486,1612.791Z" transform="translate(-1208.011 -1608.518)" fill="#8c8e91"/>
      </g>
      <g id="Group_12905" data-name="Group 12905" transform="translate(0.041 0.041)">
        <path id="Path_9112" data-name="Path 9112" d="M1527.971,1211.88c-.39.951-.508,4.7.543,5.563.662.542,4.737.89,5.421.557s.756-1.058.432-1.283c0,0,.468.133.809-.759.37-.966-.172-1.123-.172-1.123s.6-.027.716-.854a1.15,1.15,0,0,0-.313-1.092,1.266,1.266,0,0,0,.431-1.295c-.158-.9-1.4-.727-1.4-.727a15.623,15.623,0,0,1-3.08.1c-.221-.2.954-2.442.561-3.478a1.8,1.8,0,0,0-2.321-.947c-.562.341.283,1.688.011,2.676S1528.276,1211.136,1527.971,1211.88Z" transform="translate(-1524.255 -1206.396)" fill="#86888b"/>
        <path id="Path_9113" data-name="Path 9113" d="M1205.612,1608.918c-.849,0-1.475,0-1.475.972v5.011c0,.97.626.972,1.475.972s1.475,0,1.475-.972v-5.011C1207.087,1608.92,1206.462,1608.918,1205.612,1608.918Z" transform="translate(-1204.137 -1604.645)" fill="#86888b"/>
      </g>
      <g id="Group_12906" data-name="Group 12906" transform="translate(0)">
        <path id="Path_9114" data-name="Path 9114" d="M1524.1,1208.006c-.39.951-.508,4.7.543,5.563.662.542,4.738.89,5.421.556s.756-1.058.432-1.283c0,0,.468.133.809-.759.37-.966-.172-1.123-.172-1.123s.6-.027.717-.854a1.15,1.15,0,0,0-.313-1.092,1.267,1.267,0,0,0,.431-1.3c-.158-.9-1.4-.727-1.4-.727a15.624,15.624,0,0,1-3.08.1c-.221-.2.954-2.442.561-3.478a1.8,1.8,0,0,0-2.321-.947c-.562.341.283,1.688.011,2.676S1524.4,1207.262,1524.1,1208.006Z" transform="translate(-1520.381 -1202.522)" fill="#808285"/>
        <path id="Path_9115" data-name="Path 9115" d="M1201.739,1605.044c-.849,0-1.475,0-1.475.972v5.011c0,.97.626.972,1.475.972s1.475,0,1.475-.972v-5.011C1203.214,1605.046,1202.589,1605.044,1201.739,1605.044Z" transform="translate(-1200.264 -1600.771)" fill="#808285"/>
      </g>
    </g>
    <g id="Group_12908" data-name="Group 12908" transform="translate(647.226 968.152)">
      <path id="Path_9116" data-name="Path 9116" d="M1524.1,1208.006c-.39.951-.508,4.7.543,5.563.662.542,4.738.89,5.421.556s.756-1.058.432-1.283c0,0,.468.133.809-.759.37-.966-.172-1.123-.172-1.123s.6-.027.717-.854a1.15,1.15,0,0,0-.313-1.092,1.267,1.267,0,0,0,.431-1.3c-.158-.9-1.4-.727-1.4-.727a15.624,15.624,0,0,1-3.08.1c-.221-.2.954-2.442.561-3.478a1.8,1.8,0,0,0-2.321-.947c-.562.341.283,1.688.011,2.676S1524.4,1207.262,1524.1,1208.006Z" transform="translate(-1520.381 -1202.522)" fill="#fff"/>
      <path id="Path_9117" data-name="Path 9117" d="M1201.739,1605.044c-.849,0-1.475,0-1.475.972v5.011c0,.97.626.972,1.475.972s1.475,0,1.475-.972v-5.011C1203.214,1605.046,1202.589,1605.044,1201.739,1605.044Z" transform="translate(-1200.264 -1600.771)" fill="#fff"/>
    </g>
    <g id="Group_12909" data-name="Group 12909" transform="translate(647.226 974.689)">
      <path id="Path_9118" data-name="Path 9118" d="M1538.2,1822.8c.663.541,4.738.89,5.421.556s.756-1.058.432-1.283c0,0,.468.133.809-.759.37-.966-.172-1.123-.172-1.123s.6-.027.717-.854a1.214,1.214,0,0,0-.266-1.048,23.361,23.361,0,0,1-7.62,2.985A2.634,2.634,0,0,0,1538.2,1822.8Z" transform="translate(-1533.946 -1818.29)" fill="#eee"/>
      <path id="Path_9119" data-name="Path 9119" d="M1200.264,2111.1c0,.97.626.972,1.475.972s1.475,0,1.475-.972v-.617a23.5,23.5,0,0,1-2.951.317Z" transform="translate(-1200.264 -2107.378)" fill="#eee"/>
    </g>
  </g>
</svg>
