<svg id="Layer_1" data-name="Layer 1" xmlns="http://www.w3.org/2000/svg" viewBox="0 0 24 24"><defs><style>.cls-1{fill:#58595b;}</style></defs><title>020_Pencil13</title><path class="cls-1" d="M23.34,6.66,21.18,8.82a.56.56,0,0,1-.8,0l-5.2-5.2a.56.56,0,0,1,0-.8L17.34.66a2.25,2.25,0,0,1,3.18,0l2.82,2.82A2.25,2.25,0,0,1,23.34,6.66Zm-10-2L1,17l-1,5.7A1.13,1.13,0,0,0,1.32,24L7,23,19.33,10.68a.56.56,0,0,0,0-.8l-5.2-5.2a.57.57,0,0,0-.8,0ZM5.82,15.93a.65.65,0,0,1,0-.93L13,7.78a.66.66,0,1,1,.93.93L6.74,15.93a.65.65,0,0,1-.93,0ZM4.12,19.87H6.37v1.7l-3,.53L1.89,20.65l.53-3h1.7Z"/></svg>