<svg xmlns="http://www.w3.org/2000/svg" width="25.338" height="30" viewBox="0 0 25.338 30">
  <g id="Group_13443" data-name="Group 13443" transform="translate(-165 -335.745)">
    <path id="Path_9619" data-name="Path 9619" d="M175.623,339.551a13.221,13.221,0,0,1,1.5.346,6.7,6.7,0,0,1,2.253,11.453l-.208.185.24.126a9.96,9.96,0,0,1,5.613,8.09,10.113,10.113,0,0,1,.043,1.175c0,2.19-.013,4.38.01,6.57a1.345,1.345,0,0,1-.9,1.456h-18.26a1.341,1.341,0,0,1-.919-.919v-8.1a2.062,2.062,0,0,0,.05-.22,9.937,9.937,0,0,1,5.486-7.993c.115-.062.231-.12.365-.189-.08-.069-.138-.117-.194-.168a6.7,6.7,0,0,1,2.157-11.444,13.155,13.155,0,0,1,1.553-.371Zm7.136,27.089c0-.1.012-.175.012-.251,0-1.876.009-3.751-.006-5.627a9.023,9.023,0,0,0-.133-1.483,7.732,7.732,0,0,0-15.334,1.47c0,1.866,0,3.732,0,5.6v.293Zm-3.324-20.387a4.4,4.4,0,1,0-4.4,4.4A4.4,4.4,0,0,0,179.435,346.253Z" transform="translate(0 -3.806)" fill="#505050"/>
    <g id="Group_13448" data-name="Group 13448" transform="translate(175.038 350.445)">
      <g id="Ellipse_210" data-name="Ellipse 210" fill="#fff" stroke="#505050" stroke-width="2">
        <circle cx="7.65" cy="7.65" r="7.65" stroke="none"/>
        <circle cx="7.65" cy="7.65" r="6.65" fill="none"/>
      </g>
      <path id="Path_9620" data-name="Path 9620" d="M483.714,456.548a.784.784,0,0,1-.859.526c-.546-.019-1.093,0-1.639,0h-.206v.192q0,.887,0,1.774a.678.678,0,1,1-1.351,0q0-.879,0-1.758v-.206h-.209c-.6,0-1.194.007-1.791,0a.673.673,0,0,1-.664-.9.68.68,0,0,1,.685-.45c.586,0,1.172,0,1.758,0h.223v-.193c0-.591,0-1.183,0-1.774a.678.678,0,1,1,1.351,0q0,.879,0,1.758v.2c.073,0,.133.009.193.009.552,0,1.1.014,1.656,0a.777.777,0,0,1,.855.531Z" transform="translate(-472.683 -448.721)" fill="#505050" stroke="#505050" stroke-width="0.25"/>
    </g>
  </g>
</svg>
