<svg xmlns="http://www.w3.org/2000/svg" width="30.008" height="30" viewBox="0 0 30.008 30">
  <g id="Group_13440" data-name="Group 13440" transform="translate(-1612.042 -436.721)">
    <g id="Group_13439" data-name="Group 13439" transform="translate(1613.042 437.721)">
      <g id="Group_12620" data-name="Group 12620" transform="translate(0 0)">
        <g id="Group_12619" data-name="Group 12619">
          <path id="Path_8491" data-name="Path 8491" d="M15.663,14.136,21.32,20.9,30.6,10.346" transform="translate(-7.72 -5.465)" fill="none" stroke="#505050" stroke-linecap="round" stroke-linejoin="round" stroke-width="2"/>
          <path id="_" data-name=" " d="M15.767,7.855a4.158,4.158,0,0,0-4.158,4.158h0V31.7a4.158,4.158,0,0,0,4.158,4.158h19.69a4.158,4.158,0,0,0,4.16-4.158V12.013a4.158,4.158,0,0,0-4.16-4.158Z" transform="translate(-11.609 -7.855)" fill="none" stroke="#505050" stroke-width="2"/>
          <path id="_." data-name=" ." d="M22.946,30.751a1.469,1.469,0,1,1,1.47,1.47,1.47,1.47,0,0,1-1.47-1.47ZM33.039,20.66a1.468,1.468,0,1,1,1.468,1.468,1.467,1.467,0,0,1-1.468-1.468Zm-20.184,0a1.468,1.468,0,1,1,1.468,1.468h0A1.467,1.467,0,0,1,12.855,20.66ZM22.946,10.573a1.469,1.469,0,1,1,1.47,1.468h0A1.468,1.468,0,0,1,22.946,10.573Z" transform="translate(-10.414 -6.656)" fill="#505050" stroke="#505050" stroke-width="0.5"/>
        </g>
      </g>
    </g>
  </g>
</svg>
