<svg xmlns="http://www.w3.org/2000/svg" xmlns:xlink="http://www.w3.org/1999/xlink" width="27.978" height="24" viewBox="0 0 27.978 24">
  <defs>
    <clipPath id="clip-path">
      <rect id="Rectangle_1778" data-name="Rectangle 1778" width="27.978" height="24" transform="translate(-0.028)" fill="none"/>
    </clipPath>
  </defs>
  <g id="Group_13398" data-name="Group 13398" transform="translate(0.028)">
    <g id="Group_13391" data-name="Group 13391">
      <g id="Group_13399" data-name="Group 13399">
        <path id="Path_9576" data-name="Path 9576" d="M3.972,12.372a4,4,0,1,0,4,4,4,4,0,0,0-4-4" fill="#3f3f3f"/>
        <path id="Path_9577" data-name="Path 9577" d="M15.95,0A12,12,0,0,0,4.012,10.774a5.588,5.588,0,0,1,1.6.243A10.4,10.4,0,1,1,8.68,19.4a5.63,5.63,0,0,1-1.065,1.218A12,12,0,1,0,15.95,0" fill="#00bed6"/>
      </g>
    </g>
    <line id="Line_226" data-name="Line 226" y2="5" transform="translate(3.972 13.875)" fill="none" stroke="#fff" stroke-width="1.026"/>
    <g id="Group_13393" data-name="Group 13393">
      <g id="Group_13392" data-name="Group 13392" clip-path="url(#clip-path)">
        <line id="Line_227" data-name="Line 227" x2="5" transform="translate(1.472 16.372)" fill="none" stroke="#fff" stroke-width="1.026"/>
      </g>
    </g>
    <path id="Path_9578" data-name="Path 9578" d="M15.119,7.523h1.665V5.886H15.119ZM16.784,9.5H13.777v1.116h1.5v6.153h-1.5v1.116h4.367V16.771h-1.36Z" fill="#00bed6"/>
    <g id="Group_13395" data-name="Group 13395">
      <g id="Group_13400" data-name="Group 13400">
        <path id="Path_9579" data-name="Path 9579" d="M3.972,12.372a4,4,0,1,0,4,4,4,4,0,0,0-4-4" fill="#00bed6"/>
      </g>
    </g>
    <line id="Line_228" data-name="Line 228" y2="5" transform="translate(3.972 13.875)" fill="none" stroke="#fff" stroke-width="1.026"/>
    <g id="Group_13397" data-name="Group 13397">
      <g id="Group_13396" data-name="Group 13396" clip-path="url(#clip-path)">
        <line id="Line_229" data-name="Line 229" x2="5" transform="translate(1.472 16.372)" fill="none" stroke="#fff" stroke-width="1.026"/>
      </g>
    </g>
  </g>
</svg>
