<svg id="Group_13583" data-name="Group 13583" xmlns="http://www.w3.org/2000/svg" width="25.766" height="18.918" viewBox="0 0 25.766 18.918">
  <line id="Line_376" data-name="Line 376" x1="17.075" transform="translate(7.691 2.088)" fill="none" stroke="#505050" stroke-linecap="round" stroke-width="2"/>
  <line id="Line_377" data-name="Line 377" x2="17.075" transform="translate(7.691 9.459)" fill="none" stroke="#505050" stroke-linecap="round" stroke-width="2"/>
  <line id="Line_378" data-name="Line 378" x1="17.075" transform="translate(7.691 16.83)" fill="none" stroke="#505050" stroke-linecap="round" stroke-width="2"/>
  <path id="Path_9062" data-name="Path 9062" d="M4.554,3.653A2.089,2.089,0,1,0,6.643,5.741,2.089,2.089,0,0,0,4.554,3.653" transform="translate(-2.465 -3.653)" fill="#505050"/>
  <path id="Path_9063" data-name="Path 9063" d="M4.554,10.491a2.089,2.089,0,1,0,2.089,2.088,2.089,2.089,0,0,0-2.089-2.088" transform="translate(-2.465 -3.121)" fill="#505050"/>
  <path id="Path_9064" data-name="Path 9064" d="M4.554,16.947a2.089,2.089,0,1,0,2.089,2.089,2.09,2.09,0,0,0-2.089-2.089" transform="translate(-2.465 -2.207)" fill="#505050"/>
</svg>
