<svg xmlns="http://www.w3.org/2000/svg" width="35.995" height="35.725" viewBox="0 0 35.995 35.725">
  <g id="reload" transform="translate(-1 -1.113)">
    <path id="Path_9825" data-name="Path 9825" d="M3.874,9.7,3.33,8.14A1.193,1.193,0,0,0,1.8,7.4a1.228,1.228,0,0,0-.73,1.56l1.467,4.216a1.227,1.227,0,0,0,1.322.8l4.558-.748a1.22,1.22,0,0,0,.993-1.4A1.2,1.2,0,0,0,8.034,10.81l-2.241.368a15.411,15.411,0,0,1,13.3-7.661,15.667,15.667,0,0,1,15.5,15.792,1.2,1.2,0,1,0,2.4,0C36.84.971,13.385-5.748,3.874,9.7Z" transform="translate(0)" fill="#505050"/>
    <path id="Path_9826" data-name="Path 9826" d="M35.455,22.358a1.232,1.232,0,0,0-1.322-.8l-4.556.748a1.22,1.22,0,0,0-.993,1.4,1.2,1.2,0,0,0,1.375,1.012l2.239-.368a15.408,15.408,0,0,1-13.3,7.661A15.667,15.667,0,0,1,3.4,16.222a1.2,1.2,0,1,0-2.4,0c.151,18.337,23.608,25.057,33.118,9.608.336.8.517,2.434,1.674,2.375a1.225,1.225,0,0,0,1.131-1.63Z" transform="translate(0 2.42)" fill="#505050"/>
    <path id="Path_9827" data-name="Path 9827" d="M17.457,8.519a5.107,5.107,0,0,0-5.194,5V14.7h-1.6a1.2,1.2,0,0,0-1.222,1.178v9.082a1.2,1.2,0,0,0,1.222,1.178H24.254a1.2,1.2,0,0,0,1.222-1.178V15.879A1.2,1.2,0,0,0,24.254,14.7h-1.6V13.523a5.107,5.107,0,0,0-5.194-5Zm-2.75,5a2.752,2.752,0,0,1,5.5,0V14.7h-5.5Zm8.325,3.534v6.727H11.883V17.057Z" transform="translate(1.539 1.646)" fill="#505050"/>
  </g>
</svg>
