<svg xmlns="http://www.w3.org/2000/svg" width="30.007" height="30" viewBox="0 0 30.007 30">
  <path id="Path_9622" data-name="Path 9622" d="M319.693,285.728H295.781a1.9,1.9,0,0,0-.188-.061,3.406,3.406,0,0,1-2.368-1.691,9.039,9.039,0,0,1-.492-1.295V258.775a1.776,1.776,0,0,0,.06-.189,3.51,3.51,0,0,1,3.4-2.854q10.486-.012,20.971,0a.551.551,0,0,1,.351.147q2.546,2.528,5.075,5.073a.551.551,0,0,1,.147.351q.01,10.483,0,20.967A3.39,3.39,0,0,1,321.361,285,4.232,4.232,0,0,1,319.693,285.728Zm-20.1-27.656h-3.1c-.979,0-1.411.431-1.411,1.407q0,11.249,0,22.5c0,.1,0,.2,0,.293a1.093,1.093,0,0,0,.831,1.048,10.225,10.225,0,0,0,1.335.087v-.416q0-4.892,0-9.784a3.519,3.519,0,0,1,3.66-3.647H314.62a3.519,3.519,0,0,1,3.666,3.671q0,4.892,0,9.784v.372h.811a1.184,1.184,0,0,0,1.3-1.285q0-9.887-.007-19.774a.67.67,0,0,0-.178-.425c-1.193-1.21-2.4-2.4-3.595-3.614a.628.628,0,0,0-.673-.185v.312q0,2.607,0,5.214a3.515,3.515,0,0,1-3.576,3.584q-4.6.006-9.2,0a3.719,3.719,0,0,1-.868-.1,3.491,3.491,0,0,1-2.7-3.453C299.588,261.808,299.591,259.963,299.591,258.072Zm0,25.291h16.351v-.311q0-4.907,0-9.814a1.194,1.194,0,0,0-1.334-1.338H300.924a1.193,1.193,0,0,0-1.333,1.338q0,4.907,0,9.814Zm2.344-25.277v.307q0,2.577,0,5.154a1.19,1.19,0,0,0,1.32,1.321h9.022a1.191,1.191,0,0,0,1.32-1.322q0-2.577,0-5.154v-.306h-2.349V262.5H308.9v-4.417Z" transform="translate(-292.734 -255.728)" fill="#505050"/>
</svg>
