<svg xmlns="http://www.w3.org/2000/svg" xmlns:xlink="http://www.w3.org/1999/xlink" width="22" height="22" viewBox="0 0 22 22">
  <defs>
    <clipPath id="clip-path">
      <rect id="Rectangle_945" data-name="Rectangle 945" width="22" height="22" transform="translate(0.085 0.465)" fill="none"/>
    </clipPath>
  </defs>
  <g id="Group_13475" data-name="Group 13475" transform="translate(-0.085 -0.465)">
    <g id="Group_11265" data-name="Group 11265" transform="translate(0 0)">
      <g id="Group_11264" data-name="Group 11264" transform="translate(0 0)" clip-path="url(#clip-path)">
        <path id="Path_7587" data-name="Path 7587" d="M-180.278,298.814h-15.6v-15.6h15.6Zm2.6-16.338c.484-.752.949-1.476.281-2.143s-1.391-.2-2.143.281a2.442,2.442,0,0,1-1.038.49,2.153,2.153,0,0,1-1.027-.464,2.642,2.642,0,0,0-1.481-.6,2.7,2.7,0,0,0-1.5.607,2.06,2.06,0,0,1-1,.452,2.057,2.057,0,0,1-1-.452,2.7,2.7,0,0,0-1.5-.607,2.706,2.706,0,0,0-1.5.607,2.054,2.054,0,0,1-.995.452,2.053,2.053,0,0,1-1-.452,2.706,2.706,0,0,0-1.5-.607,2.641,2.641,0,0,0-1.48.6,2.156,2.156,0,0,1-1.028.464,2.452,2.452,0,0,1-1.038-.49c-.752-.484-1.475-.949-2.143-.281s-.2,1.391.281,2.143a2.435,2.435,0,0,1,.49,1.038,2.141,2.141,0,0,1-.464,1.027,2.643,2.643,0,0,0-.6,1.481,2.693,2.693,0,0,0,.607,1.5,2.07,2.07,0,0,1,.452,1,2.066,2.066,0,0,1-.452,1,2.7,2.7,0,0,0-.607,1.5,2.7,2.7,0,0,0,.607,1.5,2.062,2.062,0,0,1,.452,1,2.064,2.064,0,0,1-.452.995,2.7,2.7,0,0,0-.607,1.5,2.64,2.64,0,0,0,.6,1.48,2.144,2.144,0,0,1,.464,1.028,2.438,2.438,0,0,1-.49,1.037c-.483.753-.948,1.476-.281,2.144s1.391.2,2.143-.281a2.417,2.417,0,0,1,1.038-.49,2.147,2.147,0,0,1,1.028.464,2.639,2.639,0,0,0,1.48.595,2.7,2.7,0,0,0,1.5-.606,2.054,2.054,0,0,1,1-.452,2.055,2.055,0,0,1,.995.452,2.7,2.7,0,0,0,1.5.606,2.7,2.7,0,0,0,1.5-.606,2.058,2.058,0,0,1,1-.452,2.062,2.062,0,0,1,1,.452,2.7,2.7,0,0,0,1.5.606,2.639,2.639,0,0,0,1.481-.595,2.144,2.144,0,0,1,1.027-.464,2.408,2.408,0,0,1,1.038.49c.752.483,1.476.948,2.143.281s.2-1.391-.281-2.144a2.46,2.46,0,0,1-.49-1.037,2.152,2.152,0,0,1,.464-1.028,2.641,2.641,0,0,0,.6-1.48,2.7,2.7,0,0,0-.607-1.5,2.055,2.055,0,0,1-.452-.995,2.054,2.054,0,0,1,.452-1,2.708,2.708,0,0,0,.607-1.5,2.7,2.7,0,0,0-.607-1.5,2.057,2.057,0,0,1-.452-1,2.061,2.061,0,0,1,.452-1,2.7,2.7,0,0,0,.607-1.5,2.644,2.644,0,0,0-.6-1.481,2.15,2.15,0,0,1-.464-1.027,2.458,2.458,0,0,1,.49-1.038" transform="translate(199.065 -280.298)" fill="#a7a7a7"/>
        <path id="Path_7588" data-name="Path 7588" d="M-181.046,291.358l-3.043-3.131a1.146,1.146,0,0,0-1.613,0l-2.671,2.747-.378-.389a1.17,1.17,0,0,0-1.615,0l-4.029,4.145a1.169,1.169,0,0,0-.334.828,1.174,1.174,0,0,0,.334.826,1.121,1.121,0,0,0,1.613,0l3.223-3.315,4.169,4.289a1.12,1.12,0,0,0,.809.345,1.115,1.115,0,0,0,.8-.341,1.173,1.173,0,0,0,.336-.827,1.173,1.173,0,0,0-.333-.827l-2.99-3.076,1.867-1.921,2.236,2.3a1.114,1.114,0,0,0,.807.344h0a1.115,1.115,0,0,0,.8-.34,1.171,1.171,0,0,0,.336-.827,1.177,1.177,0,0,0-.333-.827" transform="translate(198.706 -280.948)" fill="#a7a7a7"/>
        <path id="Path_7589" data-name="Path 7589" d="M-191.735,289.392a1.619,1.619,0,0,0,1.589-1.642,1.621,1.621,0,0,0-1.589-1.649,1.621,1.621,0,0,0-1.589,1.649A1.619,1.619,0,0,0-191.735,289.392Z" transform="translate(198.591 -280.8)" fill="none" stroke="#a7a7a7" stroke-width="1.539"/>
      </g>
    </g>
  </g>
</svg>
